<?xml version="1.0" standalone="no"?>
<!DOCTYPE svg PUBLIC "-//W3C//DTD SVG 1.1//EN" 
  "http://www.w3.org/Graphics/SVG/1.1/DTD/svg11.dtd">
<svg xmlns="http://www.w3.org/2000/svg" height="1000" width="1000">
<circle cx="66.93379673051115" cy="896.3241449538035" r="2.0" stroke="black" stroke-width="3" fill="red" />
<circle cx="667.9927635428533" cy="629.6301305260088" r="2.0" stroke="black" stroke-width="3" fill="red" />
<circle cx="247.14122255789272" cy="41.9483400165972" r="2.0" stroke="black" stroke-width="3" fill="red" />
<circle cx="299.00506615219035" cy="330.66098679864155" r="2.0" stroke="black" stroke-width="3" fill="red" />
<circle cx="470.968853515369" cy="208.40738073018127" r="2.0" stroke="black" stroke-width="3" fill="red" />
<circle cx="420.506332255718" cy="460.49509331444085" r="2.0" stroke="black" stroke-width="3" fill="red" />
<circle cx="321.95332953872867" cy="109.8706956580997" r="2.0" stroke="black" stroke-width="3" fill="red" />
<circle cx="112.98470508567138" cy="237.0744484357712" r="2.0" stroke="black" stroke-width="3" fill="red" />
<circle cx="367.23384477858457" cy="314.0697424777172" r="2.0" stroke="black" stroke-width="3" fill="red" />
<circle cx="236.96189346244734" cy="564.1623340647067" r="2.0" stroke="black" stroke-width="3" fill="red" />
<circle cx="18.48262227785391" cy="809.5076059603102" r="2.0" stroke="black" stroke-width="3" fill="red" />
<circle cx="733.8425632427562" cy="982.6742468843477" r="2.0" stroke="black" stroke-width="3" fill="red" />
<circle cx="516.3333481935471" cy="694.7396626275412" r="2.0" stroke="black" stroke-width="3" fill="red" />
<circle cx="246.68819906950313" cy="220.41367006536106" r="2.0" stroke="black" stroke-width="3" fill="red" />
<circle cx="663.8264050476778" cy="997.3246696021638" r="2.0" stroke="black" stroke-width="3" fill="red" />
<circle cx="311.92237727470774" cy="274.08125701021515" r="2.0" stroke="black" stroke-width="3" fill="red" />
<circle cx="68.17862841508516" cy="177.8960832996902" r="2.0" stroke="black" stroke-width="3" fill="red" />
<circle cx="397.388545094812" cy="20.902045909716893" r="2.0" stroke="black" stroke-width="3" fill="red" />
<circle cx="815.2247239731745" cy="703.9063153059569" r="2.0" stroke="black" stroke-width="3" fill="red" />
<circle cx="617.8456734780543" cy="201.94283373068822" r="2.0" stroke="black" stroke-width="3" fill="red" />
<circle cx="697.1661851536606" cy="187.9468322512845" r="2.0" stroke="black" stroke-width="3" fill="red" />
<circle cx="45.90094464979566" cy="245.16707054849718" r="2.0" stroke="black" stroke-width="3" fill="red" />
<circle cx="341.80267823758516" cy="977.1497489339703" r="2.0" stroke="black" stroke-width="3" fill="red" />
<circle cx="154.5427559164343" cy="803.5025370691957" r="2.0" stroke="black" stroke-width="3" fill="red" />
<circle cx="850.2103520175274" cy="753.0272747077032" r="2.0" stroke="black" stroke-width="3" fill="red" />
<circle cx="76.85154441445441" cy="71.67275217234415" r="2.0" stroke="black" stroke-width="3" fill="red" />
<circle cx="839.8697588884825" cy="655.2074347927381" r="2.0" stroke="black" stroke-width="3" fill="red" />
<circle cx="49.12983151452399" cy="915.2698016026744" r="2.0" stroke="black" stroke-width="3" fill="red" />
<circle cx="111.53608325819853" cy="677.8757996355696" r="2.0" stroke="black" stroke-width="3" fill="red" />
<circle cx="615.6070762201755" cy="596.523308686196" r="2.0" stroke="black" stroke-width="3" fill="red" />
<circle cx="510.6826597159947" cy="604.3345598077128" r="2.0" stroke="black" stroke-width="3" fill="red" />
<circle cx="916.0386839995517" cy="413.4459589175896" r="2.0" stroke="black" stroke-width="3" fill="red" />
<circle cx="938.1383076984408" cy="542.9421066952003" r="2.0" stroke="black" stroke-width="3" fill="red" />
<circle cx="651.9331821615094" cy="882.5135164081134" r="2.0" stroke="black" stroke-width="3" fill="red" />
<circle cx="879.5777997840171" cy="206.79727730526508" r="2.0" stroke="black" stroke-width="3" fill="red" />
<circle cx="132.80493976216601" cy="189.76298071226495" r="2.0" stroke="black" stroke-width="3" fill="red" />
<circle cx="269.81400932987964" cy="439.88469596913626" r="2.0" stroke="black" stroke-width="3" fill="red" />
<circle cx="140.76433779635988" cy="511.16978022837225" r="2.0" stroke="black" stroke-width="3" fill="red" />
<circle cx="985.3794283914992" cy="133.99843983509297" r="2.0" stroke="black" stroke-width="3" fill="red" />
<circle cx="219.9213151604199" cy="460.39094137946336" r="2.0" stroke="black" stroke-width="3" fill="red" />
<line x1="18.48262227785391" y1="809.5076059603102" x2="49.12983151452399" y2="915.2698016026744" style="stroke:rgb(255,0,0);stroke-width:3.0" />
<line x1="49.12983151452399" y1="915.2698016026744" x2="341.80267823758516" y2="977.1497489339703" style="stroke:rgb(255,0,0);stroke-width:3.0" />
<line x1="341.80267823758516" y1="977.1497489339703" x2="663.8264050476778" y2="997.3246696021638" style="stroke:rgb(255,0,0);stroke-width:3.0" />
<line x1="663.8264050476778" y1="997.3246696021638" x2="733.8425632427562" y2="982.6742468843477" style="stroke:rgb(255,0,0);stroke-width:3.0" />
<line x1="733.8425632427562" y1="982.6742468843477" x2="850.2103520175274" y2="753.0272747077032" style="stroke:rgb(255,0,0);stroke-width:3.0" />
<line x1="850.2103520175274" y1="753.0272747077032" x2="938.1383076984408" y2="542.9421066952003" style="stroke:rgb(255,0,0);stroke-width:3.0" />
<line x1="938.1383076984408" y1="542.9421066952003" x2="985.3794283914992" y2="133.99843983509297" style="stroke:rgb(255,0,0);stroke-width:3.0" />
<line x1="985.3794283914992" y1="133.99843983509297" x2="397.388545094812" y2="20.902045909716893" style="stroke:rgb(255,0,0);stroke-width:3.0" />
<line x1="397.388545094812" y1="20.902045909716893" x2="247.14122255789272" y2="41.9483400165972" style="stroke:rgb(255,0,0);stroke-width:3.0" />
<line x1="247.14122255789272" y1="41.9483400165972" x2="76.85154441445441" y2="71.67275217234415" style="stroke:rgb(255,0,0);stroke-width:3.0" />
<line x1="76.85154441445441" y1="71.67275217234415" x2="45.90094464979566" y2="245.16707054849718" style="stroke:rgb(255,0,0);stroke-width:3.0" />
<line x1="45.90094464979566" y1="245.16707054849718" x2="18.48262227785391" y2="809.5076059603102" style="stroke:rgb(255,0,0);stroke-width:3.0" />
</svg>
