<?xml version="1.0" standalone="no"?>
<!DOCTYPE svg PUBLIC "-//W3C//DTD SVG 1.1//EN" 
  "http://www.w3.org/Graphics/SVG/1.1/DTD/svg11.dtd">
<svg xmlns="http://www.w3.org/2000/svg" height="1000" width="1000">
<circle cx="139.797290574748" cy="369.9359193042244" r="4.0" stroke="black" stroke-width="3" fill="red" />
<circle cx="560.4441773677479" cy="575.0290661514373" r="4.0" stroke="black" stroke-width="3" fill="red" />
<circle cx="901.9749865789913" cy="809.0223277805204" r="4.0" stroke="black" stroke-width="3" fill="red" />
<circle cx="617.1562358146434" cy="543.2821378255118" r="4.0" stroke="black" stroke-width="3" fill="red" />
<circle cx="77.05575426837107" cy="951.0570644089155" r="4.0" stroke="black" stroke-width="3" fill="red" />
<circle cx="659.1503054595621" cy="735.9789218406834" r="4.0" stroke="black" stroke-width="3" fill="red" />
<circle cx="958.7124733136692" cy="343.45864414054785" r="4.0" stroke="black" stroke-width="3" fill="red" />
<circle cx="8.50787514532736" cy="662.5517023313705" r="4.0" stroke="black" stroke-width="3" fill="red" />
<circle cx="693.3814863599729" cy="951.298678061641" r="4.0" stroke="black" stroke-width="3" fill="red" />
<circle cx="320.08915781450696" cy="834.2733838594755" r="4.0" stroke="black" stroke-width="3" fill="red" />
<circle cx="713.7754683941145" cy="656.194073303871" r="4.0" stroke="black" stroke-width="3" fill="red" />
<circle cx="816.4760651840209" cy="74.70036716928962" r="4.0" stroke="black" stroke-width="3" fill="red" />
<circle cx="756.2212437299941" cy="649.1209108143719" r="4.0" stroke="black" stroke-width="3" fill="red" />
<circle cx="824.6510432399656" cy="956.2298848535028" r="4.0" stroke="black" stroke-width="3" fill="red" />
<circle cx="974.0601796196025" cy="830.2179370816632" r="4.0" stroke="black" stroke-width="3" fill="red" />
<circle cx="939.6375203473871" cy="89.60979551610338" r="4.0" stroke="black" stroke-width="3" fill="red" />
<circle cx="168.13810069156256" cy="251.49864822647515" r="4.0" stroke="black" stroke-width="3" fill="red" />
<circle cx="539.7421404360247" cy="431.71371806685374" r="4.0" stroke="black" stroke-width="3" fill="red" />
<circle cx="695.4497975737212" cy="842.492756917233" r="4.0" stroke="black" stroke-width="3" fill="red" />
<circle cx="308.70235971339224" cy="996.622417304264" r="4.0" stroke="black" stroke-width="3" fill="red" />
<circle cx="188.29360324113077" cy="144.18950538804154" r="4.0" stroke="black" stroke-width="3" fill="red" />
<circle cx="881.9578055602385" cy="356.027895300602" r="4.0" stroke="black" stroke-width="3" fill="red" />
<circle cx="818.8291452531788" cy="543.2565084979611" r="4.0" stroke="black" stroke-width="3" fill="red" />
<circle cx="727.4270802505138" cy="97.203798112809" r="4.0" stroke="black" stroke-width="3" fill="red" />
<circle cx="477.7216155216935" cy="546.3597117624723" r="4.0" stroke="black" stroke-width="3" fill="red" />
<circle cx="895.5864946465157" cy="970.2621000191255" r="4.0" stroke="black" stroke-width="3" fill="red" />
<circle cx="900.5941718302367" cy="963.5112299021127" r="4.0" stroke="black" stroke-width="3" fill="red" />
<circle cx="329.310870742038" cy="801.1425463982447" r="4.0" stroke="black" stroke-width="3" fill="red" />
<circle cx="472.299779567094" cy="479.72412453217373" r="4.0" stroke="black" stroke-width="3" fill="red" />
<circle cx="10.85042776892653" cy="372.7577831073272" r="4.0" stroke="black" stroke-width="3" fill="red" />
<circle cx="166.56213152353084" cy="985.8536049288256" r="4.0" stroke="black" stroke-width="3" fill="red" />
<circle cx="341.4822966791405" cy="383.94427943992827" r="4.0" stroke="black" stroke-width="3" fill="red" />
<circle cx="837.3251687723103" cy="212.35679117042605" r="4.0" stroke="black" stroke-width="3" fill="red" />
<circle cx="798.7893192816136" cy="284.34481337947346" r="4.0" stroke="black" stroke-width="3" fill="red" />
<circle cx="868.189007533079" cy="663.8042794731131" r="4.0" stroke="black" stroke-width="3" fill="red" />
<circle cx="97.18176589516392" cy="253.07550154757251" r="4.0" stroke="black" stroke-width="3" fill="red" />
<circle cx="7.599959300681136" cy="587.3279641471457" r="4.0" stroke="black" stroke-width="3" fill="red" />
<circle cx="789.1935468947631" cy="840.006722892236" r="4.0" stroke="black" stroke-width="3" fill="red" />
<circle cx="70.00026788339986" cy="724.7919423761193" r="4.0" stroke="black" stroke-width="3" fill="red" />
<circle cx="488.24663385143475" cy="820.7138478502311" r="4.0" stroke="black" stroke-width="3" fill="red" />
<line x1="139.797290574748" y1="369.9359193042244" x2="560.4441773677479" y2="575.0290661514373" style="stroke:rgb(0,0,0);stroke-width:1.0" />
<line x1="895.5864946465157" y1="970.2621000191255" x2="900.5941718302367" y2="963.5112299021127" style="stroke:rgb(0,0,0);stroke-width:1.0" />
<line x1="900.5941718302367" y1="963.5112299021127" x2="895.5864946465157" y2="970.2621000191255" style="stroke:rgb(0,0,0);stroke-width:1.0" />
<line x1="329.310870742038" y1="801.1425463982447" x2="320.08915781450696" y2="834.2733838594755" style="stroke:rgb(0,0,0);stroke-width:1.0" />
<line x1="320.08915781450696" y1="834.2733838594755" x2="329.310870742038" y2="801.1425463982447" style="stroke:rgb(0,0,0);stroke-width:1.0" />
<line x1="756.2212437299941" y1="649.1209108143719" x2="713.7754683941145" y2="656.194073303871" style="stroke:rgb(0,0,0);stroke-width:1.0" />
<line x1="713.7754683941145" y1="656.194073303871" x2="756.2212437299941" y2="649.1209108143719" style="stroke:rgb(0,0,0);stroke-width:1.0" />
<line x1="824.6510432399656" y1="956.2298848535028" x2="900.5941718302367" y2="963.5112299021127" style="stroke:rgb(0,0,0);stroke-width:1.0" />
<line x1="901.9749865789913" y1="809.0223277805204" x2="974.0601796196025" y2="830.2179370816632" style="stroke:rgb(0,0,0);stroke-width:1.0" />
<line x1="881.9578055602385" y1="356.027895300602" x2="958.7124733136692" y2="343.45864414054785" style="stroke:rgb(0,0,0);stroke-width:1.0" />
<line x1="97.18176589516392" y1="253.07550154757251" x2="168.13810069156256" y2="251.49864822647515" style="stroke:rgb(0,0,0);stroke-width:1.0" />
<line x1="617.1562358146434" y1="543.2821378255118" x2="560.4441773677479" y2="575.0290661514373" style="stroke:rgb(0,0,0);stroke-width:1.0" />
<line x1="824.6510432399656" y1="956.2298848535028" x2="895.5864946465157" y2="970.2621000191255" style="stroke:rgb(0,0,0);stroke-width:1.0" />
<line x1="900.5941718302367" y1="963.5112299021127" x2="824.6510432399656" y2="956.2298848535028" style="stroke:rgb(0,0,0);stroke-width:1.0" />
<line x1="958.7124733136692" y1="343.45864414054785" x2="881.9578055602385" y2="356.027895300602" style="stroke:rgb(0,0,0);stroke-width:1.0" />
<line x1="974.0601796196025" y1="830.2179370816632" x2="901.9749865789913" y2="809.0223277805204" style="stroke:rgb(0,0,0);stroke-width:1.0" />
<line x1="7.599959300681136" y1="587.3279641471457" x2="8.50787514532736" y2="662.5517023313705" style="stroke:rgb(0,0,0);stroke-width:1.0" />
<line x1="168.13810069156256" y1="251.49864822647515" x2="97.18176589516392" y2="253.07550154757251" style="stroke:rgb(0,0,0);stroke-width:1.0" />
<line x1="8.50787514532736" y1="662.5517023313705" x2="7.599959300681136" y2="587.3279641471457" style="stroke:rgb(0,0,0);stroke-width:1.0" />
<line x1="895.5864946465157" y1="970.2621000191255" x2="824.6510432399656" y2="956.2298848535028" style="stroke:rgb(0,0,0);stroke-width:1.0" />
<line x1="560.4441773677479" y1="575.0290661514373" x2="617.1562358146434" y2="543.2821378255118" style="stroke:rgb(0,0,0);stroke-width:1.0" />
<line x1="789.1935468947631" y1="840.006722892236" x2="695.4497975737212" y2="842.492756917233" style="stroke:rgb(0,0,0);stroke-width:1.0" />
<line x1="560.4441773677479" y1="575.0290661514373" x2="477.7216155216935" y2="546.3597117624723" style="stroke:rgb(0,0,0);stroke-width:1.0" />
<line x1="477.7216155216935" y1="546.3597117624723" x2="560.4441773677479" y2="575.0290661514373" style="stroke:rgb(0,0,0);stroke-width:1.0" />
<line x1="472.299779567094" y1="479.72412453217373" x2="539.7421404360247" y2="431.71371806685374" style="stroke:rgb(0,0,0);stroke-width:1.0" />
<line x1="166.56213152353084" y1="985.8536049288256" x2="77.05575426837107" y2="951.0570644089155" style="stroke:rgb(0,0,0);stroke-width:1.0" />
<line x1="70.00026788339986" y1="724.7919423761193" x2="8.50787514532736" y2="662.5517023313705" style="stroke:rgb(0,0,0);stroke-width:1.0" />
<line x1="539.7421404360247" y1="431.71371806685374" x2="472.299779567094" y2="479.72412453217373" style="stroke:rgb(0,0,0);stroke-width:1.0" />
<line x1="77.05575426837107" y1="951.0570644089155" x2="166.56213152353084" y2="985.8536049288256" style="stroke:rgb(0,0,0);stroke-width:1.0" />
<line x1="695.4497975737212" y1="842.492756917233" x2="789.1935468947631" y2="840.006722892236" style="stroke:rgb(0,0,0);stroke-width:1.0" />
<line x1="727.4270802505138" y1="97.203798112809" x2="816.4760651840209" y2="74.70036716928962" style="stroke:rgb(0,0,0);stroke-width:1.0" />
<line x1="659.1503054595621" y1="735.9789218406834" x2="713.7754683941145" y2="656.194073303871" style="stroke:rgb(0,0,0);stroke-width:1.0" />
<line x1="798.7893192816136" y1="284.34481337947346" x2="837.3251687723103" y2="212.35679117042605" style="stroke:rgb(0,0,0);stroke-width:1.0" />
<line x1="8.50787514532736" y1="662.5517023313705" x2="70.00026788339986" y2="724.7919423761193" style="stroke:rgb(0,0,0);stroke-width:1.0" />
<line x1="713.7754683941145" y1="656.194073303871" x2="659.1503054595621" y2="735.9789218406834" style="stroke:rgb(0,0,0);stroke-width:1.0" />
<line x1="816.4760651840209" y1="74.70036716928962" x2="727.4270802505138" y2="97.203798112809" style="stroke:rgb(0,0,0);stroke-width:1.0" />
<line x1="837.3251687723103" y1="212.35679117042605" x2="798.7893192816136" y2="284.34481337947346" style="stroke:rgb(0,0,0);stroke-width:1.0" />
<line x1="901.9749865789913" y1="809.0223277805204" x2="789.1935468947631" y2="840.006722892236" style="stroke:rgb(0,0,0);stroke-width:1.0" />
<line x1="695.4497975737212" y1="842.492756917233" x2="693.3814863599729" y2="951.298678061641" style="stroke:rgb(0,0,0);stroke-width:1.0" />
<line x1="881.9578055602385" y1="356.027895300602" x2="798.7893192816136" y2="284.34481337947346" style="stroke:rgb(0,0,0);stroke-width:1.0" />
<line x1="693.3814863599729" y1="951.298678061641" x2="695.4497975737212" y2="842.492756917233" style="stroke:rgb(0,0,0);stroke-width:1.0" />
<line x1="188.29360324113077" y1="144.18950538804154" x2="168.13810069156256" y2="251.49864822647515" style="stroke:rgb(0,0,0);stroke-width:1.0" />
<line x1="798.7893192816136" y1="284.34481337947346" x2="881.9578055602385" y2="356.027895300602" style="stroke:rgb(0,0,0);stroke-width:1.0" />
<line x1="756.2212437299941" y1="649.1209108143719" x2="868.189007533079" y2="663.8042794731131" style="stroke:rgb(0,0,0);stroke-width:1.0" />
<line x1="168.13810069156256" y1="251.49864822647515" x2="188.29360324113077" y2="144.18950538804154" style="stroke:rgb(0,0,0);stroke-width:1.0" />
<line x1="789.1935468947631" y1="840.006722892236" x2="901.9749865789913" y2="809.0223277805204" style="stroke:rgb(0,0,0);stroke-width:1.0" />
<line x1="868.189007533079" y1="663.8042794731131" x2="756.2212437299941" y2="649.1209108143719" style="stroke:rgb(0,0,0);stroke-width:1.0" />
<line x1="695.4497975737212" y1="842.492756917233" x2="659.1503054595621" y2="735.9789218406834" style="stroke:rgb(0,0,0);stroke-width:1.0" />
<line x1="659.1503054595621" y1="735.9789218406834" x2="695.4497975737212" y2="842.492756917233" style="stroke:rgb(0,0,0);stroke-width:1.0" />
<line x1="659.1503054595621" y1="735.9789218406834" x2="756.2212437299941" y2="649.1209108143719" style="stroke:rgb(0,0,0);stroke-width:1.0" />
<line x1="818.8291452531788" y1="543.2565084979611" x2="868.189007533079" y2="663.8042794731131" style="stroke:rgb(0,0,0);stroke-width:1.0" />
<line x1="816.4760651840209" y1="74.70036716928962" x2="939.6375203473871" y2="89.60979551610338" style="stroke:rgb(0,0,0);stroke-width:1.0" />
<line x1="789.1935468947631" y1="840.006722892236" x2="824.6510432399656" y2="956.2298848535028" style="stroke:rgb(0,0,0);stroke-width:1.0" />
<line x1="139.797290574748" y1="369.9359193042244" x2="97.18176589516392" y2="253.07550154757251" style="stroke:rgb(0,0,0);stroke-width:1.0" />
<line x1="837.3251687723103" y1="212.35679117042605" x2="816.4760651840209" y2="74.70036716928962" style="stroke:rgb(0,0,0);stroke-width:1.0" />
<line x1="816.4760651840209" y1="74.70036716928962" x2="837.3251687723103" y2="212.35679117042605" style="stroke:rgb(0,0,0);stroke-width:1.0" />
<line x1="756.2212437299941" y1="649.1209108143719" x2="659.1503054595621" y2="735.9789218406834" style="stroke:rgb(0,0,0);stroke-width:1.0" />
<line x1="818.8291452531788" y1="543.2565084979611" x2="756.2212437299941" y2="649.1209108143719" style="stroke:rgb(0,0,0);stroke-width:1.0" />
<line x1="139.797290574748" y1="369.9359193042244" x2="168.13810069156256" y2="251.49864822647515" style="stroke:rgb(0,0,0);stroke-width:1.0" />
<line x1="868.189007533079" y1="663.8042794731131" x2="818.8291452531788" y2="543.2565084979611" style="stroke:rgb(0,0,0);stroke-width:1.0" />
<line x1="824.6510432399656" y1="956.2298848535028" x2="693.3814863599729" y2="951.298678061641" style="stroke:rgb(0,0,0);stroke-width:1.0" />
<line x1="560.4441773677479" y1="575.0290661514373" x2="472.299779567094" y2="479.72412453217373" style="stroke:rgb(0,0,0);stroke-width:1.0" />
<line x1="97.18176589516392" y1="253.07550154757251" x2="139.797290574748" y2="369.9359193042244" style="stroke:rgb(0,0,0);stroke-width:1.0" />
<line x1="756.2212437299941" y1="649.1209108143719" x2="818.8291452531788" y2="543.2565084979611" style="stroke:rgb(0,0,0);stroke-width:1.0" />
<line x1="539.7421404360247" y1="431.71371806685374" x2="617.1562358146434" y2="543.2821378255118" style="stroke:rgb(0,0,0);stroke-width:1.0" />
<line x1="617.1562358146434" y1="543.2821378255118" x2="539.7421404360247" y2="431.71371806685374" style="stroke:rgb(0,0,0);stroke-width:1.0" />
<line x1="939.6375203473871" y1="89.60979551610338" x2="816.4760651840209" y2="74.70036716928962" style="stroke:rgb(0,0,0);stroke-width:1.0" />
<line x1="10.85042776892653" y1="372.7577831073272" x2="139.797290574748" y2="369.9359193042244" style="stroke:rgb(0,0,0);stroke-width:1.0" />
<line x1="824.6510432399656" y1="956.2298848535028" x2="789.1935468947631" y2="840.006722892236" style="stroke:rgb(0,0,0);stroke-width:1.0" />
<line x1="168.13810069156256" y1="251.49864822647515" x2="139.797290574748" y2="369.9359193042244" style="stroke:rgb(0,0,0);stroke-width:1.0" />
<line x1="693.3814863599729" y1="951.298678061641" x2="824.6510432399656" y2="956.2298848535028" style="stroke:rgb(0,0,0);stroke-width:1.0" />
<line x1="472.299779567094" y1="479.72412453217373" x2="560.4441773677479" y2="575.0290661514373" style="stroke:rgb(0,0,0);stroke-width:1.0" />
<line x1="139.797290574748" y1="369.9359193042244" x2="10.85042776892653" y2="372.7577831073272" style="stroke:rgb(0,0,0);stroke-width:1.0" />
<line x1="713.7754683941145" y1="656.194073303871" x2="617.1562358146434" y2="543.2821378255118" style="stroke:rgb(0,0,0);stroke-width:1.0" />
<line x1="472.299779567094" y1="479.72412453217373" x2="617.1562358146434" y2="543.2821378255118" style="stroke:rgb(0,0,0);stroke-width:1.0" />
<line x1="617.1562358146434" y1="543.2821378255118" x2="472.299779567094" y2="479.72412453217373" style="stroke:rgb(0,0,0);stroke-width:1.0" />
<line x1="818.8291452531788" y1="543.2565084979611" x2="713.7754683941145" y2="656.194073303871" style="stroke:rgb(0,0,0);stroke-width:1.0" />
<line x1="70.00026788339986" y1="724.7919423761193" x2="7.599959300681136" y2="587.3279641471457" style="stroke:rgb(0,0,0);stroke-width:1.0" />
<line x1="713.7754683941145" y1="656.194073303871" x2="818.8291452531788" y2="543.2565084979611" style="stroke:rgb(0,0,0);stroke-width:1.0" />
<line x1="837.3251687723103" y1="212.35679117042605" x2="881.9578055602385" y2="356.027895300602" style="stroke:rgb(0,0,0);stroke-width:1.0" />
<line x1="974.0601796196025" y1="830.2179370816632" x2="900.5941718302367" y2="963.5112299021127" style="stroke:rgb(0,0,0);stroke-width:1.0" />
<line x1="97.18176589516392" y1="253.07550154757251" x2="188.29360324113077" y2="144.18950538804154" style="stroke:rgb(0,0,0);stroke-width:1.0" />
<line x1="10.85042776892653" y1="372.7577831073272" x2="97.18176589516392" y2="253.07550154757251" style="stroke:rgb(0,0,0);stroke-width:1.0" />
<line x1="900.5941718302367" y1="963.5112299021127" x2="901.9749865789913" y2="809.0223277805204" style="stroke:rgb(0,0,0);stroke-width:1.0" />
<line x1="939.6375203473871" y1="89.60979551610338" x2="837.3251687723103" y2="212.35679117042605" style="stroke:rgb(0,0,0);stroke-width:1.0" />
<line x1="166.56213152353084" y1="985.8536049288256" x2="308.70235971339224" y2="996.622417304264" style="stroke:rgb(0,0,0);stroke-width:1.0" />
<line x1="693.3814863599729" y1="951.298678061641" x2="789.1935468947631" y2="840.006722892236" style="stroke:rgb(0,0,0);stroke-width:1.0" />
<line x1="308.70235971339224" y1="996.622417304264" x2="166.56213152353084" y2="985.8536049288256" style="stroke:rgb(0,0,0);stroke-width:1.0" />
<line x1="837.3251687723103" y1="212.35679117042605" x2="939.6375203473871" y2="89.60979551610338" style="stroke:rgb(0,0,0);stroke-width:1.0" />
<line x1="727.4270802505138" y1="97.203798112809" x2="837.3251687723103" y2="212.35679117042605" style="stroke:rgb(0,0,0);stroke-width:1.0" />
<line x1="901.9749865789913" y1="809.0223277805204" x2="868.189007533079" y2="663.8042794731131" style="stroke:rgb(0,0,0);stroke-width:1.0" />
<line x1="881.9578055602385" y1="356.027895300602" x2="837.3251687723103" y2="212.35679117042605" style="stroke:rgb(0,0,0);stroke-width:1.0" />
<line x1="837.3251687723103" y1="212.35679117042605" x2="727.4270802505138" y2="97.203798112809" style="stroke:rgb(0,0,0);stroke-width:1.0" />
<line x1="617.1562358146434" y1="543.2821378255118" x2="713.7754683941145" y2="656.194073303871" style="stroke:rgb(0,0,0);stroke-width:1.0" />
<line x1="7.599959300681136" y1="587.3279641471457" x2="70.00026788339986" y2="724.7919423761193" style="stroke:rgb(0,0,0);stroke-width:1.0" />
<line x1="97.18176589516392" y1="253.07550154757251" x2="10.85042776892653" y2="372.7577831073272" style="stroke:rgb(0,0,0);stroke-width:1.0" />
<line x1="868.189007533079" y1="663.8042794731131" x2="901.9749865789913" y2="809.0223277805204" style="stroke:rgb(0,0,0);stroke-width:1.0" />
<line x1="900.5941718302367" y1="963.5112299021127" x2="974.0601796196025" y2="830.2179370816632" style="stroke:rgb(0,0,0);stroke-width:1.0" />
<line x1="789.1935468947631" y1="840.006722892236" x2="693.3814863599729" y2="951.298678061641" style="stroke:rgb(0,0,0);stroke-width:1.0" />
<line x1="188.29360324113077" y1="144.18950538804154" x2="97.18176589516392" y2="253.07550154757251" style="stroke:rgb(0,0,0);stroke-width:1.0" />
<line x1="901.9749865789913" y1="809.0223277805204" x2="900.5941718302367" y2="963.5112299021127" style="stroke:rgb(0,0,0);stroke-width:1.0" />
<line x1="308.70235971339224" y1="996.622417304264" x2="320.08915781450696" y2="834.2733838594755" style="stroke:rgb(0,0,0);stroke-width:1.0" />
<line x1="789.1935468947631" y1="840.006722892236" x2="659.1503054595621" y2="735.9789218406834" style="stroke:rgb(0,0,0);stroke-width:1.0" />
<line x1="837.3251687723103" y1="212.35679117042605" x2="958.7124733136692" y2="343.45864414054785" style="stroke:rgb(0,0,0);stroke-width:1.0" />
<line x1="472.299779567094" y1="479.72412453217373" x2="341.4822966791405" y2="383.94427943992827" style="stroke:rgb(0,0,0);stroke-width:1.0" />
<line x1="659.1503054595621" y1="735.9789218406834" x2="789.1935468947631" y2="840.006722892236" style="stroke:rgb(0,0,0);stroke-width:1.0" />
<line x1="713.7754683941145" y1="656.194073303871" x2="560.4441773677479" y2="575.0290661514373" style="stroke:rgb(0,0,0);stroke-width:1.0" />
<line x1="320.08915781450696" y1="834.2733838594755" x2="308.70235971339224" y2="996.622417304264" style="stroke:rgb(0,0,0);stroke-width:1.0" />
<line x1="329.310870742038" y1="801.1425463982447" x2="488.24663385143475" y2="820.7138478502311" style="stroke:rgb(0,0,0);stroke-width:1.0" />
<line x1="560.4441773677479" y1="575.0290661514373" x2="713.7754683941145" y2="656.194073303871" style="stroke:rgb(0,0,0);stroke-width:1.0" />
<line x1="320.08915781450696" y1="834.2733838594755" x2="488.24663385143475" y2="820.7138478502311" style="stroke:rgb(0,0,0);stroke-width:1.0" />
<line x1="488.24663385143475" y1="820.7138478502311" x2="329.310870742038" y2="801.1425463982447" style="stroke:rgb(0,0,0);stroke-width:1.0" />
<line x1="901.9749865789913" y1="809.0223277805204" x2="824.6510432399656" y2="956.2298848535028" style="stroke:rgb(0,0,0);stroke-width:1.0" />
<line x1="488.24663385143475" y1="820.7138478502311" x2="320.08915781450696" y2="834.2733838594755" style="stroke:rgb(0,0,0);stroke-width:1.0" />
<line x1="341.4822966791405" y1="383.94427943992827" x2="472.299779567094" y2="479.72412453217373" style="stroke:rgb(0,0,0);stroke-width:1.0" />
<line x1="824.6510432399656" y1="956.2298848535028" x2="901.9749865789913" y2="809.0223277805204" style="stroke:rgb(0,0,0);stroke-width:1.0" />
<line x1="958.7124733136692" y1="343.45864414054785" x2="837.3251687723103" y2="212.35679117042605" style="stroke:rgb(0,0,0);stroke-width:1.0" />
<line x1="659.1503054595621" y1="735.9789218406834" x2="488.24663385143475" y2="820.7138478502311" style="stroke:rgb(0,0,0);stroke-width:1.0" />
<line x1="560.4441773677479" y1="575.0290661514373" x2="659.1503054595621" y2="735.9789218406834" style="stroke:rgb(0,0,0);stroke-width:1.0" />
<line x1="868.189007533079" y1="663.8042794731131" x2="789.1935468947631" y2="840.006722892236" style="stroke:rgb(0,0,0);stroke-width:1.0" />
<line x1="488.24663385143475" y1="820.7138478502311" x2="659.1503054595621" y2="735.9789218406834" style="stroke:rgb(0,0,0);stroke-width:1.0" />
<line x1="974.0601796196025" y1="830.2179370816632" x2="868.189007533079" y2="663.8042794731131" style="stroke:rgb(0,0,0);stroke-width:1.0" />
<line x1="868.189007533079" y1="663.8042794731131" x2="974.0601796196025" y2="830.2179370816632" style="stroke:rgb(0,0,0);stroke-width:1.0" />
<line x1="789.1935468947631" y1="840.006722892236" x2="868.189007533079" y2="663.8042794731131" style="stroke:rgb(0,0,0);stroke-width:1.0" />
<line x1="881.9578055602385" y1="356.027895300602" x2="818.8291452531788" y2="543.2565084979611" style="stroke:rgb(0,0,0);stroke-width:1.0" />
<line x1="756.2212437299941" y1="649.1209108143719" x2="789.1935468947631" y2="840.006722892236" style="stroke:rgb(0,0,0);stroke-width:1.0" />
<line x1="789.1935468947631" y1="840.006722892236" x2="756.2212437299941" y2="649.1209108143719" style="stroke:rgb(0,0,0);stroke-width:1.0" />
<line x1="659.1503054595621" y1="735.9789218406834" x2="560.4441773677479" y2="575.0290661514373" style="stroke:rgb(0,0,0);stroke-width:1.0" />
<line x1="818.8291452531788" y1="543.2565084979611" x2="881.9578055602385" y2="356.027895300602" style="stroke:rgb(0,0,0);stroke-width:1.0" />
<line x1="320.08915781450696" y1="834.2733838594755" x2="166.56213152353084" y2="985.8536049288256" style="stroke:rgb(0,0,0);stroke-width:1.0" />
<line x1="798.7893192816136" y1="284.34481337947346" x2="727.4270802505138" y2="97.203798112809" style="stroke:rgb(0,0,0);stroke-width:1.0" />
<line x1="488.24663385143475" y1="820.7138478502311" x2="695.4497975737212" y2="842.492756917233" style="stroke:rgb(0,0,0);stroke-width:1.0" />
<line x1="695.4497975737212" y1="842.492756917233" x2="488.24663385143475" y2="820.7138478502311" style="stroke:rgb(0,0,0);stroke-width:1.0" />
<line x1="341.4822966791405" y1="383.94427943992827" x2="168.13810069156256" y2="251.49864822647515" style="stroke:rgb(0,0,0);stroke-width:1.0" />
<line x1="818.8291452531788" y1="543.2565084979611" x2="617.1562358146434" y2="543.2821378255118" style="stroke:rgb(0,0,0);stroke-width:1.0" />
<line x1="168.13810069156256" y1="251.49864822647515" x2="341.4822966791405" y2="383.94427943992827" style="stroke:rgb(0,0,0);stroke-width:1.0" />
<line x1="693.3814863599729" y1="951.298678061641" x2="895.5864946465157" y2="970.2621000191255" style="stroke:rgb(0,0,0);stroke-width:1.0" />
<line x1="727.4270802505138" y1="97.203798112809" x2="798.7893192816136" y2="284.34481337947346" style="stroke:rgb(0,0,0);stroke-width:1.0" />
<line x1="341.4822966791405" y1="383.94427943992827" x2="139.797290574748" y2="369.9359193042244" style="stroke:rgb(0,0,0);stroke-width:1.0" />
<line x1="7.599959300681136" y1="587.3279641471457" x2="10.85042776892653" y2="372.7577831073272" style="stroke:rgb(0,0,0);stroke-width:1.0" />
<line x1="539.7421404360247" y1="431.71371806685374" x2="341.4822966791405" y2="383.94427943992827" style="stroke:rgb(0,0,0);stroke-width:1.0" />
<line x1="166.56213152353084" y1="985.8536049288256" x2="320.08915781450696" y2="834.2733838594755" style="stroke:rgb(0,0,0);stroke-width:1.0" />
<line x1="139.797290574748" y1="369.9359193042244" x2="341.4822966791405" y2="383.94427943992827" style="stroke:rgb(0,0,0);stroke-width:1.0" />
<line x1="895.5864946465157" y1="970.2621000191255" x2="693.3814863599729" y2="951.298678061641" style="stroke:rgb(0,0,0);stroke-width:1.0" />
<line x1="10.85042776892653" y1="372.7577831073272" x2="7.599959300681136" y2="587.3279641471457" style="stroke:rgb(0,0,0);stroke-width:1.0" />
<line x1="341.4822966791405" y1="383.94427943992827" x2="539.7421404360247" y2="431.71371806685374" style="stroke:rgb(0,0,0);stroke-width:1.0" />
<line x1="617.1562358146434" y1="543.2821378255118" x2="818.8291452531788" y2="543.2565084979611" style="stroke:rgb(0,0,0);stroke-width:1.0" />
<line x1="70.00026788339986" y1="724.7919423761193" x2="77.05575426837107" y2="951.0570644089155" style="stroke:rgb(0,0,0);stroke-width:1.0" />
<line x1="77.05575426837107" y1="951.0570644089155" x2="70.00026788339986" y2="724.7919423761193" style="stroke:rgb(0,0,0);stroke-width:1.0" />
<line x1="693.3814863599729" y1="951.298678061641" x2="488.24663385143475" y2="820.7138478502311" style="stroke:rgb(0,0,0);stroke-width:1.0" />
<line x1="560.4441773677479" y1="575.0290661514373" x2="488.24663385143475" y2="820.7138478502311" style="stroke:rgb(0,0,0);stroke-width:1.0" />
<line x1="488.24663385143475" y1="820.7138478502311" x2="308.70235971339224" y2="996.622417304264" style="stroke:rgb(0,0,0);stroke-width:1.0" />
<line x1="818.8291452531788" y1="543.2565084979611" x2="798.7893192816136" y2="284.34481337947346" style="stroke:rgb(0,0,0);stroke-width:1.0" />
<line x1="166.56213152353084" y1="985.8536049288256" x2="329.310870742038" y2="801.1425463982447" style="stroke:rgb(0,0,0);stroke-width:1.0" />
<line x1="939.6375203473871" y1="89.60979551610338" x2="958.7124733136692" y2="343.45864414054785" style="stroke:rgb(0,0,0);stroke-width:1.0" />
<line x1="7.599959300681136" y1="587.3279641471457" x2="139.797290574748" y2="369.9359193042244" style="stroke:rgb(0,0,0);stroke-width:1.0" />
<line x1="958.7124733136692" y1="343.45864414054785" x2="939.6375203473871" y2="89.60979551610338" style="stroke:rgb(0,0,0);stroke-width:1.0" />
<line x1="308.70235971339224" y1="996.622417304264" x2="488.24663385143475" y2="820.7138478502311" style="stroke:rgb(0,0,0);stroke-width:1.0" />
<line x1="818.8291452531788" y1="543.2565084979611" x2="958.7124733136692" y2="343.45864414054785" style="stroke:rgb(0,0,0);stroke-width:1.0" />
<line x1="798.7893192816136" y1="284.34481337947346" x2="818.8291452531788" y2="543.2565084979611" style="stroke:rgb(0,0,0);stroke-width:1.0" />
<line x1="488.24663385143475" y1="820.7138478502311" x2="693.3814863599729" y2="951.298678061641" style="stroke:rgb(0,0,0);stroke-width:1.0" />
<line x1="329.310870742038" y1="801.1425463982447" x2="166.56213152353084" y2="985.8536049288256" style="stroke:rgb(0,0,0);stroke-width:1.0" />
<line x1="139.797290574748" y1="369.9359193042244" x2="7.599959300681136" y2="587.3279641471457" style="stroke:rgb(0,0,0);stroke-width:1.0" />
<line x1="488.24663385143475" y1="820.7138478502311" x2="560.4441773677479" y2="575.0290661514373" style="stroke:rgb(0,0,0);stroke-width:1.0" />
<line x1="958.7124733136692" y1="343.45864414054785" x2="818.8291452531788" y2="543.2565084979611" style="stroke:rgb(0,0,0);stroke-width:1.0" />
<line x1="329.310870742038" y1="801.1425463982447" x2="70.00026788339986" y2="724.7919423761193" style="stroke:rgb(0,0,0);stroke-width:1.0" />
<line x1="166.56213152353084" y1="985.8536049288256" x2="70.00026788339986" y2="724.7919423761193" style="stroke:rgb(0,0,0);stroke-width:1.0" />
<line x1="70.00026788339986" y1="724.7919423761193" x2="329.310870742038" y2="801.1425463982447" style="stroke:rgb(0,0,0);stroke-width:1.0" />
<line x1="488.24663385143475" y1="820.7138478502311" x2="477.7216155216935" y2="546.3597117624723" style="stroke:rgb(0,0,0);stroke-width:1.0" />
<line x1="70.00026788339986" y1="724.7919423761193" x2="166.56213152353084" y2="985.8536049288256" style="stroke:rgb(0,0,0);stroke-width:1.0" />
<line x1="477.7216155216935" y1="546.3597117624723" x2="488.24663385143475" y2="820.7138478502311" style="stroke:rgb(0,0,0);stroke-width:1.0" />
<line x1="329.310870742038" y1="801.1425463982447" x2="477.7216155216935" y2="546.3597117624723" style="stroke:rgb(0,0,0);stroke-width:1.0" />
<line x1="8.50787514532736" y1="662.5517023313705" x2="77.05575426837107" y2="951.0570644089155" style="stroke:rgb(0,0,0);stroke-width:1.0" />
<line x1="477.7216155216935" y1="546.3597117624723" x2="329.310870742038" y2="801.1425463982447" style="stroke:rgb(0,0,0);stroke-width:1.0" />
<line x1="341.4822966791405" y1="383.94427943992827" x2="188.29360324113077" y2="144.18950538804154" style="stroke:rgb(0,0,0);stroke-width:1.0" />
<line x1="560.4441773677479" y1="575.0290661514373" x2="341.4822966791405" y2="383.94427943992827" style="stroke:rgb(0,0,0);stroke-width:1.0" />
<line x1="188.29360324113077" y1="144.18950538804154" x2="341.4822966791405" y2="383.94427943992827" style="stroke:rgb(0,0,0);stroke-width:1.0" />
<line x1="77.05575426837107" y1="951.0570644089155" x2="8.50787514532736" y2="662.5517023313705" style="stroke:rgb(0,0,0);stroke-width:1.0" />
<line x1="798.7893192816136" y1="284.34481337947346" x2="539.7421404360247" y2="431.71371806685374" style="stroke:rgb(0,0,0);stroke-width:1.0" />
<line x1="341.4822966791405" y1="383.94427943992827" x2="560.4441773677479" y2="575.0290661514373" style="stroke:rgb(0,0,0);stroke-width:1.0" />
<line x1="539.7421404360247" y1="431.71371806685374" x2="798.7893192816136" y2="284.34481337947346" style="stroke:rgb(0,0,0);stroke-width:1.0" />
<line x1="539.7421404360247" y1="431.71371806685374" x2="818.8291452531788" y2="543.2565084979611" style="stroke:rgb(0,0,0);stroke-width:1.0" />
<line x1="818.8291452531788" y1="543.2565084979611" x2="539.7421404360247" y2="431.71371806685374" style="stroke:rgb(0,0,0);stroke-width:1.0" />
<line x1="868.189007533079" y1="663.8042794731131" x2="958.7124733136692" y2="343.45864414054785" style="stroke:rgb(0,0,0);stroke-width:1.0" />
<line x1="958.7124733136692" y1="343.45864414054785" x2="868.189007533079" y2="663.8042794731131" style="stroke:rgb(0,0,0);stroke-width:1.0" />
<line x1="139.797290574748" y1="369.9359193042244" x2="70.00026788339986" y2="724.7919423761193" style="stroke:rgb(0,0,0);stroke-width:1.0" />
<line x1="70.00026788339986" y1="724.7919423761193" x2="139.797290574748" y2="369.9359193042244" style="stroke:rgb(0,0,0);stroke-width:1.0" />
<line x1="727.4270802505138" y1="97.203798112809" x2="539.7421404360247" y2="431.71371806685374" style="stroke:rgb(0,0,0);stroke-width:1.0" />
<line x1="308.70235971339224" y1="996.622417304264" x2="693.3814863599729" y2="951.298678061641" style="stroke:rgb(0,0,0);stroke-width:1.0" />
<line x1="477.7216155216935" y1="546.3597117624723" x2="139.797290574748" y2="369.9359193042244" style="stroke:rgb(0,0,0);stroke-width:1.0" />
<line x1="539.7421404360247" y1="431.71371806685374" x2="727.4270802505138" y2="97.203798112809" style="stroke:rgb(0,0,0);stroke-width:1.0" />
<line x1="139.797290574748" y1="369.9359193042244" x2="477.7216155216935" y2="546.3597117624723" style="stroke:rgb(0,0,0);stroke-width:1.0" />
<line x1="693.3814863599729" y1="951.298678061641" x2="308.70235971339224" y2="996.622417304264" style="stroke:rgb(0,0,0);stroke-width:1.0" />
<line x1="70.00026788339986" y1="724.7919423761193" x2="477.7216155216935" y2="546.3597117624723" style="stroke:rgb(0,0,0);stroke-width:1.0" />
<line x1="477.7216155216935" y1="546.3597117624723" x2="70.00026788339986" y2="724.7919423761193" style="stroke:rgb(0,0,0);stroke-width:1.0" />
<line x1="539.7421404360247" y1="431.71371806685374" x2="188.29360324113077" y2="144.18950538804154" style="stroke:rgb(0,0,0);stroke-width:1.0" />
<line x1="188.29360324113077" y1="144.18950538804154" x2="539.7421404360247" y2="431.71371806685374" style="stroke:rgb(0,0,0);stroke-width:1.0" />
<line x1="139.797290574748" y1="369.9359193042244" x2="560.4441773677479" y2="575.0290661514373" style="stroke:rgb(0,0,0);stroke-width:1.0" />
<line x1="560.4441773677479" y1="575.0290661514373" x2="139.797290574748" y2="369.9359193042244" style="stroke:rgb(0,0,0);stroke-width:1.0" />
<line x1="958.7124733136692" y1="343.45864414054785" x2="974.0601796196025" y2="830.2179370816632" style="stroke:rgb(0,0,0);stroke-width:1.0" />
<line x1="974.0601796196025" y1="830.2179370816632" x2="958.7124733136692" y2="343.45864414054785" style="stroke:rgb(0,0,0);stroke-width:1.0" />
<line x1="727.4270802505138" y1="97.203798112809" x2="188.29360324113077" y2="144.18950538804154" style="stroke:rgb(0,0,0);stroke-width:1.0" />
<line x1="188.29360324113077" y1="144.18950538804154" x2="727.4270802505138" y2="97.203798112809" style="stroke:rgb(0,0,0);stroke-width:1.0" />
<line x1="895.5864946465157" y1="970.2621000191255" x2="308.70235971339224" y2="996.622417304264" style="stroke:rgb(0,0,0);stroke-width:1.0" />
<line x1="308.70235971339224" y1="996.622417304264" x2="895.5864946465157" y2="970.2621000191255" style="stroke:rgb(0,0,0);stroke-width:1.0" />
<line x1="188.29360324113077" y1="144.18950538804154" x2="816.4760651840209" y2="74.70036716928962" style="stroke:rgb(0,0,0);stroke-width:1.0" />
<line x1="816.4760651840209" y1="74.70036716928962" x2="188.29360324113077" y2="144.18950538804154" style="stroke:rgb(0,0,0);stroke-width:1.0" />
</svg>
