<?xml version="1.0" standalone="no"?>
<!DOCTYPE svg PUBLIC "-//W3C//DTD SVG 1.1//EN" 
  "http://www.w3.org/Graphics/SVG/1.1/DTD/svg11.dtd">
<svg xmlns="http://www.w3.org/2000/svg" height="1000" width="1000">
<circle cx="7.66026457592639" cy="277.15844846965854" r="4.0" stroke="black" stroke-width="3" fill="red" />
<circle cx="34.092332796126776" cy="488.96397732847817" r="4.0" stroke="black" stroke-width="3" fill="red" />
<circle cx="245.2161432389004" cy="511.9158209814815" r="4.0" stroke="black" stroke-width="3" fill="red" />
<circle cx="630.5529328723457" cy="565.0602471257446" r="4.0" stroke="black" stroke-width="3" fill="red" />
<circle cx="79.87429448309346" cy="73.46361204405838" r="4.0" stroke="black" stroke-width="3" fill="red" />
<circle cx="302.6190984544699" cy="568.8102081793514" r="4.0" stroke="black" stroke-width="3" fill="red" />
<circle cx="622.5015813115635" cy="942.892532160031" r="4.0" stroke="black" stroke-width="3" fill="red" />
<circle cx="948.9931239100368" cy="538.4178731877383" r="4.0" stroke="black" stroke-width="3" fill="red" />
<circle cx="415.3069158583287" cy="438.49642877902915" r="4.0" stroke="black" stroke-width="3" fill="red" />
<circle cx="222.0938709071475" cy="445.8653741625127" r="4.0" stroke="black" stroke-width="3" fill="red" />
<circle cx="845.279565391899" cy="466.15719652193366" r="4.0" stroke="black" stroke-width="3" fill="red" />
<circle cx="741.4659600886939" cy="370.2891515300821" r="4.0" stroke="black" stroke-width="3" fill="red" />
<circle cx="129.34840124237067" cy="406.39986384074035" r="4.0" stroke="black" stroke-width="3" fill="red" />
<circle cx="33.039364891089384" cy="61.88683018921293" r="4.0" stroke="black" stroke-width="3" fill="red" />
<circle cx="63.55357496512715" cy="94.32508994483446" r="4.0" stroke="black" stroke-width="3" fill="red" />
<circle cx="986.6277458016303" cy="612.8156859402521" r="4.0" stroke="black" stroke-width="3" fill="red" />
<circle cx="905.2795425472582" cy="408.19651391449406" r="4.0" stroke="black" stroke-width="3" fill="red" />
<circle cx="378.93773058599265" cy="714.2396130993579" r="4.0" stroke="black" stroke-width="3" fill="red" />
<circle cx="340.6064239955856" cy="698.281165271655" r="4.0" stroke="black" stroke-width="3" fill="red" />
<circle cx="670.4934069545907" cy="897.6260218582312" r="4.0" stroke="black" stroke-width="3" fill="red" />
<circle cx="478.0943838398959" cy="659.6107582528518" r="4.0" stroke="black" stroke-width="3" fill="red" />
<circle cx="852.2634246977482" cy="233.58986386019532" r="4.0" stroke="black" stroke-width="3" fill="red" />
<circle cx="205.8233757671516" cy="280.6528030364954" r="4.0" stroke="black" stroke-width="3" fill="red" />
<circle cx="591.4110379061079" cy="193.02745681625822" r="4.0" stroke="black" stroke-width="3" fill="red" />
<circle cx="50.26889722550931" cy="184.44999167588526" r="4.0" stroke="black" stroke-width="3" fill="red" />
<circle cx="305.4697223708015" cy="762.977506745181" r="4.0" stroke="black" stroke-width="3" fill="red" />
<circle cx="883.601589063893" cy="19.607309218632295" r="4.0" stroke="black" stroke-width="3" fill="red" />
<circle cx="80.38070518550533" cy="453.59263183936383" r="4.0" stroke="black" stroke-width="3" fill="red" />
<circle cx="440.25669216737805" cy="555.5761886504355" r="4.0" stroke="black" stroke-width="3" fill="red" />
<circle cx="540.2102070663175" cy="532.7997037721368" r="4.0" stroke="black" stroke-width="3" fill="red" />
<circle cx="624.1273455178492" cy="790.0053812118257" r="4.0" stroke="black" stroke-width="3" fill="red" />
<circle cx="874.998772482248" cy="681.6725431577337" r="4.0" stroke="black" stroke-width="3" fill="red" />
<circle cx="14.4929566126486" cy="685.4990065970744" r="4.0" stroke="black" stroke-width="3" fill="red" />
<circle cx="238.07610243114874" cy="276.23618917258295" r="4.0" stroke="black" stroke-width="3" fill="red" />
<circle cx="811.8021689494249" cy="118.94169241562302" r="4.0" stroke="black" stroke-width="3" fill="red" />
<circle cx="635.3088512128727" cy="670.3669318538215" r="4.0" stroke="black" stroke-width="3" fill="red" />
<circle cx="703.6879065251312" cy="248.6218638161658" r="4.0" stroke="black" stroke-width="3" fill="red" />
<circle cx="246.13125268105406" cy="179.64768179639123" r="4.0" stroke="black" stroke-width="3" fill="red" />
<circle cx="777.0989512511678" cy="782.704122109674" r="4.0" stroke="black" stroke-width="3" fill="red" />
<circle cx="839.8408721271978" cy="947.483638641189" r="4.0" stroke="black" stroke-width="3" fill="red" />
<circle cx="654.191277471009" cy="567.1719245102377" r="4.0" stroke="black" stroke-width="3" fill="red" />
<circle cx="580.5255335667804" cy="512.4786664881572" r="4.0" stroke="black" stroke-width="3" fill="red" />
<circle cx="487.62978423628346" cy="502.1824904451062" r="4.0" stroke="black" stroke-width="3" fill="red" />
<circle cx="50.11924069900975" cy="690.0176951334797" r="4.0" stroke="black" stroke-width="3" fill="red" />
<circle cx="315.2085462624965" cy="42.84552315161228" r="4.0" stroke="black" stroke-width="3" fill="red" />
<circle cx="761.4682694784564" cy="331.1960329120808" r="4.0" stroke="black" stroke-width="3" fill="red" />
<circle cx="544.2062767265301" cy="443.75837736803527" r="4.0" stroke="black" stroke-width="3" fill="red" />
<circle cx="781.9216984228013" cy="628.6820144719852" r="4.0" stroke="black" stroke-width="3" fill="red" />
<circle cx="12.650706878019612" cy="466.2000873323753" r="4.0" stroke="black" stroke-width="3" fill="red" />
<circle cx="342.84253561445865" cy="901.7942593647259" r="4.0" stroke="black" stroke-width="3" fill="red" />
<circle cx="157.67391473981462" cy="482.70708647493797" r="4.0" stroke="black" stroke-width="3" fill="red" />
<circle cx="471.5696664972396" cy="212.02032601034037" r="4.0" stroke="black" stroke-width="3" fill="red" />
<circle cx="310.398445126146" cy="785.8240391915657" r="4.0" stroke="black" stroke-width="3" fill="red" />
<circle cx="749.7421368370364" cy="735.399084537863" r="4.0" stroke="black" stroke-width="3" fill="red" />
<circle cx="32.30141541548781" cy="436.1430867458028" r="4.0" stroke="black" stroke-width="3" fill="red" />
<circle cx="275.5318504791333" cy="549.6340306602938" r="4.0" stroke="black" stroke-width="3" fill="red" />
<circle cx="709.7622009957117" cy="169.31559299563713" r="4.0" stroke="black" stroke-width="3" fill="red" />
<circle cx="787.2118962716946" cy="381.50037712250963" r="4.0" stroke="black" stroke-width="3" fill="red" />
<circle cx="331.5066995928836" cy="722.5401943204589" r="4.0" stroke="black" stroke-width="3" fill="red" />
<circle cx="691.6218153333518" cy="904.0540164778594" r="4.0" stroke="black" stroke-width="3" fill="red" />
<circle cx="487.919223929693" cy="438.10204072578085" r="4.0" stroke="black" stroke-width="3" fill="red" />
<circle cx="433.4730378220426" cy="373.3456619286315" r="4.0" stroke="black" stroke-width="3" fill="red" />
<circle cx="151.70051563748922" cy="154.8576260983262" r="4.0" stroke="black" stroke-width="3" fill="red" />
<circle cx="240.0712275060791" cy="750.7888205211516" r="4.0" stroke="black" stroke-width="3" fill="red" />
<circle cx="726.1089535030778" cy="208.1305103033866" r="4.0" stroke="black" stroke-width="3" fill="red" />
<circle cx="780.9145117239445" cy="970.0256606121328" r="4.0" stroke="black" stroke-width="3" fill="red" />
<circle cx="180.02882534022834" cy="824.3033586903396" r="4.0" stroke="black" stroke-width="3" fill="red" />
<circle cx="692.7597789206583" cy="676.0801393063085" r="4.0" stroke="black" stroke-width="3" fill="red" />
<circle cx="828.3680319079609" cy="318.4616616473621" r="4.0" stroke="black" stroke-width="3" fill="red" />
<circle cx="238.13183124384142" cy="589.7827915935367" r="4.0" stroke="black" stroke-width="3" fill="red" />
<circle cx="461.79552837662686" cy="281.76585744806283" r="4.0" stroke="black" stroke-width="3" fill="red" />
<circle cx="588.8831095438014" cy="631.8973495642878" r="4.0" stroke="black" stroke-width="3" fill="red" />
<circle cx="81.58585604302415" cy="379.79729774400516" r="4.0" stroke="black" stroke-width="3" fill="red" />
<circle cx="356.29439630495074" cy="79.07426293146602" r="4.0" stroke="black" stroke-width="3" fill="red" />
<circle cx="453.34664360192613" cy="473.945616549329" r="4.0" stroke="black" stroke-width="3" fill="red" />
<circle cx="25.339944587094543" cy="317.7018106569396" r="4.0" stroke="black" stroke-width="3" fill="red" />
<circle cx="57.66257910765316" cy="524.9735570888263" r="4.0" stroke="black" stroke-width="3" fill="red" />
<circle cx="893.1227901898285" cy="211.92060587777894" r="4.0" stroke="black" stroke-width="3" fill="red" />
<circle cx="786.1969648753674" cy="141.21752271135622" r="4.0" stroke="black" stroke-width="3" fill="red" />
<circle cx="960.1197257386709" cy="708.5126327068843" r="4.0" stroke="black" stroke-width="3" fill="red" />
<circle cx="908.5500448147583" cy="693.4504188118567" r="4.0" stroke="black" stroke-width="3" fill="red" />
<circle cx="977.7570623559013" cy="64.07133503153194" r="4.0" stroke="black" stroke-width="3" fill="red" />
<circle cx="418.1808237797735" cy="634.2555356647414" r="4.0" stroke="black" stroke-width="3" fill="red" />
<circle cx="516.9720642486909" cy="998.8047786571473" r="4.0" stroke="black" stroke-width="3" fill="red" />
<circle cx="854.9574374626822" cy="31.829194296419395" r="4.0" stroke="black" stroke-width="3" fill="red" />
<circle cx="489.7974760618715" cy="156.51854556572286" r="4.0" stroke="black" stroke-width="3" fill="red" />
<circle cx="97.40798438023168" cy="356.4508097179878" r="4.0" stroke="black" stroke-width="3" fill="red" />
<circle cx="29.63900469085734" cy="481.7711917656572" r="4.0" stroke="black" stroke-width="3" fill="red" />
<circle cx="419.50280898309325" cy="242.42919108831384" r="4.0" stroke="black" stroke-width="3" fill="red" />
<circle cx="15.798905204960967" cy="512.8899620806334" r="4.0" stroke="black" stroke-width="3" fill="red" />
<circle cx="314.8058926060716" cy="289.1544142698451" r="4.0" stroke="black" stroke-width="3" fill="red" />
<circle cx="813.9316730927667" cy="133.47958578256447" r="4.0" stroke="black" stroke-width="3" fill="red" />
<circle cx="205.09145409196526" cy="961.9543958909483" r="4.0" stroke="black" stroke-width="3" fill="red" />
<circle cx="996.4999194826364" cy="25.252763647783063" r="4.0" stroke="black" stroke-width="3" fill="red" />
<circle cx="171.0296853795529" cy="306.776187381048" r="4.0" stroke="black" stroke-width="3" fill="red" />
<circle cx="905.9324398183539" cy="921.455879888128" r="4.0" stroke="black" stroke-width="3" fill="red" />
<circle cx="269.30277894828083" cy="502.28207024852344" r="4.0" stroke="black" stroke-width="3" fill="red" />
<circle cx="928.0681818630397" cy="772.8591110024485" r="4.0" stroke="black" stroke-width="3" fill="red" />
<circle cx="833.5211448225526" cy="238.7706641958951" r="4.0" stroke="black" stroke-width="3" fill="red" />
<circle cx="254.6036270028489" cy="107.2248932873835" r="4.0" stroke="black" stroke-width="3" fill="red" />
<line x1="7.66026457592639" y1="277.15844846965854" x2="34.092332796126776" y2="488.96397732847817" style="stroke:rgb(0,0,0);stroke-width:1.0" />
<line x1="331.5066995928836" y1="722.5401943204589" x2="378.93773058599265" y2="714.2396130993579" style="stroke:rgb(0,0,0);stroke-width:1.0" />
<line x1="630.5529328723457" y1="565.0602471257446" x2="654.191277471009" y2="567.1719245102377" style="stroke:rgb(0,0,0);stroke-width:1.0" />
<line x1="691.6218153333518" y1="904.0540164778594" x2="670.4934069545907" y2="897.6260218582312" style="stroke:rgb(0,0,0);stroke-width:1.0" />
<line x1="63.55357496512715" y1="94.32508994483446" x2="79.87429448309346" y2="73.46361204405838" style="stroke:rgb(0,0,0);stroke-width:1.0" />
<line x1="305.4697223708015" y1="762.977506745181" x2="331.5066995928836" y2="722.5401943204589" style="stroke:rgb(0,0,0);stroke-width:1.0" />
<line x1="302.6190984544699" y1="568.8102081793514" x2="275.5318504791333" y2="549.6340306602938" style="stroke:rgb(0,0,0);stroke-width:1.0" />
<line x1="269.30277894828083" y1="502.28207024852344" x2="245.2161432389004" y2="511.9158209814815" style="stroke:rgb(0,0,0);stroke-width:1.0" />
<line x1="33.039364891089384" y1="61.88683018921293" x2="79.87429448309346" y2="73.46361204405838" style="stroke:rgb(0,0,0);stroke-width:1.0" />
<line x1="908.5500448147583" y1="693.4504188118567" x2="874.998772482248" y2="681.6725431577337" style="stroke:rgb(0,0,0);stroke-width:1.0" />
<line x1="726.1089535030778" y1="208.1305103033866" x2="709.7622009957117" y2="169.31559299563713" style="stroke:rgb(0,0,0);stroke-width:1.0" />
<line x1="57.66257910765316" y1="524.9735570888263" x2="34.092332796126776" y2="488.96397732847817" style="stroke:rgb(0,0,0);stroke-width:1.0" />
<line x1="15.798905204960967" y1="512.8899620806334" x2="29.63900469085734" y2="481.7711917656572" style="stroke:rgb(0,0,0);stroke-width:1.0" />
<line x1="238.07610243114874" y1="276.23618917258295" x2="205.8233757671516" y2="280.6528030364954" style="stroke:rgb(0,0,0);stroke-width:1.0" />
<line x1="79.87429448309346" y1="73.46361204405838" x2="33.039364891089384" y2="61.88683018921293" style="stroke:rgb(0,0,0);stroke-width:1.0" />
<line x1="786.1969648753674" y1="141.21752271135622" x2="811.8021689494249" y2="118.94169241562302" style="stroke:rgb(0,0,0);stroke-width:1.0" />
<line x1="331.5066995928836" y1="722.5401943204589" x2="305.4697223708015" y2="762.977506745181" style="stroke:rgb(0,0,0);stroke-width:1.0" />
<line x1="29.63900469085734" y1="481.7711917656572" x2="34.092332796126776" y2="488.96397732847817" style="stroke:rgb(0,0,0);stroke-width:1.0" />
<line x1="205.8233757671516" y1="280.6528030364954" x2="171.0296853795529" y2="306.776187381048" style="stroke:rgb(0,0,0);stroke-width:1.0" />
<line x1="741.4659600886939" y1="370.2891515300821" x2="761.4682694784564" y2="331.1960329120808" style="stroke:rgb(0,0,0);stroke-width:1.0" />
<line x1="50.11924069900975" y1="690.0176951334797" x2="14.4929566126486" y2="685.4990065970744" style="stroke:rgb(0,0,0);stroke-width:1.0" />
<line x1="25.339944587094543" y1="317.7018106569396" x2="7.66026457592639" y2="277.15844846965854" style="stroke:rgb(0,0,0);stroke-width:1.0" />
<line x1="813.9316730927667" y1="133.47958578256447" x2="786.1969648753674" y2="141.21752271135622" style="stroke:rgb(0,0,0);stroke-width:1.0" />
<line x1="813.9316730927667" y1="133.47958578256447" x2="811.8021689494249" y2="118.94169241562302" style="stroke:rgb(0,0,0);stroke-width:1.0" />
<line x1="487.62978423628346" y1="502.1824904451062" x2="453.34664360192613" y2="473.945616549329" style="stroke:rgb(0,0,0);stroke-width:1.0" />
<line x1="854.9574374626822" y1="31.829194296419395" x2="883.601589063893" y2="19.607309218632295" style="stroke:rgb(0,0,0);stroke-width:1.0" />
<line x1="761.4682694784564" y1="331.1960329120808" x2="741.4659600886939" y2="370.2891515300821" style="stroke:rgb(0,0,0);stroke-width:1.0" />
<line x1="378.93773058599265" y1="714.2396130993579" x2="331.5066995928836" y2="722.5401943204589" style="stroke:rgb(0,0,0);stroke-width:1.0" />
<line x1="12.650706878019612" y1="466.2000873323753" x2="15.798905204960967" y2="512.8899620806334" style="stroke:rgb(0,0,0);stroke-width:1.0" />
<line x1="811.8021689494249" y1="118.94169241562302" x2="786.1969648753674" y2="141.21752271135622" style="stroke:rgb(0,0,0);stroke-width:1.0" />
<line x1="703.6879065251312" y1="248.6218638161658" x2="726.1089535030778" y2="208.1305103033866" style="stroke:rgb(0,0,0);stroke-width:1.0" />
<line x1="487.919223929693" y1="438.10204072578085" x2="453.34664360192613" y2="473.945616549329" style="stroke:rgb(0,0,0);stroke-width:1.0" />
<line x1="786.1969648753674" y1="141.21752271135622" x2="813.9316730927667" y2="133.47958578256447" style="stroke:rgb(0,0,0);stroke-width:1.0" />
<line x1="29.63900469085734" y1="481.7711917656572" x2="15.798905204960967" y2="512.8899620806334" style="stroke:rgb(0,0,0);stroke-width:1.0" />
<line x1="310.398445126146" y1="785.8240391915657" x2="305.4697223708015" y2="762.977506745181" style="stroke:rgb(0,0,0);stroke-width:1.0" />
<line x1="340.6064239955856" y1="698.281165271655" x2="378.93773058599265" y2="714.2396130993579" style="stroke:rgb(0,0,0);stroke-width:1.0" />
<line x1="205.8233757671516" y1="280.6528030364954" x2="238.07610243114874" y2="276.23618917258295" style="stroke:rgb(0,0,0);stroke-width:1.0" />
<line x1="893.1227901898285" y1="211.92060587777894" x2="852.2634246977482" y2="233.58986386019532" style="stroke:rgb(0,0,0);stroke-width:1.0" />
<line x1="15.798905204960967" y1="512.8899620806334" x2="34.092332796126776" y2="488.96397732847817" style="stroke:rgb(0,0,0);stroke-width:1.0" />
<line x1="305.4697223708015" y1="762.977506745181" x2="310.398445126146" y2="785.8240391915657" style="stroke:rgb(0,0,0);stroke-width:1.0" />
<line x1="833.5211448225526" y1="238.7706641958951" x2="852.2634246977482" y2="233.58986386019532" style="stroke:rgb(0,0,0);stroke-width:1.0" />
<line x1="81.58585604302415" y1="379.79729774400516" x2="97.40798438023168" y2="356.4508097179878" style="stroke:rgb(0,0,0);stroke-width:1.0" />
<line x1="741.4659600886939" y1="370.2891515300821" x2="787.2118962716946" y2="381.50037712250963" style="stroke:rgb(0,0,0);stroke-width:1.0" />
<line x1="57.66257910765316" y1="524.9735570888263" x2="15.798905204960967" y2="512.8899620806334" style="stroke:rgb(0,0,0);stroke-width:1.0" />
<line x1="34.092332796126776" y1="488.96397732847817" x2="29.63900469085734" y2="481.7711917656572" style="stroke:rgb(0,0,0);stroke-width:1.0" />
<line x1="811.8021689494249" y1="118.94169241562302" x2="813.9316730927667" y2="133.47958578256447" style="stroke:rgb(0,0,0);stroke-width:1.0" />
<line x1="12.650706878019612" y1="466.2000873323753" x2="29.63900469085734" y2="481.7711917656572" style="stroke:rgb(0,0,0);stroke-width:1.0" />
<line x1="340.6064239955856" y1="698.281165271655" x2="331.5066995928836" y2="722.5401943204589" style="stroke:rgb(0,0,0);stroke-width:1.0" />
<line x1="331.5066995928836" y1="722.5401943204589" x2="340.6064239955856" y2="698.281165271655" style="stroke:rgb(0,0,0);stroke-width:1.0" />
<line x1="453.34664360192613" y1="473.945616549329" x2="487.62978423628346" y2="502.1824904451062" style="stroke:rgb(0,0,0);stroke-width:1.0" />
<line x1="275.5318504791333" y1="549.6340306602938" x2="269.30277894828083" y2="502.28207024852344" style="stroke:rgb(0,0,0);stroke-width:1.0" />
<line x1="709.7622009957117" y1="169.31559299563713" x2="726.1089535030778" y2="208.1305103033866" style="stroke:rgb(0,0,0);stroke-width:1.0" />
<line x1="269.30277894828083" y1="502.28207024852344" x2="275.5318504791333" y2="549.6340306602938" style="stroke:rgb(0,0,0);stroke-width:1.0" />
<line x1="34.092332796126776" y1="488.96397732847817" x2="15.798905204960967" y2="512.8899620806334" style="stroke:rgb(0,0,0);stroke-width:1.0" />
<line x1="996.4999194826364" y1="25.252763647783063" x2="977.7570623559013" y2="64.07133503153194" style="stroke:rgb(0,0,0);stroke-width:1.0" />
<line x1="29.63900469085734" y1="481.7711917656572" x2="12.650706878019612" y2="466.2000873323753" style="stroke:rgb(0,0,0);stroke-width:1.0" />
<line x1="245.2161432389004" y1="511.9158209814815" x2="275.5318504791333" y2="549.6340306602938" style="stroke:rgb(0,0,0);stroke-width:1.0" />
<line x1="63.55357496512715" y1="94.32508994483446" x2="33.039364891089384" y2="61.88683018921293" style="stroke:rgb(0,0,0);stroke-width:1.0" />
<line x1="7.66026457592639" y1="277.15844846965854" x2="25.339944587094543" y2="317.7018106569396" style="stroke:rgb(0,0,0);stroke-width:1.0" />
<line x1="275.5318504791333" y1="549.6340306602938" x2="302.6190984544699" y2="568.8102081793514" style="stroke:rgb(0,0,0);stroke-width:1.0" />
<line x1="453.34664360192613" y1="473.945616549329" x2="487.919223929693" y2="438.10204072578085" style="stroke:rgb(0,0,0);stroke-width:1.0" />
<line x1="540.2102070663175" y1="532.7997037721368" x2="580.5255335667804" y2="512.4786664881572" style="stroke:rgb(0,0,0);stroke-width:1.0" />
<line x1="171.0296853795529" y1="306.776187381048" x2="205.8233757671516" y2="280.6528030364954" style="stroke:rgb(0,0,0);stroke-width:1.0" />
<line x1="787.2118962716946" y1="381.50037712250963" x2="741.4659600886939" y2="370.2891515300821" style="stroke:rgb(0,0,0);stroke-width:1.0" />
<line x1="97.40798438023168" y1="356.4508097179878" x2="81.58585604302415" y2="379.79729774400516" style="stroke:rgb(0,0,0);stroke-width:1.0" />
<line x1="654.191277471009" y1="567.1719245102377" x2="630.5529328723457" y2="565.0602471257446" style="stroke:rgb(0,0,0);stroke-width:1.0" />
<line x1="378.93773058599265" y1="714.2396130993579" x2="340.6064239955856" y2="698.281165271655" style="stroke:rgb(0,0,0);stroke-width:1.0" />
<line x1="852.2634246977482" y1="233.58986386019532" x2="893.1227901898285" y2="211.92060587777894" style="stroke:rgb(0,0,0);stroke-width:1.0" />
<line x1="883.601589063893" y1="19.607309218632295" x2="854.9574374626822" y2="31.829194296419395" style="stroke:rgb(0,0,0);stroke-width:1.0" />
<line x1="670.4934069545907" y1="897.6260218582312" x2="691.6218153333518" y2="904.0540164778594" style="stroke:rgb(0,0,0);stroke-width:1.0" />
<line x1="852.2634246977482" y1="233.58986386019532" x2="833.5211448225526" y2="238.7706641958951" style="stroke:rgb(0,0,0);stroke-width:1.0" />
<line x1="275.5318504791333" y1="549.6340306602938" x2="245.2161432389004" y2="511.9158209814815" style="stroke:rgb(0,0,0);stroke-width:1.0" />
<line x1="34.092332796126776" y1="488.96397732847817" x2="57.66257910765316" y2="524.9735570888263" style="stroke:rgb(0,0,0);stroke-width:1.0" />
<line x1="726.1089535030778" y1="208.1305103033866" x2="703.6879065251312" y2="248.6218638161658" style="stroke:rgb(0,0,0);stroke-width:1.0" />
<line x1="245.2161432389004" y1="511.9158209814815" x2="269.30277894828083" y2="502.28207024852344" style="stroke:rgb(0,0,0);stroke-width:1.0" />
<line x1="15.798905204960967" y1="512.8899620806334" x2="57.66257910765316" y2="524.9735570888263" style="stroke:rgb(0,0,0);stroke-width:1.0" />
<line x1="874.998772482248" y1="681.6725431577337" x2="908.5500448147583" y2="693.4504188118567" style="stroke:rgb(0,0,0);stroke-width:1.0" />
<line x1="15.798905204960967" y1="512.8899620806334" x2="12.650706878019612" y2="466.2000873323753" style="stroke:rgb(0,0,0);stroke-width:1.0" />
<line x1="580.5255335667804" y1="512.4786664881572" x2="540.2102070663175" y2="532.7997037721368" style="stroke:rgb(0,0,0);stroke-width:1.0" />
<line x1="79.87429448309346" y1="73.46361204405838" x2="63.55357496512715" y2="94.32508994483446" style="stroke:rgb(0,0,0);stroke-width:1.0" />
<line x1="977.7570623559013" y1="64.07133503153194" x2="996.4999194826364" y2="25.252763647783063" style="stroke:rgb(0,0,0);stroke-width:1.0" />
<line x1="14.4929566126486" y1="685.4990065970744" x2="50.11924069900975" y2="690.0176951334797" style="stroke:rgb(0,0,0);stroke-width:1.0" />
<line x1="33.039364891089384" y1="61.88683018921293" x2="63.55357496512715" y2="94.32508994483446" style="stroke:rgb(0,0,0);stroke-width:1.0" />
<line x1="302.6190984544699" y1="568.8102081793514" x2="238.13183124384142" y2="589.7827915935367" style="stroke:rgb(0,0,0);stroke-width:1.0" />
<line x1="419.50280898309325" y1="242.42919108831384" x2="461.79552837662686" y2="281.76585744806283" style="stroke:rgb(0,0,0);stroke-width:1.0" />
<line x1="777.0989512511678" y1="782.704122109674" x2="749.7421368370364" y2="735.399084537863" style="stroke:rgb(0,0,0);stroke-width:1.0" />
<line x1="893.1227901898285" y1="211.92060587777894" x2="833.5211448225526" y2="238.7706641958951" style="stroke:rgb(0,0,0);stroke-width:1.0" />
<line x1="828.3680319079609" y1="318.4616616473621" x2="833.5211448225526" y2="238.7706641958951" style="stroke:rgb(0,0,0);stroke-width:1.0" />
<line x1="238.13183124384142" y1="589.7827915935367" x2="245.2161432389004" y2="511.9158209814815" style="stroke:rgb(0,0,0);stroke-width:1.0" />
<line x1="433.4730378220426" y1="373.3456619286315" x2="487.919223929693" y2="438.10204072578085" style="stroke:rgb(0,0,0);stroke-width:1.0" />
<line x1="418.1808237797735" y1="634.2555356647414" x2="440.25669216737805" y2="555.5761886504355" style="stroke:rgb(0,0,0);stroke-width:1.0" />
<line x1="540.2102070663175" y1="532.7997037721368" x2="630.5529328723457" y2="565.0602471257446" style="stroke:rgb(0,0,0);stroke-width:1.0" />
<line x1="32.30141541548781" y1="436.1430867458028" x2="34.092332796126776" y2="488.96397732847817" style="stroke:rgb(0,0,0);stroke-width:1.0" />
<line x1="440.25669216737805" y1="555.5761886504355" x2="487.62978423628346" y2="502.1824904451062" style="stroke:rgb(0,0,0);stroke-width:1.0" />
<line x1="305.4697223708015" y1="762.977506745181" x2="378.93773058599265" y2="714.2396130993579" style="stroke:rgb(0,0,0);stroke-width:1.0" />
<line x1="761.4682694784564" y1="331.1960329120808" x2="787.2118962716946" y2="381.50037712250963" style="stroke:rgb(0,0,0);stroke-width:1.0" />
<line x1="80.38070518550533" y1="453.59263183936383" x2="32.30141541548781" y2="436.1430867458028" style="stroke:rgb(0,0,0);stroke-width:1.0" />
<line x1="487.919223929693" y1="438.10204072578085" x2="487.62978423628346" y2="502.1824904451062" style="stroke:rgb(0,0,0);stroke-width:1.0" />
<line x1="305.4697223708015" y1="762.977506745181" x2="340.6064239955856" y2="698.281165271655" style="stroke:rgb(0,0,0);stroke-width:1.0" />
<line x1="356.29439630495074" y1="79.07426293146602" x2="315.2085462624965" y2="42.84552315161228" style="stroke:rgb(0,0,0);stroke-width:1.0" />
<line x1="786.1969648753674" y1="141.21752271135622" x2="726.1089535030778" y2="208.1305103033866" style="stroke:rgb(0,0,0);stroke-width:1.0" />
<line x1="588.8831095438014" y1="631.8973495642878" x2="630.5529328723457" y2="565.0602471257446" style="stroke:rgb(0,0,0);stroke-width:1.0" />
<line x1="654.191277471009" y1="567.1719245102377" x2="580.5255335667804" y2="512.4786664881572" style="stroke:rgb(0,0,0);stroke-width:1.0" />
<line x1="419.50280898309325" y1="242.42919108831384" x2="471.5696664972396" y2="212.02032601034037" style="stroke:rgb(0,0,0);stroke-width:1.0" />
<line x1="453.34664360192613" y1="473.945616549329" x2="440.25669216737805" y2="555.5761886504355" style="stroke:rgb(0,0,0);stroke-width:1.0" />
<line x1="440.25669216737805" y1="555.5761886504355" x2="453.34664360192613" y2="473.945616549329" style="stroke:rgb(0,0,0);stroke-width:1.0" />
<line x1="580.5255335667804" y1="512.4786664881572" x2="544.2062767265301" y2="443.75837736803527" style="stroke:rgb(0,0,0);stroke-width:1.0" />
<line x1="928.0681818630397" y1="772.8591110024485" x2="908.5500448147583" y2="693.4504188118567" style="stroke:rgb(0,0,0);stroke-width:1.0" />
<line x1="487.919223929693" y1="438.10204072578085" x2="433.4730378220426" y2="373.3456619286315" style="stroke:rgb(0,0,0);stroke-width:1.0" />
<line x1="81.58585604302415" y1="379.79729774400516" x2="32.30141541548781" y2="436.1430867458028" style="stroke:rgb(0,0,0);stroke-width:1.0" />
<line x1="57.66257910765316" y1="524.9735570888263" x2="80.38070518550533" y2="453.59263183936383" style="stroke:rgb(0,0,0);stroke-width:1.0" />
<line x1="240.0712275060791" y1="750.7888205211516" x2="305.4697223708015" y2="762.977506745181" style="stroke:rgb(0,0,0);stroke-width:1.0" />
<line x1="238.13183124384142" y1="589.7827915935367" x2="302.6190984544699" y2="568.8102081793514" style="stroke:rgb(0,0,0);stroke-width:1.0" />
<line x1="246.13125268105406" y1="179.64768179639123" x2="238.07610243114874" y2="276.23618917258295" style="stroke:rgb(0,0,0);stroke-width:1.0" />
<line x1="709.7622009957117" y1="169.31559299563713" x2="786.1969648753674" y2="141.21752271135622" style="stroke:rgb(0,0,0);stroke-width:1.0" />
<line x1="269.30277894828083" y1="502.28207024852344" x2="302.6190984544699" y2="568.8102081793514" style="stroke:rgb(0,0,0);stroke-width:1.0" />
<line x1="908.5500448147583" y1="693.4504188118567" x2="928.0681818630397" y2="772.8591110024485" style="stroke:rgb(0,0,0);stroke-width:1.0" />
<line x1="749.7421368370364" y1="735.399084537863" x2="692.7597789206583" y2="676.0801393063085" style="stroke:rgb(0,0,0);stroke-width:1.0" />
<line x1="833.5211448225526" y1="238.7706641958951" x2="828.3680319079609" y2="318.4616616473621" style="stroke:rgb(0,0,0);stroke-width:1.0" />
<line x1="222.0938709071475" y1="445.8653741625127" x2="245.2161432389004" y2="511.9158209814815" style="stroke:rgb(0,0,0);stroke-width:1.0" />
<line x1="34.092332796126776" y1="488.96397732847817" x2="32.30141541548781" y2="436.1430867458028" style="stroke:rgb(0,0,0);stroke-width:1.0" />
<line x1="157.67391473981462" y1="482.70708647493797" x2="80.38070518550533" y2="453.59263183936383" style="stroke:rgb(0,0,0);stroke-width:1.0" />
<line x1="269.30277894828083" y1="502.28207024852344" x2="222.0938709071475" y2="445.8653741625127" style="stroke:rgb(0,0,0);stroke-width:1.0" />
<line x1="32.30141541548781" y1="436.1430867458028" x2="81.58585604302415" y2="379.79729774400516" style="stroke:rgb(0,0,0);stroke-width:1.0" />
<line x1="544.2062767265301" y1="443.75837736803527" x2="540.2102070663175" y2="532.7997037721368" style="stroke:rgb(0,0,0);stroke-width:1.0" />
<line x1="630.5529328723457" y1="565.0602471257446" x2="580.5255335667804" y2="512.4786664881572" style="stroke:rgb(0,0,0);stroke-width:1.0" />
<line x1="544.2062767265301" y1="443.75837736803527" x2="487.919223929693" y2="438.10204072578085" style="stroke:rgb(0,0,0);stroke-width:1.0" />
<line x1="245.2161432389004" y1="511.9158209814815" x2="238.13183124384142" y2="589.7827915935367" style="stroke:rgb(0,0,0);stroke-width:1.0" />
<line x1="238.13183124384142" y1="589.7827915935367" x2="275.5318504791333" y2="549.6340306602938" style="stroke:rgb(0,0,0);stroke-width:1.0" />
<line x1="222.0938709071475" y1="445.8653741625127" x2="269.30277894828083" y2="502.28207024852344" style="stroke:rgb(0,0,0);stroke-width:1.0" />
<line x1="471.5696664972396" y1="212.02032601034037" x2="489.7974760618715" y2="156.51854556572286" style="stroke:rgb(0,0,0);stroke-width:1.0" />
<line x1="433.4730378220426" y1="373.3456619286315" x2="415.3069158583287" y2="438.49642877902915" style="stroke:rgb(0,0,0);stroke-width:1.0" />
<line x1="854.9574374626822" y1="31.829194296419395" x2="811.8021689494249" y2="118.94169241562302" style="stroke:rgb(0,0,0);stroke-width:1.0" />
<line x1="129.34840124237067" y1="406.39986384074035" x2="157.67391473981462" y2="482.70708647493797" style="stroke:rgb(0,0,0);stroke-width:1.0" />
<line x1="487.919223929693" y1="438.10204072578085" x2="415.3069158583287" y2="438.49642877902915" style="stroke:rgb(0,0,0);stroke-width:1.0" />
<line x1="80.38070518550533" y1="453.59263183936383" x2="97.40798438023168" y2="356.4508097179878" style="stroke:rgb(0,0,0);stroke-width:1.0" />
<line x1="415.3069158583287" y1="438.49642877902915" x2="453.34664360192613" y2="473.945616549329" style="stroke:rgb(0,0,0);stroke-width:1.0" />
<line x1="960.1197257386709" y1="708.5126327068843" x2="908.5500448147583" y2="693.4504188118567" style="stroke:rgb(0,0,0);stroke-width:1.0" />
<line x1="786.1969648753674" y1="141.21752271135622" x2="709.7622009957117" y2="169.31559299563713" style="stroke:rgb(0,0,0);stroke-width:1.0" />
<line x1="471.5696664972396" y1="212.02032601034037" x2="461.79552837662686" y2="281.76585744806283" style="stroke:rgb(0,0,0);stroke-width:1.0" />
<line x1="828.3680319079609" y1="318.4616616473621" x2="787.2118962716946" y2="381.50037712250963" style="stroke:rgb(0,0,0);stroke-width:1.0" />
<line x1="635.3088512128727" y1="670.3669318538215" x2="588.8831095438014" y2="631.8973495642878" style="stroke:rgb(0,0,0);stroke-width:1.0" />
<line x1="238.07610243114874" y1="276.23618917258295" x2="171.0296853795529" y2="306.776187381048" style="stroke:rgb(0,0,0);stroke-width:1.0" />
<line x1="302.6190984544699" y1="568.8102081793514" x2="269.30277894828083" y2="502.28207024852344" style="stroke:rgb(0,0,0);stroke-width:1.0" />
<line x1="34.092332796126776" y1="488.96397732847817" x2="80.38070518550533" y2="453.59263183936383" style="stroke:rgb(0,0,0);stroke-width:1.0" />
<line x1="81.58585604302415" y1="379.79729774400516" x2="80.38070518550533" y2="453.59263183936383" style="stroke:rgb(0,0,0);stroke-width:1.0" />
<line x1="905.9324398183539" y1="921.455879888128" x2="839.8408721271978" y2="947.483638641189" style="stroke:rgb(0,0,0);stroke-width:1.0" />
<line x1="670.4934069545907" y1="897.6260218582312" x2="622.5015813115635" y2="942.892532160031" style="stroke:rgb(0,0,0);stroke-width:1.0" />
<line x1="635.3088512128727" y1="670.3669318538215" x2="692.7597789206583" y2="676.0801393063085" style="stroke:rgb(0,0,0);stroke-width:1.0" />
<line x1="418.1808237797735" y1="634.2555356647414" x2="478.0943838398959" y2="659.6107582528518" style="stroke:rgb(0,0,0);stroke-width:1.0" />
<line x1="32.30141541548781" y1="436.1430867458028" x2="80.38070518550533" y2="453.59263183936383" style="stroke:rgb(0,0,0);stroke-width:1.0" />
<line x1="828.3680319079609" y1="318.4616616473621" x2="761.4682694784564" y2="331.1960329120808" style="stroke:rgb(0,0,0);stroke-width:1.0" />
<line x1="471.5696664972396" y1="212.02032601034037" x2="419.50280898309325" y2="242.42919108831384" style="stroke:rgb(0,0,0);stroke-width:1.0" />
<line x1="461.79552837662686" y1="281.76585744806283" x2="433.4730378220426" y2="373.3456619286315" style="stroke:rgb(0,0,0);stroke-width:1.0" />
<line x1="839.8408721271978" y1="947.483638641189" x2="780.9145117239445" y2="970.0256606121328" style="stroke:rgb(0,0,0);stroke-width:1.0" />
<line x1="540.2102070663175" y1="532.7997037721368" x2="544.2062767265301" y2="443.75837736803527" style="stroke:rgb(0,0,0);stroke-width:1.0" />
<line x1="622.5015813115635" y1="942.892532160031" x2="691.6218153333518" y2="904.0540164778594" style="stroke:rgb(0,0,0);stroke-width:1.0" />
<line x1="180.02882534022834" y1="824.3033586903396" x2="240.0712275060791" y2="750.7888205211516" style="stroke:rgb(0,0,0);stroke-width:1.0" />
<line x1="157.67391473981462" y1="482.70708647493797" x2="245.2161432389004" y2="511.9158209814815" style="stroke:rgb(0,0,0);stroke-width:1.0" />
<line x1="129.34840124237067" y1="406.39986384074035" x2="80.38070518550533" y2="453.59263183936383" style="stroke:rgb(0,0,0);stroke-width:1.0" />
<line x1="948.9931239100368" y1="538.4178731877383" x2="986.6277458016303" y2="612.8156859402521" style="stroke:rgb(0,0,0);stroke-width:1.0" />
<line x1="254.6036270028489" y1="107.2248932873835" x2="246.13125268105406" y2="179.64768179639123" style="stroke:rgb(0,0,0);stroke-width:1.0" />
<line x1="874.998772482248" y1="681.6725431577337" x2="960.1197257386709" y2="708.5126327068843" style="stroke:rgb(0,0,0);stroke-width:1.0" />
<line x1="487.62978423628346" y1="502.1824904451062" x2="487.919223929693" y2="438.10204072578085" style="stroke:rgb(0,0,0);stroke-width:1.0" />
<line x1="25.339944587094543" y1="317.7018106569396" x2="97.40798438023168" y2="356.4508097179878" style="stroke:rgb(0,0,0);stroke-width:1.0" />
<line x1="453.34664360192613" y1="473.945616549329" x2="415.3069158583287" y2="438.49642877902915" style="stroke:rgb(0,0,0);stroke-width:1.0" />
<line x1="580.5255335667804" y1="512.4786664881572" x2="630.5529328723457" y2="565.0602471257446" style="stroke:rgb(0,0,0);stroke-width:1.0" />
<line x1="487.62978423628346" y1="502.1824904451062" x2="544.2062767265301" y2="443.75837736803527" style="stroke:rgb(0,0,0);stroke-width:1.0" />
<line x1="440.25669216737805" y1="555.5761886504355" x2="418.1808237797735" y2="634.2555356647414" style="stroke:rgb(0,0,0);stroke-width:1.0" />
<line x1="245.2161432389004" y1="511.9158209814815" x2="222.0938709071475" y2="445.8653741625127" style="stroke:rgb(0,0,0);stroke-width:1.0" />
<line x1="80.38070518550533" y1="453.59263183936383" x2="57.66257910765316" y2="524.9735570888263" style="stroke:rgb(0,0,0);stroke-width:1.0" />
<line x1="828.3680319079609" y1="318.4616616473621" x2="852.2634246977482" y2="233.58986386019532" style="stroke:rgb(0,0,0);stroke-width:1.0" />
<line x1="960.1197257386709" y1="708.5126327068843" x2="986.6277458016303" y2="612.8156859402521" style="stroke:rgb(0,0,0);stroke-width:1.0" />
<line x1="691.6218153333518" y1="904.0540164778594" x2="622.5015813115635" y2="942.892532160031" style="stroke:rgb(0,0,0);stroke-width:1.0" />
<line x1="245.2161432389004" y1="511.9158209814815" x2="157.67391473981462" y2="482.70708647493797" style="stroke:rgb(0,0,0);stroke-width:1.0" />
<line x1="461.79552837662686" y1="281.76585744806283" x2="419.50280898309325" y2="242.42919108831384" style="stroke:rgb(0,0,0);stroke-width:1.0" />
<line x1="415.3069158583287" y1="438.49642877902915" x2="433.4730378220426" y2="373.3456619286315" style="stroke:rgb(0,0,0);stroke-width:1.0" />
<line x1="305.4697223708015" y1="762.977506745181" x2="240.0712275060791" y2="750.7888205211516" style="stroke:rgb(0,0,0);stroke-width:1.0" />
<line x1="50.26889722550931" y1="184.44999167588526" x2="63.55357496512715" y2="94.32508994483446" style="stroke:rgb(0,0,0);stroke-width:1.0" />
<line x1="780.9145117239445" y1="970.0256606121328" x2="839.8408721271978" y2="947.483638641189" style="stroke:rgb(0,0,0);stroke-width:1.0" />
<line x1="489.7974760618715" y1="156.51854556572286" x2="471.5696664972396" y2="212.02032601034037" style="stroke:rgb(0,0,0);stroke-width:1.0" />
<line x1="588.8831095438014" y1="631.8973495642878" x2="654.191277471009" y2="567.1719245102377" style="stroke:rgb(0,0,0);stroke-width:1.0" />
<line x1="761.4682694784564" y1="331.1960329120808" x2="828.3680319079609" y2="318.4616616473621" style="stroke:rgb(0,0,0);stroke-width:1.0" />
<line x1="80.38070518550533" y1="453.59263183936383" x2="129.34840124237067" y2="406.39986384074035" style="stroke:rgb(0,0,0);stroke-width:1.0" />
<line x1="544.2062767265301" y1="443.75837736803527" x2="580.5255335667804" y2="512.4786664881572" style="stroke:rgb(0,0,0);stroke-width:1.0" />
<line x1="310.398445126146" y1="785.8240391915657" x2="378.93773058599265" y2="714.2396130993579" style="stroke:rgb(0,0,0);stroke-width:1.0" />
<line x1="433.4730378220426" y1="373.3456619286315" x2="461.79552837662686" y2="281.76585744806283" style="stroke:rgb(0,0,0);stroke-width:1.0" />
<line x1="787.2118962716946" y1="381.50037712250963" x2="761.4682694784564" y2="331.1960329120808" style="stroke:rgb(0,0,0);stroke-width:1.0" />
<line x1="378.93773058599265" y1="714.2396130993579" x2="418.1808237797735" y2="634.2555356647414" style="stroke:rgb(0,0,0);stroke-width:1.0" />
<line x1="97.40798438023168" y1="356.4508097179878" x2="25.339944587094543" y2="317.7018106569396" style="stroke:rgb(0,0,0);stroke-width:1.0" />
<line x1="246.13125268105406" y1="179.64768179639123" x2="151.70051563748922" y2="154.8576260983262" style="stroke:rgb(0,0,0);stroke-width:1.0" />
<line x1="80.38070518550533" y1="453.59263183936383" x2="81.58585604302415" y2="379.79729774400516" style="stroke:rgb(0,0,0);stroke-width:1.0" />
<line x1="238.07610243114874" y1="276.23618917258295" x2="314.8058926060716" y2="289.1544142698451" style="stroke:rgb(0,0,0);stroke-width:1.0" />
<line x1="157.67391473981462" y1="482.70708647493797" x2="129.34840124237067" y2="406.39986384074035" style="stroke:rgb(0,0,0);stroke-width:1.0" />
<line x1="418.1808237797735" y1="634.2555356647414" x2="378.93773058599265" y2="714.2396130993579" style="stroke:rgb(0,0,0);stroke-width:1.0" />
<line x1="692.7597789206583" y1="676.0801393063085" x2="749.7421368370364" y2="735.399084537863" style="stroke:rgb(0,0,0);stroke-width:1.0" />
<line x1="845.279565391899" y1="466.15719652193366" x2="905.2795425472582" y2="408.19651391449406" style="stroke:rgb(0,0,0);stroke-width:1.0" />
<line x1="960.1197257386709" y1="708.5126327068843" x2="874.998772482248" y2="681.6725431577337" style="stroke:rgb(0,0,0);stroke-width:1.0" />
<line x1="487.919223929693" y1="438.10204072578085" x2="544.2062767265301" y2="443.75837736803527" style="stroke:rgb(0,0,0);stroke-width:1.0" />
<line x1="839.8408721271978" y1="947.483638641189" x2="905.9324398183539" y2="921.455879888128" style="stroke:rgb(0,0,0);stroke-width:1.0" />
<line x1="986.6277458016303" y1="612.8156859402521" x2="960.1197257386709" y2="708.5126327068843" style="stroke:rgb(0,0,0);stroke-width:1.0" />
<line x1="151.70051563748922" y1="154.8576260983262" x2="246.13125268105406" y2="179.64768179639123" style="stroke:rgb(0,0,0);stroke-width:1.0" />
<line x1="315.2085462624965" y1="42.84552315161228" x2="254.6036270028489" y2="107.2248932873835" style="stroke:rgb(0,0,0);stroke-width:1.0" />
<line x1="588.8831095438014" y1="631.8973495642878" x2="635.3088512128727" y2="670.3669318538215" style="stroke:rgb(0,0,0);stroke-width:1.0" />
<line x1="240.0712275060791" y1="750.7888205211516" x2="180.02882534022834" y2="824.3033586903396" style="stroke:rgb(0,0,0);stroke-width:1.0" />
<line x1="544.2062767265301" y1="443.75837736803527" x2="487.62978423628346" y2="502.1824904451062" style="stroke:rgb(0,0,0);stroke-width:1.0" />
<line x1="928.0681818630397" y1="772.8591110024485" x2="960.1197257386709" y2="708.5126327068843" style="stroke:rgb(0,0,0);stroke-width:1.0" />
<line x1="246.13125268105406" y1="179.64768179639123" x2="254.6036270028489" y2="107.2248932873835" style="stroke:rgb(0,0,0);stroke-width:1.0" />
<line x1="238.07610243114874" y1="276.23618917258295" x2="246.13125268105406" y2="179.64768179639123" style="stroke:rgb(0,0,0);stroke-width:1.0" />
<line x1="240.0712275060791" y1="750.7888205211516" x2="310.398445126146" y2="785.8240391915657" style="stroke:rgb(0,0,0);stroke-width:1.0" />
<line x1="310.398445126146" y1="785.8240391915657" x2="240.0712275060791" y2="750.7888205211516" style="stroke:rgb(0,0,0);stroke-width:1.0" />
<line x1="487.62978423628346" y1="502.1824904451062" x2="440.25669216737805" y2="555.5761886504355" style="stroke:rgb(0,0,0);stroke-width:1.0" />
<line x1="630.5529328723457" y1="565.0602471257446" x2="588.8831095438014" y2="631.8973495642878" style="stroke:rgb(0,0,0);stroke-width:1.0" />
<line x1="171.0296853795529" y1="306.776187381048" x2="97.40798438023168" y2="356.4508097179878" style="stroke:rgb(0,0,0);stroke-width:1.0" />
<line x1="81.58585604302415" y1="379.79729774400516" x2="25.339944587094543" y2="317.7018106569396" style="stroke:rgb(0,0,0);stroke-width:1.0" />
<line x1="833.5211448225526" y1="238.7706641958951" x2="893.1227901898285" y2="211.92060587777894" style="stroke:rgb(0,0,0);stroke-width:1.0" />
<line x1="692.7597789206583" y1="676.0801393063085" x2="635.3088512128727" y2="670.3669318538215" style="stroke:rgb(0,0,0);stroke-width:1.0" />
<line x1="129.34840124237067" y1="406.39986384074035" x2="97.40798438023168" y2="356.4508097179878" style="stroke:rgb(0,0,0);stroke-width:1.0" />
<line x1="340.6064239955856" y1="698.281165271655" x2="305.4697223708015" y2="762.977506745181" style="stroke:rgb(0,0,0);stroke-width:1.0" />
<line x1="622.5015813115635" y1="942.892532160031" x2="670.4934069545907" y2="897.6260218582312" style="stroke:rgb(0,0,0);stroke-width:1.0" />
<line x1="378.93773058599265" y1="714.2396130993579" x2="310.398445126146" y2="785.8240391915657" style="stroke:rgb(0,0,0);stroke-width:1.0" />
<line x1="487.62978423628346" y1="502.1824904451062" x2="540.2102070663175" y2="532.7997037721368" style="stroke:rgb(0,0,0);stroke-width:1.0" />
<line x1="80.38070518550533" y1="453.59263183936383" x2="157.67391473981462" y2="482.70708647493797" style="stroke:rgb(0,0,0);stroke-width:1.0" />
<line x1="905.2795425472582" y1="408.19651391449406" x2="845.279565391899" y2="466.15719652193366" style="stroke:rgb(0,0,0);stroke-width:1.0" />
<line x1="461.79552837662686" y1="281.76585744806283" x2="471.5696664972396" y2="212.02032601034037" style="stroke:rgb(0,0,0);stroke-width:1.0" />
<line x1="709.7622009957117" y1="169.31559299563713" x2="703.6879065251312" y2="248.6218638161658" style="stroke:rgb(0,0,0);stroke-width:1.0" />
<line x1="630.5529328723457" y1="565.0602471257446" x2="540.2102070663175" y2="532.7997037721368" style="stroke:rgb(0,0,0);stroke-width:1.0" />
<line x1="726.1089535030778" y1="208.1305103033866" x2="786.1969648753674" y2="141.21752271135622" style="stroke:rgb(0,0,0);stroke-width:1.0" />
<line x1="378.93773058599265" y1="714.2396130993579" x2="305.4697223708015" y2="762.977506745181" style="stroke:rgb(0,0,0);stroke-width:1.0" />
<line x1="654.191277471009" y1="567.1719245102377" x2="588.8831095438014" y2="631.8973495642878" style="stroke:rgb(0,0,0);stroke-width:1.0" />
<line x1="171.0296853795529" y1="306.776187381048" x2="238.07610243114874" y2="276.23618917258295" style="stroke:rgb(0,0,0);stroke-width:1.0" />
<line x1="25.339944587094543" y1="317.7018106569396" x2="81.58585604302415" y2="379.79729774400516" style="stroke:rgb(0,0,0);stroke-width:1.0" />
<line x1="97.40798438023168" y1="356.4508097179878" x2="171.0296853795529" y2="306.776187381048" style="stroke:rgb(0,0,0);stroke-width:1.0" />
<line x1="275.5318504791333" y1="549.6340306602938" x2="238.13183124384142" y2="589.7827915935367" style="stroke:rgb(0,0,0);stroke-width:1.0" />
<line x1="254.6036270028489" y1="107.2248932873835" x2="315.2085462624965" y2="42.84552315161228" style="stroke:rgb(0,0,0);stroke-width:1.0" />
<line x1="540.2102070663175" y1="532.7997037721368" x2="487.62978423628346" y2="502.1824904451062" style="stroke:rgb(0,0,0);stroke-width:1.0" />
<line x1="97.40798438023168" y1="356.4508097179878" x2="129.34840124237067" y2="406.39986384074035" style="stroke:rgb(0,0,0);stroke-width:1.0" />
<line x1="315.2085462624965" y1="42.84552315161228" x2="356.29439630495074" y2="79.07426293146602" style="stroke:rgb(0,0,0);stroke-width:1.0" />
<line x1="749.7421368370364" y1="735.399084537863" x2="777.0989512511678" y2="782.704122109674" style="stroke:rgb(0,0,0);stroke-width:1.0" />
<line x1="97.40798438023168" y1="356.4508097179878" x2="80.38070518550533" y2="453.59263183936383" style="stroke:rgb(0,0,0);stroke-width:1.0" />
<line x1="478.0943838398959" y1="659.6107582528518" x2="418.1808237797735" y2="634.2555356647414" style="stroke:rgb(0,0,0);stroke-width:1.0" />
<line x1="580.5255335667804" y1="512.4786664881572" x2="654.191277471009" y2="567.1719245102377" style="stroke:rgb(0,0,0);stroke-width:1.0" />
<line x1="222.0938709071475" y1="445.8653741625127" x2="157.67391473981462" y2="482.70708647493797" style="stroke:rgb(0,0,0);stroke-width:1.0" />
<line x1="157.67391473981462" y1="482.70708647493797" x2="222.0938709071475" y2="445.8653741625127" style="stroke:rgb(0,0,0);stroke-width:1.0" />
<line x1="986.6277458016303" y1="612.8156859402521" x2="948.9931239100368" y2="538.4178731877383" style="stroke:rgb(0,0,0);stroke-width:1.0" />
<line x1="314.8058926060716" y1="289.1544142698451" x2="238.07610243114874" y2="276.23618917258295" style="stroke:rgb(0,0,0);stroke-width:1.0" />
<line x1="787.2118962716946" y1="381.50037712250963" x2="828.3680319079609" y2="318.4616616473621" style="stroke:rgb(0,0,0);stroke-width:1.0" />
<line x1="852.2634246977482" y1="233.58986386019532" x2="828.3680319079609" y2="318.4616616473621" style="stroke:rgb(0,0,0);stroke-width:1.0" />
<line x1="908.5500448147583" y1="693.4504188118567" x2="960.1197257386709" y2="708.5126327068843" style="stroke:rgb(0,0,0);stroke-width:1.0" />
<line x1="63.55357496512715" y1="94.32508994483446" x2="50.26889722550931" y2="184.44999167588526" style="stroke:rgb(0,0,0);stroke-width:1.0" />
<line x1="703.6879065251312" y1="248.6218638161658" x2="709.7622009957117" y2="169.31559299563713" style="stroke:rgb(0,0,0);stroke-width:1.0" />
<line x1="80.38070518550533" y1="453.59263183936383" x2="34.092332796126776" y2="488.96397732847817" style="stroke:rgb(0,0,0);stroke-width:1.0" />
<line x1="415.3069158583287" y1="438.49642877902915" x2="487.919223929693" y2="438.10204072578085" style="stroke:rgb(0,0,0);stroke-width:1.0" />
<line x1="811.8021689494249" y1="118.94169241562302" x2="854.9574374626822" y2="31.829194296419395" style="stroke:rgb(0,0,0);stroke-width:1.0" />
<line x1="960.1197257386709" y1="708.5126327068843" x2="928.0681818630397" y2="772.8591110024485" style="stroke:rgb(0,0,0);stroke-width:1.0" />
<line x1="833.5211448225526" y1="238.7706641958951" x2="811.8021689494249" y2="118.94169241562302" style="stroke:rgb(0,0,0);stroke-width:1.0" />
<line x1="25.339944587094543" y1="317.7018106569396" x2="50.26889722550931" y2="184.44999167588526" style="stroke:rgb(0,0,0);stroke-width:1.0" />
<line x1="314.8058926060716" y1="289.1544142698451" x2="246.13125268105406" y2="179.64768179639123" style="stroke:rgb(0,0,0);stroke-width:1.0" />
<line x1="709.7622009957117" y1="169.31559299563713" x2="591.4110379061079" y2="193.02745681625822" style="stroke:rgb(0,0,0);stroke-width:1.0" />
<line x1="624.1273455178492" y1="790.0053812118257" x2="691.6218153333518" y2="904.0540164778594" style="stroke:rgb(0,0,0);stroke-width:1.0" />
<line x1="79.87429448309346" y1="73.46361204405838" x2="50.26889722550931" y2="184.44999167588526" style="stroke:rgb(0,0,0);stroke-width:1.0" />
<line x1="854.9574374626822" y1="31.829194296419395" x2="977.7570623559013" y2="64.07133503153194" style="stroke:rgb(0,0,0);stroke-width:1.0" />
<line x1="874.998772482248" y1="681.6725431577337" x2="986.6277458016303" y2="612.8156859402521" style="stroke:rgb(0,0,0);stroke-width:1.0" />
<line x1="948.9931239100368" y1="538.4178731877383" x2="845.279565391899" y2="466.15719652193366" style="stroke:rgb(0,0,0);stroke-width:1.0" />
<line x1="588.8831095438014" y1="631.8973495642878" x2="540.2102070663175" y2="532.7997037721368" style="stroke:rgb(0,0,0);stroke-width:1.0" />
<line x1="845.279565391899" y1="466.15719652193366" x2="828.3680319079609" y2="318.4616616473621" style="stroke:rgb(0,0,0);stroke-width:1.0" />
<line x1="302.6190984544699" y1="568.8102081793514" x2="340.6064239955856" y2="698.281165271655" style="stroke:rgb(0,0,0);stroke-width:1.0" />
<line x1="50.26889722550931" y1="184.44999167588526" x2="7.66026457592639" y2="277.15844846965854" style="stroke:rgb(0,0,0);stroke-width:1.0" />
<line x1="883.601589063893" y1="19.607309218632295" x2="977.7570623559013" y2="64.07133503153194" style="stroke:rgb(0,0,0);stroke-width:1.0" />
<line x1="726.1089535030778" y1="208.1305103033866" x2="761.4682694784564" y2="331.1960329120808" style="stroke:rgb(0,0,0);stroke-width:1.0" />
<line x1="342.84253561445865" y1="901.7942593647259" x2="310.398445126146" y2="785.8240391915657" style="stroke:rgb(0,0,0);stroke-width:1.0" />
<line x1="440.25669216737805" y1="555.5761886504355" x2="478.0943838398959" y2="659.6107582528518" style="stroke:rgb(0,0,0);stroke-width:1.0" />
<line x1="654.191277471009" y1="567.1719245102377" x2="635.3088512128727" y2="670.3669318538215" style="stroke:rgb(0,0,0);stroke-width:1.0" />
<line x1="314.8058926060716" y1="289.1544142698451" x2="461.79552837662686" y2="281.76585744806283" style="stroke:rgb(0,0,0);stroke-width:1.0" />
<line x1="761.4682694784564" y1="331.1960329120808" x2="703.6879065251312" y2="248.6218638161658" style="stroke:rgb(0,0,0);stroke-width:1.0" />
<line x1="302.6190984544699" y1="568.8102081793514" x2="440.25669216737805" y2="555.5761886504355" style="stroke:rgb(0,0,0);stroke-width:1.0" />
<line x1="691.6218153333518" y1="904.0540164778594" x2="624.1273455178492" y2="790.0053812118257" style="stroke:rgb(0,0,0);stroke-width:1.0" />
<line x1="692.7597789206583" y1="676.0801393063085" x2="654.191277471009" y2="567.1719245102377" style="stroke:rgb(0,0,0);stroke-width:1.0" />
<line x1="833.5211448225526" y1="238.7706641958951" x2="726.1089535030778" y2="208.1305103033866" style="stroke:rgb(0,0,0);stroke-width:1.0" />
<line x1="591.4110379061079" y1="193.02745681625822" x2="709.7622009957117" y2="169.31559299563713" style="stroke:rgb(0,0,0);stroke-width:1.0" />
<line x1="703.6879065251312" y1="248.6218638161658" x2="761.4682694784564" y2="331.1960329120808" style="stroke:rgb(0,0,0);stroke-width:1.0" />
<line x1="433.4730378220426" y1="373.3456619286315" x2="314.8058926060716" y2="289.1544142698451" style="stroke:rgb(0,0,0);stroke-width:1.0" />
<line x1="340.6064239955856" y1="698.281165271655" x2="240.0712275060791" y2="750.7888205211516" style="stroke:rgb(0,0,0);stroke-width:1.0" />
<line x1="977.7570623559013" y1="64.07133503153194" x2="883.601589063893" y2="19.607309218632295" style="stroke:rgb(0,0,0);stroke-width:1.0" />
<line x1="440.25669216737805" y1="555.5761886504355" x2="540.2102070663175" y2="532.7997037721368" style="stroke:rgb(0,0,0);stroke-width:1.0" />
<line x1="254.6036270028489" y1="107.2248932873835" x2="356.29439630495074" y2="79.07426293146602" style="stroke:rgb(0,0,0);stroke-width:1.0" />
<line x1="624.1273455178492" y1="790.0053812118257" x2="670.4934069545907" y2="897.6260218582312" style="stroke:rgb(0,0,0);stroke-width:1.0" />
<line x1="314.8058926060716" y1="289.1544142698451" x2="433.4730378220426" y2="373.3456619286315" style="stroke:rgb(0,0,0);stroke-width:1.0" />
<line x1="781.9216984228013" y1="628.6820144719852" x2="654.191277471009" y2="567.1719245102377" style="stroke:rgb(0,0,0);stroke-width:1.0" />
<line x1="905.9324398183539" y1="921.455879888128" x2="780.9145117239445" y2="970.0256606121328" style="stroke:rgb(0,0,0);stroke-width:1.0" />
<line x1="813.9316730927667" y1="133.47958578256447" x2="726.1089535030778" y2="208.1305103033866" style="stroke:rgb(0,0,0);stroke-width:1.0" />
<line x1="828.3680319079609" y1="318.4616616473621" x2="893.1227901898285" y2="211.92060587777894" style="stroke:rgb(0,0,0);stroke-width:1.0" />
<line x1="157.67391473981462" y1="482.70708647493797" x2="238.13183124384142" y2="589.7827915935367" style="stroke:rgb(0,0,0);stroke-width:1.0" />
<line x1="25.339944587094543" y1="317.7018106569396" x2="171.0296853795529" y2="306.776187381048" style="stroke:rgb(0,0,0);stroke-width:1.0" />
<line x1="845.279565391899" y1="466.15719652193366" x2="741.4659600886939" y2="370.2891515300821" style="stroke:rgb(0,0,0);stroke-width:1.0" />
<line x1="478.0943838398959" y1="659.6107582528518" x2="540.2102070663175" y2="532.7997037721368" style="stroke:rgb(0,0,0);stroke-width:1.0" />
<line x1="845.279565391899" y1="466.15719652193366" x2="948.9931239100368" y2="538.4178731877383" style="stroke:rgb(0,0,0);stroke-width:1.0" />
<line x1="151.70051563748922" y1="154.8576260983262" x2="79.87429448309346" y2="73.46361204405838" style="stroke:rgb(0,0,0);stroke-width:1.0" />
<line x1="50.26889722550931" y1="184.44999167588526" x2="79.87429448309346" y2="73.46361204405838" style="stroke:rgb(0,0,0);stroke-width:1.0" />
<line x1="893.1227901898285" y1="211.92060587777894" x2="828.3680319079609" y2="318.4616616473621" style="stroke:rgb(0,0,0);stroke-width:1.0" />
<line x1="171.0296853795529" y1="306.776187381048" x2="222.0938709071475" y2="445.8653741625127" style="stroke:rgb(0,0,0);stroke-width:1.0" />
<line x1="905.2795425472582" y1="408.19651391449406" x2="828.3680319079609" y2="318.4616616473621" style="stroke:rgb(0,0,0);stroke-width:1.0" />
<line x1="540.2102070663175" y1="532.7997037721368" x2="588.8831095438014" y2="631.8973495642878" style="stroke:rgb(0,0,0);stroke-width:1.0" />
<line x1="222.0938709071475" y1="445.8653741625127" x2="129.34840124237067" y2="406.39986384074035" style="stroke:rgb(0,0,0);stroke-width:1.0" />
<line x1="180.02882534022834" y1="824.3033586903396" x2="205.09145409196526" y2="961.9543958909483" style="stroke:rgb(0,0,0);stroke-width:1.0" />
<line x1="489.7974760618715" y1="156.51854556572286" x2="461.79552837662686" y2="281.76585744806283" style="stroke:rgb(0,0,0);stroke-width:1.0" />
<line x1="180.02882534022834" y1="824.3033586903396" x2="310.398445126146" y2="785.8240391915657" style="stroke:rgb(0,0,0);stroke-width:1.0" />
<line x1="171.0296853795529" y1="306.776187381048" x2="25.339944587094543" y2="317.7018106569396" style="stroke:rgb(0,0,0);stroke-width:1.0" />
<line x1="828.3680319079609" y1="318.4616616473621" x2="845.279565391899" y2="466.15719652193366" style="stroke:rgb(0,0,0);stroke-width:1.0" />
<line x1="874.998772482248" y1="681.6725431577337" x2="781.9216984228013" y2="628.6820144719852" style="stroke:rgb(0,0,0);stroke-width:1.0" />
<line x1="893.1227901898285" y1="211.92060587777894" x2="811.8021689494249" y2="118.94169241562302" style="stroke:rgb(0,0,0);stroke-width:1.0" />
<line x1="205.8233757671516" y1="280.6528030364954" x2="246.13125268105406" y2="179.64768179639123" style="stroke:rgb(0,0,0);stroke-width:1.0" />
<line x1="833.5211448225526" y1="238.7706641958951" x2="761.4682694784564" y2="331.1960329120808" style="stroke:rgb(0,0,0);stroke-width:1.0" />
<line x1="622.5015813115635" y1="942.892532160031" x2="516.9720642486909" y2="998.8047786571473" style="stroke:rgb(0,0,0);stroke-width:1.0" />
<line x1="741.4659600886939" y1="370.2891515300821" x2="703.6879065251312" y2="248.6218638161658" style="stroke:rgb(0,0,0);stroke-width:1.0" />
<line x1="310.398445126146" y1="785.8240391915657" x2="180.02882534022834" y2="824.3033586903396" style="stroke:rgb(0,0,0);stroke-width:1.0" />
<line x1="780.9145117239445" y1="970.0256606121328" x2="691.6218153333518" y2="904.0540164778594" style="stroke:rgb(0,0,0);stroke-width:1.0" />
<line x1="635.3088512128727" y1="670.3669318538215" x2="749.7421368370364" y2="735.399084537863" style="stroke:rgb(0,0,0);stroke-width:1.0" />
<line x1="440.25669216737805" y1="555.5761886504355" x2="415.3069158583287" y2="438.49642877902915" style="stroke:rgb(0,0,0);stroke-width:1.0" />
<line x1="314.8058926060716" y1="289.1544142698451" x2="171.0296853795529" y2="306.776187381048" style="stroke:rgb(0,0,0);stroke-width:1.0" />
<line x1="151.70051563748922" y1="154.8576260983262" x2="50.26889722550931" y2="184.44999167588526" style="stroke:rgb(0,0,0);stroke-width:1.0" />
<line x1="591.4110379061079" y1="193.02745681625822" x2="489.7974760618715" y2="156.51854556572286" style="stroke:rgb(0,0,0);stroke-width:1.0" />
<line x1="32.30141541548781" y1="436.1430867458028" x2="25.339944587094543" y2="317.7018106569396" style="stroke:rgb(0,0,0);stroke-width:1.0" />
<line x1="726.1089535030778" y1="208.1305103033866" x2="813.9316730927667" y2="133.47958578256447" style="stroke:rgb(0,0,0);stroke-width:1.0" />
<line x1="254.6036270028489" y1="107.2248932873835" x2="151.70051563748922" y2="154.8576260983262" style="stroke:rgb(0,0,0);stroke-width:1.0" />
<line x1="977.7570623559013" y1="64.07133503153194" x2="854.9574374626822" y2="31.829194296419395" style="stroke:rgb(0,0,0);stroke-width:1.0" />
<line x1="654.191277471009" y1="567.1719245102377" x2="781.9216984228013" y2="628.6820144719852" style="stroke:rgb(0,0,0);stroke-width:1.0" />
<line x1="238.13183124384142" y1="589.7827915935367" x2="340.6064239955856" y2="698.281165271655" style="stroke:rgb(0,0,0);stroke-width:1.0" />
<line x1="761.4682694784564" y1="331.1960329120808" x2="726.1089535030778" y2="208.1305103033866" style="stroke:rgb(0,0,0);stroke-width:1.0" />
<line x1="635.3088512128727" y1="670.3669318538215" x2="624.1273455178492" y2="790.0053812118257" style="stroke:rgb(0,0,0);stroke-width:1.0" />
<line x1="703.6879065251312" y1="248.6218638161658" x2="741.4659600886939" y2="370.2891515300821" style="stroke:rgb(0,0,0);stroke-width:1.0" />
<line x1="749.7421368370364" y1="735.399084537863" x2="874.998772482248" y2="681.6725431577337" style="stroke:rgb(0,0,0);stroke-width:1.0" />
<line x1="440.25669216737805" y1="555.5761886504355" x2="302.6190984544699" y2="568.8102081793514" style="stroke:rgb(0,0,0);stroke-width:1.0" />
<line x1="57.66257910765316" y1="524.9735570888263" x2="157.67391473981462" y2="482.70708647493797" style="stroke:rgb(0,0,0);stroke-width:1.0" />
<line x1="741.4659600886939" y1="370.2891515300821" x2="845.279565391899" y2="466.15719652193366" style="stroke:rgb(0,0,0);stroke-width:1.0" />
<line x1="489.7974760618715" y1="156.51854556572286" x2="591.4110379061079" y2="193.02745681625822" style="stroke:rgb(0,0,0);stroke-width:1.0" />
<line x1="419.50280898309325" y1="242.42919108831384" x2="489.7974760618715" y2="156.51854556572286" style="stroke:rgb(0,0,0);stroke-width:1.0" />
<line x1="883.601589063893" y1="19.607309218632295" x2="996.4999194826364" y2="25.252763647783063" style="stroke:rgb(0,0,0);stroke-width:1.0" />
<line x1="624.1273455178492" y1="790.0053812118257" x2="635.3088512128727" y2="670.3669318538215" style="stroke:rgb(0,0,0);stroke-width:1.0" />
<line x1="433.4730378220426" y1="373.3456619286315" x2="544.2062767265301" y2="443.75837736803527" style="stroke:rgb(0,0,0);stroke-width:1.0" />
<line x1="786.1969648753674" y1="141.21752271135622" x2="854.9574374626822" y2="31.829194296419395" style="stroke:rgb(0,0,0);stroke-width:1.0" />
<line x1="749.7421368370364" y1="735.399084537863" x2="781.9216984228013" y2="628.6820144719852" style="stroke:rgb(0,0,0);stroke-width:1.0" />
<line x1="50.26889722550931" y1="184.44999167588526" x2="33.039364891089384" y2="61.88683018921293" style="stroke:rgb(0,0,0);stroke-width:1.0" />
<line x1="418.1808237797735" y1="634.2555356647414" x2="340.6064239955856" y2="698.281165271655" style="stroke:rgb(0,0,0);stroke-width:1.0" />
<line x1="205.8233757671516" y1="280.6528030364954" x2="151.70051563748922" y2="154.8576260983262" style="stroke:rgb(0,0,0);stroke-width:1.0" />
<line x1="129.34840124237067" y1="406.39986384074035" x2="222.0938709071475" y2="445.8653741625127" style="stroke:rgb(0,0,0);stroke-width:1.0" />
<line x1="811.8021689494249" y1="118.94169241562302" x2="833.5211448225526" y2="238.7706641958951" style="stroke:rgb(0,0,0);stroke-width:1.0" />
<line x1="749.7421368370364" y1="735.399084537863" x2="624.1273455178492" y2="790.0053812118257" style="stroke:rgb(0,0,0);stroke-width:1.0" />
<line x1="544.2062767265301" y1="443.75837736803527" x2="433.4730378220426" y2="373.3456619286315" style="stroke:rgb(0,0,0);stroke-width:1.0" />
<line x1="828.3680319079609" y1="318.4616616473621" x2="905.2795425472582" y2="408.19651391449406" style="stroke:rgb(0,0,0);stroke-width:1.0" />
<line x1="874.998772482248" y1="681.6725431577337" x2="928.0681818630397" y2="772.8591110024485" style="stroke:rgb(0,0,0);stroke-width:1.0" />
<line x1="50.26889722550931" y1="184.44999167588526" x2="25.339944587094543" y2="317.7018106569396" style="stroke:rgb(0,0,0);stroke-width:1.0" />
<line x1="874.998772482248" y1="681.6725431577337" x2="777.0989512511678" y2="782.704122109674" style="stroke:rgb(0,0,0);stroke-width:1.0" />
<line x1="246.13125268105406" y1="179.64768179639123" x2="356.29439630495074" y2="79.07426293146602" style="stroke:rgb(0,0,0);stroke-width:1.0" />
<line x1="691.6218153333518" y1="904.0540164778594" x2="780.9145117239445" y2="970.0256606121328" style="stroke:rgb(0,0,0);stroke-width:1.0" />
<line x1="996.4999194826364" y1="25.252763647783063" x2="883.601589063893" y2="19.607309218632295" style="stroke:rgb(0,0,0);stroke-width:1.0" />
<line x1="726.1089535030778" y1="208.1305103033866" x2="833.5211448225526" y2="238.7706641958951" style="stroke:rgb(0,0,0);stroke-width:1.0" />
<line x1="314.8058926060716" y1="289.1544142698451" x2="419.50280898309325" y2="242.42919108831384" style="stroke:rgb(0,0,0);stroke-width:1.0" />
<line x1="749.7421368370364" y1="735.399084537863" x2="635.3088512128727" y2="670.3669318538215" style="stroke:rgb(0,0,0);stroke-width:1.0" />
<line x1="761.4682694784564" y1="331.1960329120808" x2="833.5211448225526" y2="238.7706641958951" style="stroke:rgb(0,0,0);stroke-width:1.0" />
<line x1="25.339944587094543" y1="317.7018106569396" x2="32.30141541548781" y2="436.1430867458028" style="stroke:rgb(0,0,0);stroke-width:1.0" />
<line x1="79.87429448309346" y1="73.46361204405838" x2="151.70051563748922" y2="154.8576260983262" style="stroke:rgb(0,0,0);stroke-width:1.0" />
<line x1="692.7597789206583" y1="676.0801393063085" x2="781.9216984228013" y2="628.6820144719852" style="stroke:rgb(0,0,0);stroke-width:1.0" />
<line x1="874.998772482248" y1="681.6725431577337" x2="749.7421368370364" y2="735.399084537863" style="stroke:rgb(0,0,0);stroke-width:1.0" />
<line x1="624.1273455178492" y1="790.0053812118257" x2="749.7421368370364" y2="735.399084537863" style="stroke:rgb(0,0,0);stroke-width:1.0" />
<line x1="129.34840124237067" y1="406.39986384074035" x2="171.0296853795529" y2="306.776187381048" style="stroke:rgb(0,0,0);stroke-width:1.0" />
<line x1="246.13125268105406" y1="179.64768179639123" x2="205.8233757671516" y2="280.6528030364954" style="stroke:rgb(0,0,0);stroke-width:1.0" />
<line x1="461.79552837662686" y1="281.76585744806283" x2="489.7974760618715" y2="156.51854556572286" style="stroke:rgb(0,0,0);stroke-width:1.0" />
<line x1="703.6879065251312" y1="248.6218638161658" x2="591.4110379061079" y2="193.02745681625822" style="stroke:rgb(0,0,0);stroke-width:1.0" />
<line x1="356.29439630495074" y1="79.07426293146602" x2="254.6036270028489" y2="107.2248932873835" style="stroke:rgb(0,0,0);stroke-width:1.0" />
<line x1="635.3088512128727" y1="670.3669318538215" x2="654.191277471009" y2="567.1719245102377" style="stroke:rgb(0,0,0);stroke-width:1.0" />
<line x1="205.09145409196526" y1="961.9543958909483" x2="180.02882534022834" y2="824.3033586903396" style="stroke:rgb(0,0,0);stroke-width:1.0" />
<line x1="591.4110379061079" y1="193.02745681625822" x2="703.6879065251312" y2="248.6218638161658" style="stroke:rgb(0,0,0);stroke-width:1.0" />
<line x1="171.0296853795529" y1="306.776187381048" x2="129.34840124237067" y2="406.39986384074035" style="stroke:rgb(0,0,0);stroke-width:1.0" />
<line x1="310.398445126146" y1="785.8240391915657" x2="342.84253561445865" y2="901.7942593647259" style="stroke:rgb(0,0,0);stroke-width:1.0" />
<line x1="781.9216984228013" y1="628.6820144719852" x2="692.7597789206583" y2="676.0801393063085" style="stroke:rgb(0,0,0);stroke-width:1.0" />
<line x1="246.13125268105406" y1="179.64768179639123" x2="314.8058926060716" y2="289.1544142698451" style="stroke:rgb(0,0,0);stroke-width:1.0" />
<line x1="516.9720642486909" y1="998.8047786571473" x2="622.5015813115635" y2="942.892532160031" style="stroke:rgb(0,0,0);stroke-width:1.0" />
<line x1="478.0943838398959" y1="659.6107582528518" x2="378.93773058599265" y2="714.2396130993579" style="stroke:rgb(0,0,0);stroke-width:1.0" />
<line x1="777.0989512511678" y1="782.704122109674" x2="874.998772482248" y2="681.6725431577337" style="stroke:rgb(0,0,0);stroke-width:1.0" />
<line x1="240.0712275060791" y1="750.7888205211516" x2="340.6064239955856" y2="698.281165271655" style="stroke:rgb(0,0,0);stroke-width:1.0" />
<line x1="33.039364891089384" y1="61.88683018921293" x2="50.26889722550931" y2="184.44999167588526" style="stroke:rgb(0,0,0);stroke-width:1.0" />
<line x1="948.9931239100368" y1="538.4178731877383" x2="905.2795425472582" y2="408.19651391449406" style="stroke:rgb(0,0,0);stroke-width:1.0" />
<line x1="654.191277471009" y1="567.1719245102377" x2="692.7597789206583" y2="676.0801393063085" style="stroke:rgb(0,0,0);stroke-width:1.0" />
<line x1="986.6277458016303" y1="612.8156859402521" x2="874.998772482248" y2="681.6725431577337" style="stroke:rgb(0,0,0);stroke-width:1.0" />
<line x1="157.67391473981462" y1="482.70708647493797" x2="57.66257910765316" y2="524.9735570888263" style="stroke:rgb(0,0,0);stroke-width:1.0" />
<line x1="461.79552837662686" y1="281.76585744806283" x2="314.8058926060716" y2="289.1544142698451" style="stroke:rgb(0,0,0);stroke-width:1.0" />
<line x1="588.8831095438014" y1="631.8973495642878" x2="478.0943838398959" y2="659.6107582528518" style="stroke:rgb(0,0,0);stroke-width:1.0" />
<line x1="691.6218153333518" y1="904.0540164778594" x2="777.0989512511678" y2="782.704122109674" style="stroke:rgb(0,0,0);stroke-width:1.0" />
<line x1="222.0938709071475" y1="445.8653741625127" x2="171.0296853795529" y2="306.776187381048" style="stroke:rgb(0,0,0);stroke-width:1.0" />
<line x1="813.9316730927667" y1="133.47958578256447" x2="833.5211448225526" y2="238.7706641958951" style="stroke:rgb(0,0,0);stroke-width:1.0" />
<line x1="238.13183124384142" y1="589.7827915935367" x2="157.67391473981462" y2="482.70708647493797" style="stroke:rgb(0,0,0);stroke-width:1.0" />
<line x1="378.93773058599265" y1="714.2396130993579" x2="478.0943838398959" y2="659.6107582528518" style="stroke:rgb(0,0,0);stroke-width:1.0" />
<line x1="478.0943838398959" y1="659.6107582528518" x2="440.25669216737805" y2="555.5761886504355" style="stroke:rgb(0,0,0);stroke-width:1.0" />
<line x1="787.2118962716946" y1="381.50037712250963" x2="845.279565391899" y2="466.15719652193366" style="stroke:rgb(0,0,0);stroke-width:1.0" />
<line x1="7.66026457592639" y1="277.15844846965854" x2="50.26889722550931" y2="184.44999167588526" style="stroke:rgb(0,0,0);stroke-width:1.0" />
<line x1="151.70051563748922" y1="154.8576260983262" x2="205.8233757671516" y2="280.6528030364954" style="stroke:rgb(0,0,0);stroke-width:1.0" />
<line x1="340.6064239955856" y1="698.281165271655" x2="418.1808237797735" y2="634.2555356647414" style="stroke:rgb(0,0,0);stroke-width:1.0" />
<line x1="540.2102070663175" y1="532.7997037721368" x2="440.25669216737805" y2="555.5761886504355" style="stroke:rgb(0,0,0);stroke-width:1.0" />
<line x1="845.279565391899" y1="466.15719652193366" x2="787.2118962716946" y2="381.50037712250963" style="stroke:rgb(0,0,0);stroke-width:1.0" />
<line x1="50.26889722550931" y1="184.44999167588526" x2="151.70051563748922" y2="154.8576260983262" style="stroke:rgb(0,0,0);stroke-width:1.0" />
<line x1="540.2102070663175" y1="532.7997037721368" x2="478.0943838398959" y2="659.6107582528518" style="stroke:rgb(0,0,0);stroke-width:1.0" />
<line x1="928.0681818630397" y1="772.8591110024485" x2="874.998772482248" y2="681.6725431577337" style="stroke:rgb(0,0,0);stroke-width:1.0" />
<line x1="171.0296853795529" y1="306.776187381048" x2="314.8058926060716" y2="289.1544142698451" style="stroke:rgb(0,0,0);stroke-width:1.0" />
<line x1="419.50280898309325" y1="242.42919108831384" x2="314.8058926060716" y2="289.1544142698451" style="stroke:rgb(0,0,0);stroke-width:1.0" />
<line x1="781.9216984228013" y1="628.6820144719852" x2="874.998772482248" y2="681.6725431577337" style="stroke:rgb(0,0,0);stroke-width:1.0" />
<line x1="811.8021689494249" y1="118.94169241562302" x2="893.1227901898285" y2="211.92060587777894" style="stroke:rgb(0,0,0);stroke-width:1.0" />
<line x1="777.0989512511678" y1="782.704122109674" x2="691.6218153333518" y2="904.0540164778594" style="stroke:rgb(0,0,0);stroke-width:1.0" />
<line x1="833.5211448225526" y1="238.7706641958951" x2="813.9316730927667" y2="133.47958578256447" style="stroke:rgb(0,0,0);stroke-width:1.0" />
<line x1="905.2795425472582" y1="408.19651391449406" x2="948.9931239100368" y2="538.4178731877383" style="stroke:rgb(0,0,0);stroke-width:1.0" />
<line x1="780.9145117239445" y1="970.0256606121328" x2="905.9324398183539" y2="921.455879888128" style="stroke:rgb(0,0,0);stroke-width:1.0" />
<line x1="415.3069158583287" y1="438.49642877902915" x2="440.25669216737805" y2="555.5761886504355" style="stroke:rgb(0,0,0);stroke-width:1.0" />
<line x1="340.6064239955856" y1="698.281165271655" x2="238.13183124384142" y2="589.7827915935367" style="stroke:rgb(0,0,0);stroke-width:1.0" />
<line x1="340.6064239955856" y1="698.281165271655" x2="302.6190984544699" y2="568.8102081793514" style="stroke:rgb(0,0,0);stroke-width:1.0" />
<line x1="418.1808237797735" y1="634.2555356647414" x2="302.6190984544699" y2="568.8102081793514" style="stroke:rgb(0,0,0);stroke-width:1.0" />
<line x1="670.4934069545907" y1="897.6260218582312" x2="624.1273455178492" y2="790.0053812118257" style="stroke:rgb(0,0,0);stroke-width:1.0" />
<line x1="854.9574374626822" y1="31.829194296419395" x2="786.1969648753674" y2="141.21752271135622" style="stroke:rgb(0,0,0);stroke-width:1.0" />
<line x1="151.70051563748922" y1="154.8576260983262" x2="254.6036270028489" y2="107.2248932873835" style="stroke:rgb(0,0,0);stroke-width:1.0" />
<line x1="489.7974760618715" y1="156.51854556572286" x2="419.50280898309325" y2="242.42919108831384" style="stroke:rgb(0,0,0);stroke-width:1.0" />
<line x1="302.6190984544699" y1="568.8102081793514" x2="418.1808237797735" y2="634.2555356647414" style="stroke:rgb(0,0,0);stroke-width:1.0" />
<line x1="478.0943838398959" y1="659.6107582528518" x2="588.8831095438014" y2="631.8973495642878" style="stroke:rgb(0,0,0);stroke-width:1.0" />
<line x1="781.9216984228013" y1="628.6820144719852" x2="749.7421368370364" y2="735.399084537863" style="stroke:rgb(0,0,0);stroke-width:1.0" />
<line x1="356.29439630495074" y1="79.07426293146602" x2="246.13125268105406" y2="179.64768179639123" style="stroke:rgb(0,0,0);stroke-width:1.0" />
<line x1="874.998772482248" y1="681.6725431577337" x2="948.9931239100368" y2="538.4178731877383" style="stroke:rgb(0,0,0);stroke-width:1.0" />
<line x1="893.1227901898285" y1="211.92060587777894" x2="905.2795425472582" y2="408.19651391449406" style="stroke:rgb(0,0,0);stroke-width:1.0" />
<line x1="709.7622009957117" y1="169.31559299563713" x2="854.9574374626822" y2="31.829194296419395" style="stroke:rgb(0,0,0);stroke-width:1.0" />
<line x1="302.6190984544699" y1="568.8102081793514" x2="415.3069158583287" y2="438.49642877902915" style="stroke:rgb(0,0,0);stroke-width:1.0" />
<line x1="777.0989512511678" y1="782.704122109674" x2="928.0681818630397" y2="772.8591110024485" style="stroke:rgb(0,0,0);stroke-width:1.0" />
<line x1="777.0989512511678" y1="782.704122109674" x2="905.9324398183539" y2="921.455879888128" style="stroke:rgb(0,0,0);stroke-width:1.0" />
<line x1="240.0712275060791" y1="750.7888205211516" x2="50.11924069900975" y2="690.0176951334797" style="stroke:rgb(0,0,0);stroke-width:1.0" />
<line x1="14.4929566126486" y1="685.4990065970744" x2="15.798905204960967" y2="512.8899620806334" style="stroke:rgb(0,0,0);stroke-width:1.0" />
<line x1="180.02882534022834" y1="824.3033586903396" x2="342.84253561445865" y2="901.7942593647259" style="stroke:rgb(0,0,0);stroke-width:1.0" />
<line x1="34.092332796126776" y1="488.96397732847817" x2="25.339944587094543" y2="317.7018106569396" style="stroke:rgb(0,0,0);stroke-width:1.0" />
<line x1="781.9216984228013" y1="628.6820144719852" x2="948.9931239100368" y2="538.4178731877383" style="stroke:rgb(0,0,0);stroke-width:1.0" />
<line x1="222.0938709071475" y1="445.8653741625127" x2="314.8058926060716" y2="289.1544142698451" style="stroke:rgb(0,0,0);stroke-width:1.0" />
<line x1="781.9216984228013" y1="628.6820144719852" x2="845.279565391899" y2="466.15719652193366" style="stroke:rgb(0,0,0);stroke-width:1.0" />
<line x1="171.0296853795529" y1="306.776187381048" x2="151.70051563748922" y2="154.8576260983262" style="stroke:rgb(0,0,0);stroke-width:1.0" />
<line x1="977.7570623559013" y1="64.07133503153194" x2="811.8021689494249" y2="118.94169241562302" style="stroke:rgb(0,0,0);stroke-width:1.0" />
<line x1="516.9720642486909" y1="998.8047786571473" x2="342.84253561445865" y2="901.7942593647259" style="stroke:rgb(0,0,0);stroke-width:1.0" />
<line x1="977.7570623559013" y1="64.07133503153194" x2="893.1227901898285" y2="211.92060587777894" style="stroke:rgb(0,0,0);stroke-width:1.0" />
<line x1="478.0943838398959" y1="659.6107582528518" x2="624.1273455178492" y2="790.0053812118257" style="stroke:rgb(0,0,0);stroke-width:1.0" />
<line x1="205.09145409196526" y1="961.9543958909483" x2="342.84253561445865" y2="901.7942593647259" style="stroke:rgb(0,0,0);stroke-width:1.0" />
<line x1="544.2062767265301" y1="443.75837736803527" x2="461.79552837662686" y2="281.76585744806283" style="stroke:rgb(0,0,0);stroke-width:1.0" />
<line x1="845.279565391899" y1="466.15719652193366" x2="781.9216984228013" y2="628.6820144719852" style="stroke:rgb(0,0,0);stroke-width:1.0" />
<line x1="622.5015813115635" y1="942.892532160031" x2="624.1273455178492" y2="790.0053812118257" style="stroke:rgb(0,0,0);stroke-width:1.0" />
<line x1="79.87429448309346" y1="73.46361204405838" x2="254.6036270028489" y2="107.2248932873835" style="stroke:rgb(0,0,0);stroke-width:1.0" />
<line x1="905.9324398183539" y1="921.455879888128" x2="928.0681818630397" y2="772.8591110024485" style="stroke:rgb(0,0,0);stroke-width:1.0" />
<line x1="780.9145117239445" y1="970.0256606121328" x2="622.5015813115635" y2="942.892532160031" style="stroke:rgb(0,0,0);stroke-width:1.0" />
<line x1="50.11924069900975" y1="690.0176951334797" x2="180.02882534022834" y2="824.3033586903396" style="stroke:rgb(0,0,0);stroke-width:1.0" />
<line x1="25.339944587094543" y1="317.7018106569396" x2="34.092332796126776" y2="488.96397732847817" style="stroke:rgb(0,0,0);stroke-width:1.0" />
<line x1="7.66026457592639" y1="277.15844846965854" x2="12.650706878019612" y2="466.2000873323753" style="stroke:rgb(0,0,0);stroke-width:1.0" />
<line x1="222.0938709071475" y1="445.8653741625127" x2="415.3069158583287" y2="438.49642877902915" style="stroke:rgb(0,0,0);stroke-width:1.0" />
<line x1="415.3069158583287" y1="438.49642877902915" x2="314.8058926060716" y2="289.1544142698451" style="stroke:rgb(0,0,0);stroke-width:1.0" />
<line x1="246.13125268105406" y1="179.64768179639123" x2="419.50280898309325" y2="242.42919108831384" style="stroke:rgb(0,0,0);stroke-width:1.0" />
<line x1="749.7421368370364" y1="735.399084537863" x2="691.6218153333518" y2="904.0540164778594" style="stroke:rgb(0,0,0);stroke-width:1.0" />
<line x1="905.2795425472582" y1="408.19651391449406" x2="893.1227901898285" y2="211.92060587777894" style="stroke:rgb(0,0,0);stroke-width:1.0" />
<line x1="691.6218153333518" y1="904.0540164778594" x2="749.7421368370364" y2="735.399084537863" style="stroke:rgb(0,0,0);stroke-width:1.0" />
<line x1="171.0296853795529" y1="306.776187381048" x2="50.26889722550931" y2="184.44999167588526" style="stroke:rgb(0,0,0);stroke-width:1.0" />
<line x1="624.1273455178492" y1="790.0053812118257" x2="478.0943838398959" y2="659.6107582528518" style="stroke:rgb(0,0,0);stroke-width:1.0" />
<line x1="415.3069158583287" y1="438.49642877902915" x2="222.0938709071475" y2="445.8653741625127" style="stroke:rgb(0,0,0);stroke-width:1.0" />
<line x1="57.66257910765316" y1="524.9735570888263" x2="238.13183124384142" y2="589.7827915935367" style="stroke:rgb(0,0,0);stroke-width:1.0" />
<line x1="544.2062767265301" y1="443.75837736803527" x2="654.191277471009" y2="567.1719245102377" style="stroke:rgb(0,0,0);stroke-width:1.0" />
<line x1="461.79552837662686" y1="281.76585744806283" x2="544.2062767265301" y2="443.75837736803527" style="stroke:rgb(0,0,0);stroke-width:1.0" />
<line x1="342.84253561445865" y1="901.7942593647259" x2="180.02882534022834" y2="824.3033586903396" style="stroke:rgb(0,0,0);stroke-width:1.0" />
<line x1="57.66257910765316" y1="524.9735570888263" x2="50.11924069900975" y2="690.0176951334797" style="stroke:rgb(0,0,0);stroke-width:1.0" />
<line x1="624.1273455178492" y1="790.0053812118257" x2="622.5015813115635" y2="942.892532160031" style="stroke:rgb(0,0,0);stroke-width:1.0" />
<line x1="478.0943838398959" y1="659.6107582528518" x2="635.3088512128727" y2="670.3669318538215" style="stroke:rgb(0,0,0);stroke-width:1.0" />
<line x1="50.11924069900975" y1="690.0176951334797" x2="57.66257910765316" y2="524.9735570888263" style="stroke:rgb(0,0,0);stroke-width:1.0" />
<line x1="419.50280898309325" y1="242.42919108831384" x2="246.13125268105406" y2="179.64768179639123" style="stroke:rgb(0,0,0);stroke-width:1.0" />
<line x1="50.11924069900975" y1="690.0176951334797" x2="15.798905204960967" y2="512.8899620806334" style="stroke:rgb(0,0,0);stroke-width:1.0" />
<line x1="356.29439630495074" y1="79.07426293146602" x2="489.7974760618715" y2="156.51854556572286" style="stroke:rgb(0,0,0);stroke-width:1.0" />
<line x1="461.79552837662686" y1="281.76585744806283" x2="591.4110379061079" y2="193.02745681625822" style="stroke:rgb(0,0,0);stroke-width:1.0" />
<line x1="12.650706878019612" y1="466.2000873323753" x2="7.66026457592639" y2="277.15844846965854" style="stroke:rgb(0,0,0);stroke-width:1.0" />
<line x1="654.191277471009" y1="567.1719245102377" x2="544.2062767265301" y2="443.75837736803527" style="stroke:rgb(0,0,0);stroke-width:1.0" />
<line x1="254.6036270028489" y1="107.2248932873835" x2="79.87429448309346" y2="73.46361204405838" style="stroke:rgb(0,0,0);stroke-width:1.0" />
<line x1="419.50280898309325" y1="242.42919108831384" x2="356.29439630495074" y2="79.07426293146602" style="stroke:rgb(0,0,0);stroke-width:1.0" />
<line x1="928.0681818630397" y1="772.8591110024485" x2="905.9324398183539" y2="921.455879888128" style="stroke:rgb(0,0,0);stroke-width:1.0" />
<line x1="622.5015813115635" y1="942.892532160031" x2="780.9145117239445" y2="970.0256606121328" style="stroke:rgb(0,0,0);stroke-width:1.0" />
<line x1="948.9931239100368" y1="538.4178731877383" x2="874.998772482248" y2="681.6725431577337" style="stroke:rgb(0,0,0);stroke-width:1.0" />
<line x1="378.93773058599265" y1="714.2396130993579" x2="342.84253561445865" y2="901.7942593647259" style="stroke:rgb(0,0,0);stroke-width:1.0" />
<line x1="269.30277894828083" y1="502.28207024852344" x2="415.3069158583287" y2="438.49642877902915" style="stroke:rgb(0,0,0);stroke-width:1.0" />
<line x1="777.0989512511678" y1="782.704122109674" x2="780.9145117239445" y2="970.0256606121328" style="stroke:rgb(0,0,0);stroke-width:1.0" />
<line x1="415.3069158583287" y1="438.49642877902915" x2="302.6190984544699" y2="568.8102081793514" style="stroke:rgb(0,0,0);stroke-width:1.0" />
<line x1="780.9145117239445" y1="970.0256606121328" x2="777.0989512511678" y2="782.704122109674" style="stroke:rgb(0,0,0);stroke-width:1.0" />
<line x1="314.8058926060716" y1="289.1544142698451" x2="222.0938709071475" y2="445.8653741625127" style="stroke:rgb(0,0,0);stroke-width:1.0" />
<line x1="854.9574374626822" y1="31.829194296419395" x2="709.7622009957117" y2="169.31559299563713" style="stroke:rgb(0,0,0);stroke-width:1.0" />
<line x1="15.798905204960967" y1="512.8899620806334" x2="14.4929566126486" y2="685.4990065970744" style="stroke:rgb(0,0,0);stroke-width:1.0" />
<line x1="811.8021689494249" y1="118.94169241562302" x2="977.7570623559013" y2="64.07133503153194" style="stroke:rgb(0,0,0);stroke-width:1.0" />
<line x1="240.0712275060791" y1="750.7888205211516" x2="238.13183124384142" y2="589.7827915935367" style="stroke:rgb(0,0,0);stroke-width:1.0" />
<line x1="356.29439630495074" y1="79.07426293146602" x2="419.50280898309325" y2="242.42919108831384" style="stroke:rgb(0,0,0);stroke-width:1.0" />
<line x1="948.9931239100368" y1="538.4178731877383" x2="781.9216984228013" y2="628.6820144719852" style="stroke:rgb(0,0,0);stroke-width:1.0" />
<line x1="238.13183124384142" y1="589.7827915935367" x2="57.66257910765316" y2="524.9735570888263" style="stroke:rgb(0,0,0);stroke-width:1.0" />
<line x1="893.1227901898285" y1="211.92060587777894" x2="977.7570623559013" y2="64.07133503153194" style="stroke:rgb(0,0,0);stroke-width:1.0" />
<line x1="342.84253561445865" y1="901.7942593647259" x2="516.9720642486909" y2="998.8047786571473" style="stroke:rgb(0,0,0);stroke-width:1.0" />
<line x1="489.7974760618715" y1="156.51854556572286" x2="356.29439630495074" y2="79.07426293146602" style="stroke:rgb(0,0,0);stroke-width:1.0" />
<line x1="928.0681818630397" y1="772.8591110024485" x2="777.0989512511678" y2="782.704122109674" style="stroke:rgb(0,0,0);stroke-width:1.0" />
<line x1="314.8058926060716" y1="289.1544142698451" x2="415.3069158583287" y2="438.49642877902915" style="stroke:rgb(0,0,0);stroke-width:1.0" />
<line x1="151.70051563748922" y1="154.8576260983262" x2="171.0296853795529" y2="306.776187381048" style="stroke:rgb(0,0,0);stroke-width:1.0" />
<line x1="180.02882534022834" y1="824.3033586903396" x2="50.11924069900975" y2="690.0176951334797" style="stroke:rgb(0,0,0);stroke-width:1.0" />
<line x1="415.3069158583287" y1="438.49642877902915" x2="269.30277894828083" y2="502.28207024852344" style="stroke:rgb(0,0,0);stroke-width:1.0" />
<line x1="905.9324398183539" y1="921.455879888128" x2="777.0989512511678" y2="782.704122109674" style="stroke:rgb(0,0,0);stroke-width:1.0" />
<line x1="342.84253561445865" y1="901.7942593647259" x2="205.09145409196526" y2="961.9543958909483" style="stroke:rgb(0,0,0);stroke-width:1.0" />
<line x1="50.11924069900975" y1="690.0176951334797" x2="240.0712275060791" y2="750.7888205211516" style="stroke:rgb(0,0,0);stroke-width:1.0" />
<line x1="342.84253561445865" y1="901.7942593647259" x2="378.93773058599265" y2="714.2396130993579" style="stroke:rgb(0,0,0);stroke-width:1.0" />
<line x1="238.13183124384142" y1="589.7827915935367" x2="240.0712275060791" y2="750.7888205211516" style="stroke:rgb(0,0,0);stroke-width:1.0" />
<line x1="635.3088512128727" y1="670.3669318538215" x2="478.0943838398959" y2="659.6107582528518" style="stroke:rgb(0,0,0);stroke-width:1.0" />
<line x1="50.26889722550931" y1="184.44999167588526" x2="171.0296853795529" y2="306.776187381048" style="stroke:rgb(0,0,0);stroke-width:1.0" />
<line x1="591.4110379061079" y1="193.02745681625822" x2="461.79552837662686" y2="281.76585744806283" style="stroke:rgb(0,0,0);stroke-width:1.0" />
<line x1="15.798905204960967" y1="512.8899620806334" x2="50.11924069900975" y2="690.0176951334797" style="stroke:rgb(0,0,0);stroke-width:1.0" />
<line x1="516.9720642486909" y1="998.8047786571473" x2="624.1273455178492" y2="790.0053812118257" style="stroke:rgb(0,0,0);stroke-width:1.0" />
<line x1="905.2795425472582" y1="408.19651391449406" x2="986.6277458016303" y2="612.8156859402521" style="stroke:rgb(0,0,0);stroke-width:1.0" />
<line x1="33.039364891089384" y1="61.88683018921293" x2="7.66026457592639" y2="277.15844846965854" style="stroke:rgb(0,0,0);stroke-width:1.0" />
<line x1="7.66026457592639" y1="277.15844846965854" x2="34.092332796126776" y2="488.96397732847817" style="stroke:rgb(0,0,0);stroke-width:1.0" />
<line x1="741.4659600886939" y1="370.2891515300821" x2="544.2062767265301" y2="443.75837736803527" style="stroke:rgb(0,0,0);stroke-width:1.0" />
<line x1="180.02882534022834" y1="824.3033586903396" x2="14.4929566126486" y2="685.4990065970744" style="stroke:rgb(0,0,0);stroke-width:1.0" />
<line x1="14.4929566126486" y1="685.4990065970744" x2="12.650706878019612" y2="466.2000873323753" style="stroke:rgb(0,0,0);stroke-width:1.0" />
<line x1="7.66026457592639" y1="277.15844846965854" x2="29.63900469085734" y2="481.7711917656572" style="stroke:rgb(0,0,0);stroke-width:1.0" />
<line x1="960.1197257386709" y1="708.5126327068843" x2="905.9324398183539" y2="921.455879888128" style="stroke:rgb(0,0,0);stroke-width:1.0" />
<line x1="489.7974760618715" y1="156.51854556572286" x2="709.7622009957117" y2="169.31559299563713" style="stroke:rgb(0,0,0);stroke-width:1.0" />
<line x1="624.1273455178492" y1="790.0053812118257" x2="516.9720642486909" y2="998.8047786571473" style="stroke:rgb(0,0,0);stroke-width:1.0" />
<line x1="461.79552837662686" y1="281.76585744806283" x2="703.6879065251312" y2="248.6218638161658" style="stroke:rgb(0,0,0);stroke-width:1.0" />
<line x1="7.66026457592639" y1="277.15844846965854" x2="33.039364891089384" y2="61.88683018921293" style="stroke:rgb(0,0,0);stroke-width:1.0" />
<line x1="50.11924069900975" y1="690.0176951334797" x2="238.13183124384142" y2="589.7827915935367" style="stroke:rgb(0,0,0);stroke-width:1.0" />
<line x1="905.9324398183539" y1="921.455879888128" x2="960.1197257386709" y2="708.5126327068843" style="stroke:rgb(0,0,0);stroke-width:1.0" />
<line x1="709.7622009957117" y1="169.31559299563713" x2="489.7974760618715" y2="156.51854556572286" style="stroke:rgb(0,0,0);stroke-width:1.0" />
<line x1="986.6277458016303" y1="612.8156859402521" x2="905.2795425472582" y2="408.19651391449406" style="stroke:rgb(0,0,0);stroke-width:1.0" />
<line x1="544.2062767265301" y1="443.75837736803527" x2="741.4659600886939" y2="370.2891515300821" style="stroke:rgb(0,0,0);stroke-width:1.0" />
<line x1="654.191277471009" y1="567.1719245102377" x2="845.279565391899" y2="466.15719652193366" style="stroke:rgb(0,0,0);stroke-width:1.0" />
<line x1="29.63900469085734" y1="481.7711917656572" x2="7.66026457592639" y2="277.15844846965854" style="stroke:rgb(0,0,0);stroke-width:1.0" />
<line x1="741.4659600886939" y1="370.2891515300821" x2="654.191277471009" y2="567.1719245102377" style="stroke:rgb(0,0,0);stroke-width:1.0" />
<line x1="315.2085462624965" y1="42.84552315161228" x2="79.87429448309346" y2="73.46361204405838" style="stroke:rgb(0,0,0);stroke-width:1.0" />
<line x1="845.279565391899" y1="466.15719652193366" x2="654.191277471009" y2="567.1719245102377" style="stroke:rgb(0,0,0);stroke-width:1.0" />
<line x1="489.7974760618715" y1="156.51854556572286" x2="315.2085462624965" y2="42.84552315161228" style="stroke:rgb(0,0,0);stroke-width:1.0" />
<line x1="79.87429448309346" y1="73.46361204405838" x2="315.2085462624965" y2="42.84552315161228" style="stroke:rgb(0,0,0);stroke-width:1.0" />
<line x1="14.4929566126486" y1="685.4990065970744" x2="180.02882534022834" y2="824.3033586903396" style="stroke:rgb(0,0,0);stroke-width:1.0" />
<line x1="34.092332796126776" y1="488.96397732847817" x2="7.66026457592639" y2="277.15844846965854" style="stroke:rgb(0,0,0);stroke-width:1.0" />
<line x1="12.650706878019612" y1="466.2000873323753" x2="14.4929566126486" y2="685.4990065970744" style="stroke:rgb(0,0,0);stroke-width:1.0" />
<line x1="238.13183124384142" y1="589.7827915935367" x2="50.11924069900975" y2="690.0176951334797" style="stroke:rgb(0,0,0);stroke-width:1.0" />
<line x1="315.2085462624965" y1="42.84552315161228" x2="489.7974760618715" y2="156.51854556572286" style="stroke:rgb(0,0,0);stroke-width:1.0" />
<line x1="654.191277471009" y1="567.1719245102377" x2="741.4659600886939" y2="370.2891515300821" style="stroke:rgb(0,0,0);stroke-width:1.0" />
<line x1="703.6879065251312" y1="248.6218638161658" x2="461.79552837662686" y2="281.76585744806283" style="stroke:rgb(0,0,0);stroke-width:1.0" />
<line x1="741.4659600886939" y1="370.2891515300821" x2="461.79552837662686" y2="281.76585744806283" style="stroke:rgb(0,0,0);stroke-width:1.0" />
<line x1="461.79552837662686" y1="281.76585744806283" x2="741.4659600886939" y2="370.2891515300821" style="stroke:rgb(0,0,0);stroke-width:1.0" />
<line x1="33.039364891089384" y1="61.88683018921293" x2="315.2085462624965" y2="42.84552315161228" style="stroke:rgb(0,0,0);stroke-width:1.0" />
<line x1="342.84253561445865" y1="901.7942593647259" x2="478.0943838398959" y2="659.6107582528518" style="stroke:rgb(0,0,0);stroke-width:1.0" />
<line x1="315.2085462624965" y1="42.84552315161228" x2="33.039364891089384" y2="61.88683018921293" style="stroke:rgb(0,0,0);stroke-width:1.0" />
<line x1="516.9720642486909" y1="998.8047786571473" x2="780.9145117239445" y2="970.0256606121328" style="stroke:rgb(0,0,0);stroke-width:1.0" />
<line x1="780.9145117239445" y1="970.0256606121328" x2="516.9720642486909" y2="998.8047786571473" style="stroke:rgb(0,0,0);stroke-width:1.0" />
<line x1="478.0943838398959" y1="659.6107582528518" x2="342.84253561445865" y2="901.7942593647259" style="stroke:rgb(0,0,0);stroke-width:1.0" />
<line x1="205.09145409196526" y1="961.9543958909483" x2="516.9720642486909" y2="998.8047786571473" style="stroke:rgb(0,0,0);stroke-width:1.0" />
<line x1="14.4929566126486" y1="685.4990065970744" x2="205.09145409196526" y2="961.9543958909483" style="stroke:rgb(0,0,0);stroke-width:1.0" />
<line x1="986.6277458016303" y1="612.8156859402521" x2="905.9324398183539" y2="921.455879888128" style="stroke:rgb(0,0,0);stroke-width:1.0" />
<line x1="516.9720642486909" y1="998.8047786571473" x2="478.0943838398959" y2="659.6107582528518" style="stroke:rgb(0,0,0);stroke-width:1.0" />
<line x1="516.9720642486909" y1="998.8047786571473" x2="205.09145409196526" y2="961.9543958909483" style="stroke:rgb(0,0,0);stroke-width:1.0" />
<line x1="205.09145409196526" y1="961.9543958909483" x2="14.4929566126486" y2="685.4990065970744" style="stroke:rgb(0,0,0);stroke-width:1.0" />
<line x1="905.9324398183539" y1="921.455879888128" x2="986.6277458016303" y2="612.8156859402521" style="stroke:rgb(0,0,0);stroke-width:1.0" />
<line x1="478.0943838398959" y1="659.6107582528518" x2="516.9720642486909" y2="998.8047786571473" style="stroke:rgb(0,0,0);stroke-width:1.0" />
<line x1="977.7570623559013" y1="64.07133503153194" x2="905.2795425472582" y2="408.19651391449406" style="stroke:rgb(0,0,0);stroke-width:1.0" />
<line x1="905.2795425472582" y1="408.19651391449406" x2="996.4999194826364" y2="25.252763647783063" style="stroke:rgb(0,0,0);stroke-width:1.0" />
<line x1="996.4999194826364" y1="25.252763647783063" x2="905.2795425472582" y2="408.19651391449406" style="stroke:rgb(0,0,0);stroke-width:1.0" />
<line x1="854.9574374626822" y1="31.829194296419395" x2="489.7974760618715" y2="156.51854556572286" style="stroke:rgb(0,0,0);stroke-width:1.0" />
<line x1="489.7974760618715" y1="156.51854556572286" x2="854.9574374626822" y2="31.829194296419395" style="stroke:rgb(0,0,0);stroke-width:1.0" />
<line x1="905.2795425472582" y1="408.19651391449406" x2="977.7570623559013" y2="64.07133503153194" style="stroke:rgb(0,0,0);stroke-width:1.0" />
<line x1="489.7974760618715" y1="156.51854556572286" x2="883.601589063893" y2="19.607309218632295" style="stroke:rgb(0,0,0);stroke-width:1.0" />
<line x1="14.4929566126486" y1="685.4990065970744" x2="7.66026457592639" y2="277.15844846965854" style="stroke:rgb(0,0,0);stroke-width:1.0" />
<line x1="7.66026457592639" y1="277.15844846965854" x2="14.4929566126486" y2="685.4990065970744" style="stroke:rgb(0,0,0);stroke-width:1.0" />
<line x1="883.601589063893" y1="19.607309218632295" x2="489.7974760618715" y2="156.51854556572286" style="stroke:rgb(0,0,0);stroke-width:1.0" />
<line x1="315.2085462624965" y1="42.84552315161228" x2="883.601589063893" y2="19.607309218632295" style="stroke:rgb(0,0,0);stroke-width:1.0" />
<line x1="986.6277458016303" y1="612.8156859402521" x2="996.4999194826364" y2="25.252763647783063" style="stroke:rgb(0,0,0);stroke-width:1.0" />
<line x1="883.601589063893" y1="19.607309218632295" x2="315.2085462624965" y2="42.84552315161228" style="stroke:rgb(0,0,0);stroke-width:1.0" />
<line x1="996.4999194826364" y1="25.252763647783063" x2="986.6277458016303" y2="612.8156859402521" style="stroke:rgb(0,0,0);stroke-width:1.0" />
</svg>
