<?xml version="1.0" standalone="no"?>
<!DOCTYPE svg PUBLIC "-//W3C//DTD SVG 1.1//EN" 
  "http://www.w3.org/Graphics/SVG/1.1/DTD/svg11.dtd">
<svg xmlns="http://www.w3.org/2000/svg" height="1000" width="1000">
<line x1="50.0" y1="50.0" x2="50.0" y2="100.0" style="stroke:rgb(0,0,0);stroke-width:2.0" />
<line x1="50.0" y1="150.0" x2="50.0" y2="200.0" style="stroke:rgb(0,0,0);stroke-width:2.0" />
<line x1="50.0" y1="200.0" x2="50.0" y2="250.0" style="stroke:rgb(0,0,0);stroke-width:2.0" />
<line x1="50.0" y1="250.0" x2="50.0" y2="300.0" style="stroke:rgb(0,0,0);stroke-width:2.0" />
<line x1="50.0" y1="300.0" x2="50.0" y2="350.0" style="stroke:rgb(0,0,0);stroke-width:2.0" />
<line x1="50.0" y1="350.0" x2="50.0" y2="400.0" style="stroke:rgb(0,0,0);stroke-width:2.0" />
<line x1="50.0" y1="450.0" x2="50.0" y2="500.0" style="stroke:rgb(0,0,0);stroke-width:2.0" />
<line x1="50.0" y1="500.0" x2="50.0" y2="550.0" style="stroke:rgb(0,0,0);stroke-width:2.0" />
<line x1="50.0" y1="550.0" x2="50.0" y2="600.0" style="stroke:rgb(0,0,0);stroke-width:2.0" />
<line x1="0.0" y1="700.0" x2="50.0" y2="700.0" style="stroke:rgb(0,0,0);stroke-width:2.0" />
<line x1="0.0" y1="750.0" x2="50.0" y2="750.0" style="stroke:rgb(0,0,0);stroke-width:2.0" />
<line x1="50.0" y1="800.0" x2="50.0" y2="850.0" style="stroke:rgb(0,0,0);stroke-width:2.0" />
<line x1="50.0" y1="850.0" x2="50.0" y2="900.0" style="stroke:rgb(0,0,0);stroke-width:2.0" />
<line x1="50.0" y1="950.0" x2="50.0" y2="1000.0" style="stroke:rgb(0,0,0);stroke-width:2.0" />
<line x1="100.0" y1="0.0" x2="100.0" y2="50.0" style="stroke:rgb(0,0,0);stroke-width:2.0" />
<line x1="50.0" y1="100.0" x2="100.0" y2="100.0" style="stroke:rgb(0,0,0);stroke-width:2.0" />
<line x1="50.0" y1="150.0" x2="100.0" y2="150.0" style="stroke:rgb(0,0,0);stroke-width:2.0" />
<line x1="100.0" y1="250.0" x2="100.0" y2="300.0" style="stroke:rgb(0,0,0);stroke-width:2.0" />
<line x1="50.0" y1="400.0" x2="100.0" y2="400.0" style="stroke:rgb(0,0,0);stroke-width:2.0" />
<line x1="100.0" y1="400.0" x2="100.0" y2="450.0" style="stroke:rgb(0,0,0);stroke-width:2.0" />
<line x1="100.0" y1="450.0" x2="100.0" y2="500.0" style="stroke:rgb(0,0,0);stroke-width:2.0" />
<line x1="100.0" y1="500.0" x2="100.0" y2="550.0" style="stroke:rgb(0,0,0);stroke-width:2.0" />
<line x1="100.0" y1="550.0" x2="100.0" y2="600.0" style="stroke:rgb(0,0,0);stroke-width:2.0" />
<line x1="50.0" y1="650.0" x2="100.0" y2="650.0" style="stroke:rgb(0,0,0);stroke-width:2.0" />
<line x1="100.0" y1="600.0" x2="100.0" y2="650.0" style="stroke:rgb(0,0,0);stroke-width:2.0" />
<line x1="50.0" y1="700.0" x2="100.0" y2="700.0" style="stroke:rgb(0,0,0);stroke-width:2.0" />
<line x1="50.0" y1="750.0" x2="100.0" y2="750.0" style="stroke:rgb(0,0,0);stroke-width:2.0" />
<line x1="100.0" y1="750.0" x2="100.0" y2="800.0" style="stroke:rgb(0,0,0);stroke-width:2.0" />
<line x1="100.0" y1="800.0" x2="100.0" y2="850.0" style="stroke:rgb(0,0,0);stroke-width:2.0" />
<line x1="50.0" y1="900.0" x2="100.0" y2="900.0" style="stroke:rgb(0,0,0);stroke-width:2.0" />
<line x1="100.0" y1="900.0" x2="100.0" y2="950.0" style="stroke:rgb(0,0,0);stroke-width:2.0" />
<line x1="50.0" y1="1000.0" x2="100.0" y2="1000.0" style="stroke:rgb(0,0,0);stroke-width:2.0" />
<line x1="100.0" y1="100.0" x2="150.0" y2="100.0" style="stroke:rgb(0,0,0);stroke-width:2.0" />
<line x1="150.0" y1="50.0" x2="150.0" y2="100.0" style="stroke:rgb(0,0,0);stroke-width:2.0" />
<line x1="100.0" y1="150.0" x2="150.0" y2="150.0" style="stroke:rgb(0,0,0);stroke-width:2.0" />
<line x1="100.0" y1="200.0" x2="150.0" y2="200.0" style="stroke:rgb(0,0,0);stroke-width:2.0" />
<line x1="100.0" y1="250.0" x2="150.0" y2="250.0" style="stroke:rgb(0,0,0);stroke-width:2.0" />
<line x1="100.0" y1="350.0" x2="150.0" y2="350.0" style="stroke:rgb(0,0,0);stroke-width:2.0" />
<line x1="100.0" y1="400.0" x2="150.0" y2="400.0" style="stroke:rgb(0,0,0);stroke-width:2.0" />
<line x1="150.0" y1="450.0" x2="150.0" y2="500.0" style="stroke:rgb(0,0,0);stroke-width:2.0" />
<line x1="150.0" y1="500.0" x2="150.0" y2="550.0" style="stroke:rgb(0,0,0);stroke-width:2.0" />
<line x1="150.0" y1="550.0" x2="150.0" y2="600.0" style="stroke:rgb(0,0,0);stroke-width:2.0" />
<line x1="100.0" y1="650.0" x2="150.0" y2="650.0" style="stroke:rgb(0,0,0);stroke-width:2.0" />
<line x1="100.0" y1="700.0" x2="150.0" y2="700.0" style="stroke:rgb(0,0,0);stroke-width:2.0" />
<line x1="150.0" y1="700.0" x2="150.0" y2="750.0" style="stroke:rgb(0,0,0);stroke-width:2.0" />
<line x1="100.0" y1="800.0" x2="150.0" y2="800.0" style="stroke:rgb(0,0,0);stroke-width:2.0" />
<line x1="100.0" y1="900.0" x2="150.0" y2="900.0" style="stroke:rgb(0,0,0);stroke-width:2.0" />
<line x1="150.0" y1="850.0" x2="150.0" y2="900.0" style="stroke:rgb(0,0,0);stroke-width:2.0" />
<line x1="100.0" y1="1000.0" x2="150.0" y2="1000.0" style="stroke:rgb(0,0,0);stroke-width:2.0" />
<line x1="150.0" y1="950.0" x2="150.0" y2="1000.0" style="stroke:rgb(0,0,0);stroke-width:2.0" />
<line x1="200.0" y1="0.0" x2="200.0" y2="50.0" style="stroke:rgb(0,0,0);stroke-width:2.0" />
<line x1="200.0" y1="50.0" x2="200.0" y2="100.0" style="stroke:rgb(0,0,0);stroke-width:2.0" />
<line x1="150.0" y1="150.0" x2="200.0" y2="150.0" style="stroke:rgb(0,0,0);stroke-width:2.0" />
<line x1="200.0" y1="100.0" x2="200.0" y2="150.0" style="stroke:rgb(0,0,0);stroke-width:2.0" />
<line x1="200.0" y1="150.0" x2="200.0" y2="200.0" style="stroke:rgb(0,0,0);stroke-width:2.0" />
<line x1="150.0" y1="250.0" x2="200.0" y2="250.0" style="stroke:rgb(0,0,0);stroke-width:2.0" />
<line x1="150.0" y1="300.0" x2="200.0" y2="300.0" style="stroke:rgb(0,0,0);stroke-width:2.0" />
<line x1="150.0" y1="350.0" x2="200.0" y2="350.0" style="stroke:rgb(0,0,0);stroke-width:2.0" />
<line x1="200.0" y1="350.0" x2="200.0" y2="400.0" style="stroke:rgb(0,0,0);stroke-width:2.0" />
<line x1="150.0" y1="450.0" x2="200.0" y2="450.0" style="stroke:rgb(0,0,0);stroke-width:2.0" />
<line x1="200.0" y1="500.0" x2="200.0" y2="550.0" style="stroke:rgb(0,0,0);stroke-width:2.0" />
<line x1="150.0" y1="650.0" x2="200.0" y2="650.0" style="stroke:rgb(0,0,0);stroke-width:2.0" />
<line x1="200.0" y1="650.0" x2="200.0" y2="700.0" style="stroke:rgb(0,0,0);stroke-width:2.0" />
<line x1="150.0" y1="750.0" x2="200.0" y2="750.0" style="stroke:rgb(0,0,0);stroke-width:2.0" />
<line x1="200.0" y1="750.0" x2="200.0" y2="800.0" style="stroke:rgb(0,0,0);stroke-width:2.0" />
<line x1="200.0" y1="800.0" x2="200.0" y2="850.0" style="stroke:rgb(0,0,0);stroke-width:2.0" />
<line x1="200.0" y1="850.0" x2="200.0" y2="900.0" style="stroke:rgb(0,0,0);stroke-width:2.0" />
<line x1="200.0" y1="900.0" x2="200.0" y2="950.0" style="stroke:rgb(0,0,0);stroke-width:2.0" />
<line x1="150.0" y1="1000.0" x2="200.0" y2="1000.0" style="stroke:rgb(0,0,0);stroke-width:2.0" />
<line x1="250.0" y1="50.0" x2="250.0" y2="100.0" style="stroke:rgb(0,0,0);stroke-width:2.0" />
<line x1="200.0" y1="200.0" x2="250.0" y2="200.0" style="stroke:rgb(0,0,0);stroke-width:2.0" />
<line x1="250.0" y1="200.0" x2="250.0" y2="250.0" style="stroke:rgb(0,0,0);stroke-width:2.0" />
<line x1="250.0" y1="250.0" x2="250.0" y2="300.0" style="stroke:rgb(0,0,0);stroke-width:2.0" />
<line x1="250.0" y1="300.0" x2="250.0" y2="350.0" style="stroke:rgb(0,0,0);stroke-width:2.0" />
<line x1="200.0" y1="400.0" x2="250.0" y2="400.0" style="stroke:rgb(0,0,0);stroke-width:2.0" />
<line x1="200.0" y1="450.0" x2="250.0" y2="450.0" style="stroke:rgb(0,0,0);stroke-width:2.0" />
<line x1="200.0" y1="550.0" x2="250.0" y2="550.0" style="stroke:rgb(0,0,0);stroke-width:2.0" />
<line x1="200.0" y1="600.0" x2="250.0" y2="600.0" style="stroke:rgb(0,0,0);stroke-width:2.0" />
<line x1="250.0" y1="600.0" x2="250.0" y2="650.0" style="stroke:rgb(0,0,0);stroke-width:2.0" />
<line x1="200.0" y1="700.0" x2="250.0" y2="700.0" style="stroke:rgb(0,0,0);stroke-width:2.0" />
<line x1="250.0" y1="700.0" x2="250.0" y2="750.0" style="stroke:rgb(0,0,0);stroke-width:2.0" />
<line x1="250.0" y1="750.0" x2="250.0" y2="800.0" style="stroke:rgb(0,0,0);stroke-width:2.0" />
<line x1="200.0" y1="850.0" x2="250.0" y2="850.0" style="stroke:rgb(0,0,0);stroke-width:2.0" />
<line x1="200.0" y1="1000.0" x2="250.0" y2="1000.0" style="stroke:rgb(0,0,0);stroke-width:2.0" />
<line x1="250.0" y1="50.0" x2="300.0" y2="50.0" style="stroke:rgb(0,0,0);stroke-width:2.0" />
<line x1="250.0" y1="150.0" x2="300.0" y2="150.0" style="stroke:rgb(0,0,0);stroke-width:2.0" />
<line x1="300.0" y1="100.0" x2="300.0" y2="150.0" style="stroke:rgb(0,0,0);stroke-width:2.0" />
<line x1="300.0" y1="150.0" x2="300.0" y2="200.0" style="stroke:rgb(0,0,0);stroke-width:2.0" />
<line x1="250.0" y1="250.0" x2="300.0" y2="250.0" style="stroke:rgb(0,0,0);stroke-width:2.0" />
<line x1="250.0" y1="350.0" x2="300.0" y2="350.0" style="stroke:rgb(0,0,0);stroke-width:2.0" />
<line x1="250.0" y1="400.0" x2="300.0" y2="400.0" style="stroke:rgb(0,0,0);stroke-width:2.0" />
<line x1="300.0" y1="400.0" x2="300.0" y2="450.0" style="stroke:rgb(0,0,0);stroke-width:2.0" />
<line x1="250.0" y1="500.0" x2="300.0" y2="500.0" style="stroke:rgb(0,0,0);stroke-width:2.0" />
<line x1="300.0" y1="450.0" x2="300.0" y2="500.0" style="stroke:rgb(0,0,0);stroke-width:2.0" />
<line x1="250.0" y1="550.0" x2="300.0" y2="550.0" style="stroke:rgb(0,0,0);stroke-width:2.0" />
<line x1="300.0" y1="550.0" x2="300.0" y2="600.0" style="stroke:rgb(0,0,0);stroke-width:2.0" />
<line x1="250.0" y1="650.0" x2="300.0" y2="650.0" style="stroke:rgb(0,0,0);stroke-width:2.0" />
<line x1="250.0" y1="700.0" x2="300.0" y2="700.0" style="stroke:rgb(0,0,0);stroke-width:2.0" />
<line x1="250.0" y1="800.0" x2="300.0" y2="800.0" style="stroke:rgb(0,0,0);stroke-width:2.0" />
<line x1="300.0" y1="800.0" x2="300.0" y2="850.0" style="stroke:rgb(0,0,0);stroke-width:2.0" />
<line x1="250.0" y1="900.0" x2="300.0" y2="900.0" style="stroke:rgb(0,0,0);stroke-width:2.0" />
<line x1="300.0" y1="850.0" x2="300.0" y2="900.0" style="stroke:rgb(0,0,0);stroke-width:2.0" />
<line x1="250.0" y1="950.0" x2="300.0" y2="950.0" style="stroke:rgb(0,0,0);stroke-width:2.0" />
<line x1="250.0" y1="1000.0" x2="300.0" y2="1000.0" style="stroke:rgb(0,0,0);stroke-width:2.0" />
<line x1="300.0" y1="50.0" x2="350.0" y2="50.0" style="stroke:rgb(0,0,0);stroke-width:2.0" />
<line x1="300.0" y1="100.0" x2="350.0" y2="100.0" style="stroke:rgb(0,0,0);stroke-width:2.0" />
<line x1="350.0" y1="150.0" x2="350.0" y2="200.0" style="stroke:rgb(0,0,0);stroke-width:2.0" />
<line x1="300.0" y1="250.0" x2="350.0" y2="250.0" style="stroke:rgb(0,0,0);stroke-width:2.0" />
<line x1="300.0" y1="300.0" x2="350.0" y2="300.0" style="stroke:rgb(0,0,0);stroke-width:2.0" />
<line x1="300.0" y1="350.0" x2="350.0" y2="350.0" style="stroke:rgb(0,0,0);stroke-width:2.0" />
<line x1="300.0" y1="400.0" x2="350.0" y2="400.0" style="stroke:rgb(0,0,0);stroke-width:2.0" />
<line x1="350.0" y1="450.0" x2="350.0" y2="500.0" style="stroke:rgb(0,0,0);stroke-width:2.0" />
<line x1="350.0" y1="500.0" x2="350.0" y2="550.0" style="stroke:rgb(0,0,0);stroke-width:2.0" />
<line x1="350.0" y1="550.0" x2="350.0" y2="600.0" style="stroke:rgb(0,0,0);stroke-width:2.0" />
<line x1="300.0" y1="650.0" x2="350.0" y2="650.0" style="stroke:rgb(0,0,0);stroke-width:2.0" />
<line x1="300.0" y1="750.0" x2="350.0" y2="750.0" style="stroke:rgb(0,0,0);stroke-width:2.0" />
<line x1="350.0" y1="700.0" x2="350.0" y2="750.0" style="stroke:rgb(0,0,0);stroke-width:2.0" />
<line x1="350.0" y1="750.0" x2="350.0" y2="800.0" style="stroke:rgb(0,0,0);stroke-width:2.0" />
<line x1="350.0" y1="850.0" x2="350.0" y2="900.0" style="stroke:rgb(0,0,0);stroke-width:2.0" />
<line x1="300.0" y1="1000.0" x2="350.0" y2="1000.0" style="stroke:rgb(0,0,0);stroke-width:2.0" />
<line x1="350.0" y1="50.0" x2="400.0" y2="50.0" style="stroke:rgb(0,0,0);stroke-width:2.0" />
<line x1="350.0" y1="100.0" x2="400.0" y2="100.0" style="stroke:rgb(0,0,0);stroke-width:2.0" />
<line x1="350.0" y1="150.0" x2="400.0" y2="150.0" style="stroke:rgb(0,0,0);stroke-width:2.0" />
<line x1="350.0" y1="250.0" x2="400.0" y2="250.0" style="stroke:rgb(0,0,0);stroke-width:2.0" />
<line x1="400.0" y1="200.0" x2="400.0" y2="250.0" style="stroke:rgb(0,0,0);stroke-width:2.0" />
<line x1="350.0" y1="300.0" x2="400.0" y2="300.0" style="stroke:rgb(0,0,0);stroke-width:2.0" />
<line x1="400.0" y1="300.0" x2="400.0" y2="350.0" style="stroke:rgb(0,0,0);stroke-width:2.0" />
<line x1="350.0" y1="400.0" x2="400.0" y2="400.0" style="stroke:rgb(0,0,0);stroke-width:2.0" />
<line x1="400.0" y1="400.0" x2="400.0" y2="450.0" style="stroke:rgb(0,0,0);stroke-width:2.0" />
<line x1="350.0" y1="500.0" x2="400.0" y2="500.0" style="stroke:rgb(0,0,0);stroke-width:2.0" />
<line x1="350.0" y1="600.0" x2="400.0" y2="600.0" style="stroke:rgb(0,0,0);stroke-width:2.0" />
<line x1="400.0" y1="600.0" x2="400.0" y2="650.0" style="stroke:rgb(0,0,0);stroke-width:2.0" />
<line x1="350.0" y1="700.0" x2="400.0" y2="700.0" style="stroke:rgb(0,0,0);stroke-width:2.0" />
<line x1="400.0" y1="650.0" x2="400.0" y2="700.0" style="stroke:rgb(0,0,0);stroke-width:2.0" />
<line x1="400.0" y1="750.0" x2="400.0" y2="800.0" style="stroke:rgb(0,0,0);stroke-width:2.0" />
<line x1="350.0" y1="850.0" x2="400.0" y2="850.0" style="stroke:rgb(0,0,0);stroke-width:2.0" />
<line x1="400.0" y1="800.0" x2="400.0" y2="850.0" style="stroke:rgb(0,0,0);stroke-width:2.0" />
<line x1="350.0" y1="950.0" x2="400.0" y2="950.0" style="stroke:rgb(0,0,0);stroke-width:2.0" />
<line x1="400.0" y1="900.0" x2="400.0" y2="950.0" style="stroke:rgb(0,0,0);stroke-width:2.0" />
<line x1="350.0" y1="1000.0" x2="400.0" y2="1000.0" style="stroke:rgb(0,0,0);stroke-width:2.0" />
<line x1="400.0" y1="100.0" x2="450.0" y2="100.0" style="stroke:rgb(0,0,0);stroke-width:2.0" />
<line x1="450.0" y1="100.0" x2="450.0" y2="150.0" style="stroke:rgb(0,0,0);stroke-width:2.0" />
<line x1="450.0" y1="150.0" x2="450.0" y2="200.0" style="stroke:rgb(0,0,0);stroke-width:2.0" />
<line x1="450.0" y1="200.0" x2="450.0" y2="250.0" style="stroke:rgb(0,0,0);stroke-width:2.0" />
<line x1="450.0" y1="250.0" x2="450.0" y2="300.0" style="stroke:rgb(0,0,0);stroke-width:2.0" />
<line x1="400.0" y1="350.0" x2="450.0" y2="350.0" style="stroke:rgb(0,0,0);stroke-width:2.0" />
<line x1="450.0" y1="400.0" x2="450.0" y2="450.0" style="stroke:rgb(0,0,0);stroke-width:2.0" />
<line x1="400.0" y1="500.0" x2="450.0" y2="500.0" style="stroke:rgb(0,0,0);stroke-width:2.0" />
<line x1="450.0" y1="450.0" x2="450.0" y2="500.0" style="stroke:rgb(0,0,0);stroke-width:2.0" />
<line x1="400.0" y1="550.0" x2="450.0" y2="550.0" style="stroke:rgb(0,0,0);stroke-width:2.0" />
<line x1="400.0" y1="650.0" x2="450.0" y2="650.0" style="stroke:rgb(0,0,0);stroke-width:2.0" />
<line x1="400.0" y1="750.0" x2="450.0" y2="750.0" style="stroke:rgb(0,0,0);stroke-width:2.0" />
<line x1="450.0" y1="700.0" x2="450.0" y2="750.0" style="stroke:rgb(0,0,0);stroke-width:2.0" />
<line x1="400.0" y1="850.0" x2="450.0" y2="850.0" style="stroke:rgb(0,0,0);stroke-width:2.0" />
<line x1="450.0" y1="850.0" x2="450.0" y2="900.0" style="stroke:rgb(0,0,0);stroke-width:2.0" />
<line x1="400.0" y1="950.0" x2="450.0" y2="950.0" style="stroke:rgb(0,0,0);stroke-width:2.0" />
<line x1="400.0" y1="1000.0" x2="450.0" y2="1000.0" style="stroke:rgb(0,0,0);stroke-width:2.0" />
<line x1="450.0" y1="50.0" x2="500.0" y2="50.0" style="stroke:rgb(0,0,0);stroke-width:2.0" />
<line x1="450.0" y1="100.0" x2="500.0" y2="100.0" style="stroke:rgb(0,0,0);stroke-width:2.0" />
<line x1="450.0" y1="250.0" x2="500.0" y2="250.0" style="stroke:rgb(0,0,0);stroke-width:2.0" />
<line x1="450.0" y1="350.0" x2="500.0" y2="350.0" style="stroke:rgb(0,0,0);stroke-width:2.0" />
<line x1="500.0" y1="300.0" x2="500.0" y2="350.0" style="stroke:rgb(0,0,0);stroke-width:2.0" />
<line x1="450.0" y1="400.0" x2="500.0" y2="400.0" style="stroke:rgb(0,0,0);stroke-width:2.0" />
<line x1="450.0" y1="500.0" x2="500.0" y2="500.0" style="stroke:rgb(0,0,0);stroke-width:2.0" />
<line x1="450.0" y1="550.0" x2="500.0" y2="550.0" style="stroke:rgb(0,0,0);stroke-width:2.0" />
<line x1="450.0" y1="600.0" x2="500.0" y2="600.0" style="stroke:rgb(0,0,0);stroke-width:2.0" />
<line x1="450.0" y1="700.0" x2="500.0" y2="700.0" style="stroke:rgb(0,0,0);stroke-width:2.0" />
<line x1="500.0" y1="650.0" x2="500.0" y2="700.0" style="stroke:rgb(0,0,0);stroke-width:2.0" />
<line x1="450.0" y1="800.0" x2="500.0" y2="800.0" style="stroke:rgb(0,0,0);stroke-width:2.0" />
<line x1="500.0" y1="750.0" x2="500.0" y2="800.0" style="stroke:rgb(0,0,0);stroke-width:2.0" />
<line x1="500.0" y1="800.0" x2="500.0" y2="850.0" style="stroke:rgb(0,0,0);stroke-width:2.0" />
<line x1="500.0" y1="850.0" x2="500.0" y2="900.0" style="stroke:rgb(0,0,0);stroke-width:2.0" />
<line x1="450.0" y1="950.0" x2="500.0" y2="950.0" style="stroke:rgb(0,0,0);stroke-width:2.0" />
<line x1="500.0" y1="900.0" x2="500.0" y2="950.0" style="stroke:rgb(0,0,0);stroke-width:2.0" />
<line x1="450.0" y1="1000.0" x2="500.0" y2="1000.0" style="stroke:rgb(0,0,0);stroke-width:2.0" />
<line x1="550.0" y1="50.0" x2="550.0" y2="100.0" style="stroke:rgb(0,0,0);stroke-width:2.0" />
<line x1="500.0" y1="150.0" x2="550.0" y2="150.0" style="stroke:rgb(0,0,0);stroke-width:2.0" />
<line x1="550.0" y1="100.0" x2="550.0" y2="150.0" style="stroke:rgb(0,0,0);stroke-width:2.0" />
<line x1="500.0" y1="200.0" x2="550.0" y2="200.0" style="stroke:rgb(0,0,0);stroke-width:2.0" />
<line x1="500.0" y1="250.0" x2="550.0" y2="250.0" style="stroke:rgb(0,0,0);stroke-width:2.0" />
<line x1="550.0" y1="300.0" x2="550.0" y2="350.0" style="stroke:rgb(0,0,0);stroke-width:2.0" />
<line x1="500.0" y1="450.0" x2="550.0" y2="450.0" style="stroke:rgb(0,0,0);stroke-width:2.0" />
<line x1="550.0" y1="400.0" x2="550.0" y2="450.0" style="stroke:rgb(0,0,0);stroke-width:2.0" />
<line x1="550.0" y1="450.0" x2="550.0" y2="500.0" style="stroke:rgb(0,0,0);stroke-width:2.0" />
<line x1="500.0" y1="550.0" x2="550.0" y2="550.0" style="stroke:rgb(0,0,0);stroke-width:2.0" />
<line x1="550.0" y1="500.0" x2="550.0" y2="550.0" style="stroke:rgb(0,0,0);stroke-width:2.0" />
<line x1="550.0" y1="550.0" x2="550.0" y2="600.0" style="stroke:rgb(0,0,0);stroke-width:2.0" />
<line x1="500.0" y1="650.0" x2="550.0" y2="650.0" style="stroke:rgb(0,0,0);stroke-width:2.0" />
<line x1="550.0" y1="600.0" x2="550.0" y2="650.0" style="stroke:rgb(0,0,0);stroke-width:2.0" />
<line x1="500.0" y1="750.0" x2="550.0" y2="750.0" style="stroke:rgb(0,0,0);stroke-width:2.0" />
<line x1="550.0" y1="800.0" x2="550.0" y2="850.0" style="stroke:rgb(0,0,0);stroke-width:2.0" />
<line x1="550.0" y1="850.0" x2="550.0" y2="900.0" style="stroke:rgb(0,0,0);stroke-width:2.0" />
<line x1="500.0" y1="1000.0" x2="550.0" y2="1000.0" style="stroke:rgb(0,0,0);stroke-width:2.0" />
<line x1="600.0" y1="50.0" x2="600.0" y2="100.0" style="stroke:rgb(0,0,0);stroke-width:2.0" />
<line x1="600.0" y1="100.0" x2="600.0" y2="150.0" style="stroke:rgb(0,0,0);stroke-width:2.0" />
<line x1="550.0" y1="200.0" x2="600.0" y2="200.0" style="stroke:rgb(0,0,0);stroke-width:2.0" />
<line x1="550.0" y1="250.0" x2="600.0" y2="250.0" style="stroke:rgb(0,0,0);stroke-width:2.0" />
<line x1="600.0" y1="250.0" x2="600.0" y2="300.0" style="stroke:rgb(0,0,0);stroke-width:2.0" />
<line x1="550.0" y1="350.0" x2="600.0" y2="350.0" style="stroke:rgb(0,0,0);stroke-width:2.0" />
<line x1="550.0" y1="400.0" x2="600.0" y2="400.0" style="stroke:rgb(0,0,0);stroke-width:2.0" />
<line x1="550.0" y1="500.0" x2="600.0" y2="500.0" style="stroke:rgb(0,0,0);stroke-width:2.0" />
<line x1="600.0" y1="550.0" x2="600.0" y2="600.0" style="stroke:rgb(0,0,0);stroke-width:2.0" />
<line x1="600.0" y1="600.0" x2="600.0" y2="650.0" style="stroke:rgb(0,0,0);stroke-width:2.0" />
<line x1="550.0" y1="700.0" x2="600.0" y2="700.0" style="stroke:rgb(0,0,0);stroke-width:2.0" />
<line x1="600.0" y1="650.0" x2="600.0" y2="700.0" style="stroke:rgb(0,0,0);stroke-width:2.0" />
<line x1="550.0" y1="750.0" x2="600.0" y2="750.0" style="stroke:rgb(0,0,0);stroke-width:2.0" />
<line x1="600.0" y1="800.0" x2="600.0" y2="850.0" style="stroke:rgb(0,0,0);stroke-width:2.0" />
<line x1="600.0" y1="850.0" x2="600.0" y2="900.0" style="stroke:rgb(0,0,0);stroke-width:2.0" />
<line x1="550.0" y1="950.0" x2="600.0" y2="950.0" style="stroke:rgb(0,0,0);stroke-width:2.0" />
<line x1="550.0" y1="1000.0" x2="600.0" y2="1000.0" style="stroke:rgb(0,0,0);stroke-width:2.0" />
<line x1="650.0" y1="0.0" x2="650.0" y2="50.0" style="stroke:rgb(0,0,0);stroke-width:2.0" />
<line x1="650.0" y1="50.0" x2="650.0" y2="100.0" style="stroke:rgb(0,0,0);stroke-width:2.0" />
<line x1="600.0" y1="150.0" x2="650.0" y2="150.0" style="stroke:rgb(0,0,0);stroke-width:2.0" />
<line x1="600.0" y1="200.0" x2="650.0" y2="200.0" style="stroke:rgb(0,0,0);stroke-width:2.0" />
<line x1="650.0" y1="200.0" x2="650.0" y2="250.0" style="stroke:rgb(0,0,0);stroke-width:2.0" />
<line x1="600.0" y1="300.0" x2="650.0" y2="300.0" style="stroke:rgb(0,0,0);stroke-width:2.0" />
<line x1="650.0" y1="300.0" x2="650.0" y2="350.0" style="stroke:rgb(0,0,0);stroke-width:2.0" />
<line x1="600.0" y1="400.0" x2="650.0" y2="400.0" style="stroke:rgb(0,0,0);stroke-width:2.0" />
<line x1="600.0" y1="450.0" x2="650.0" y2="450.0" style="stroke:rgb(0,0,0);stroke-width:2.0" />
<line x1="650.0" y1="450.0" x2="650.0" y2="500.0" style="stroke:rgb(0,0,0);stroke-width:2.0" />
<line x1="600.0" y1="550.0" x2="650.0" y2="550.0" style="stroke:rgb(0,0,0);stroke-width:2.0" />
<line x1="650.0" y1="500.0" x2="650.0" y2="550.0" style="stroke:rgb(0,0,0);stroke-width:2.0" />
<line x1="650.0" y1="600.0" x2="650.0" y2="650.0" style="stroke:rgb(0,0,0);stroke-width:2.0" />
<line x1="600.0" y1="700.0" x2="650.0" y2="700.0" style="stroke:rgb(0,0,0);stroke-width:2.0" />
<line x1="600.0" y1="800.0" x2="650.0" y2="800.0" style="stroke:rgb(0,0,0);stroke-width:2.0" />
<line x1="650.0" y1="750.0" x2="650.0" y2="800.0" style="stroke:rgb(0,0,0);stroke-width:2.0" />
<line x1="600.0" y1="900.0" x2="650.0" y2="900.0" style="stroke:rgb(0,0,0);stroke-width:2.0" />
<line x1="600.0" y1="950.0" x2="650.0" y2="950.0" style="stroke:rgb(0,0,0);stroke-width:2.0" />
<line x1="600.0" y1="1000.0" x2="650.0" y2="1000.0" style="stroke:rgb(0,0,0);stroke-width:2.0" />
<line x1="700.0" y1="0.0" x2="700.0" y2="50.0" style="stroke:rgb(0,0,0);stroke-width:2.0" />
<line x1="700.0" y1="50.0" x2="700.0" y2="100.0" style="stroke:rgb(0,0,0);stroke-width:2.0" />
<line x1="700.0" y1="100.0" x2="700.0" y2="150.0" style="stroke:rgb(0,0,0);stroke-width:2.0" />
<line x1="700.0" y1="200.0" x2="700.0" y2="250.0" style="stroke:rgb(0,0,0);stroke-width:2.0" />
<line x1="700.0" y1="250.0" x2="700.0" y2="300.0" style="stroke:rgb(0,0,0);stroke-width:2.0" />
<line x1="650.0" y1="350.0" x2="700.0" y2="350.0" style="stroke:rgb(0,0,0);stroke-width:2.0" />
<line x1="650.0" y1="400.0" x2="700.0" y2="400.0" style="stroke:rgb(0,0,0);stroke-width:2.0" />
<line x1="700.0" y1="400.0" x2="700.0" y2="450.0" style="stroke:rgb(0,0,0);stroke-width:2.0" />
<line x1="700.0" y1="500.0" x2="700.0" y2="550.0" style="stroke:rgb(0,0,0);stroke-width:2.0" />
<line x1="700.0" y1="550.0" x2="700.0" y2="600.0" style="stroke:rgb(0,0,0);stroke-width:2.0" />
<line x1="650.0" y1="650.0" x2="700.0" y2="650.0" style="stroke:rgb(0,0,0);stroke-width:2.0" />
<line x1="650.0" y1="700.0" x2="700.0" y2="700.0" style="stroke:rgb(0,0,0);stroke-width:2.0" />
<line x1="700.0" y1="700.0" x2="700.0" y2="750.0" style="stroke:rgb(0,0,0);stroke-width:2.0" />
<line x1="650.0" y1="800.0" x2="700.0" y2="800.0" style="stroke:rgb(0,0,0);stroke-width:2.0" />
<line x1="650.0" y1="850.0" x2="700.0" y2="850.0" style="stroke:rgb(0,0,0);stroke-width:2.0" />
<line x1="700.0" y1="850.0" x2="700.0" y2="900.0" style="stroke:rgb(0,0,0);stroke-width:2.0" />
<line x1="650.0" y1="950.0" x2="700.0" y2="950.0" style="stroke:rgb(0,0,0);stroke-width:2.0" />
<line x1="700.0" y1="900.0" x2="700.0" y2="950.0" style="stroke:rgb(0,0,0);stroke-width:2.0" />
<line x1="650.0" y1="1000.0" x2="700.0" y2="1000.0" style="stroke:rgb(0,0,0);stroke-width:2.0" />
<line x1="750.0" y1="100.0" x2="750.0" y2="150.0" style="stroke:rgb(0,0,0);stroke-width:2.0" />
<line x1="700.0" y1="200.0" x2="750.0" y2="200.0" style="stroke:rgb(0,0,0);stroke-width:2.0" />
<line x1="750.0" y1="150.0" x2="750.0" y2="200.0" style="stroke:rgb(0,0,0);stroke-width:2.0" />
<line x1="750.0" y1="250.0" x2="750.0" y2="300.0" style="stroke:rgb(0,0,0);stroke-width:2.0" />
<line x1="700.0" y1="350.0" x2="750.0" y2="350.0" style="stroke:rgb(0,0,0);stroke-width:2.0" />
<line x1="750.0" y1="300.0" x2="750.0" y2="350.0" style="stroke:rgb(0,0,0);stroke-width:2.0" />
<line x1="700.0" y1="400.0" x2="750.0" y2="400.0" style="stroke:rgb(0,0,0);stroke-width:2.0" />
<line x1="700.0" y1="500.0" x2="750.0" y2="500.0" style="stroke:rgb(0,0,0);stroke-width:2.0" />
<line x1="750.0" y1="450.0" x2="750.0" y2="500.0" style="stroke:rgb(0,0,0);stroke-width:2.0" />
<line x1="700.0" y1="600.0" x2="750.0" y2="600.0" style="stroke:rgb(0,0,0);stroke-width:2.0" />
<line x1="700.0" y1="650.0" x2="750.0" y2="650.0" style="stroke:rgb(0,0,0);stroke-width:2.0" />
<line x1="750.0" y1="700.0" x2="750.0" y2="750.0" style="stroke:rgb(0,0,0);stroke-width:2.0" />
<line x1="750.0" y1="750.0" x2="750.0" y2="800.0" style="stroke:rgb(0,0,0);stroke-width:2.0" />
<line x1="700.0" y1="850.0" x2="750.0" y2="850.0" style="stroke:rgb(0,0,0);stroke-width:2.0" />
<line x1="750.0" y1="800.0" x2="750.0" y2="850.0" style="stroke:rgb(0,0,0);stroke-width:2.0" />
<line x1="700.0" y1="950.0" x2="750.0" y2="950.0" style="stroke:rgb(0,0,0);stroke-width:2.0" />
<line x1="700.0" y1="1000.0" x2="750.0" y2="1000.0" style="stroke:rgb(0,0,0);stroke-width:2.0" />
<line x1="750.0" y1="50.0" x2="800.0" y2="50.0" style="stroke:rgb(0,0,0);stroke-width:2.0" />
<line x1="750.0" y1="100.0" x2="800.0" y2="100.0" style="stroke:rgb(0,0,0);stroke-width:2.0" />
<line x1="750.0" y1="250.0" x2="800.0" y2="250.0" style="stroke:rgb(0,0,0);stroke-width:2.0" />
<line x1="800.0" y1="200.0" x2="800.0" y2="250.0" style="stroke:rgb(0,0,0);stroke-width:2.0" />
<line x1="750.0" y1="350.0" x2="800.0" y2="350.0" style="stroke:rgb(0,0,0);stroke-width:2.0" />
<line x1="750.0" y1="400.0" x2="800.0" y2="400.0" style="stroke:rgb(0,0,0);stroke-width:2.0" />
<line x1="800.0" y1="400.0" x2="800.0" y2="450.0" style="stroke:rgb(0,0,0);stroke-width:2.0" />
<line x1="800.0" y1="450.0" x2="800.0" y2="500.0" style="stroke:rgb(0,0,0);stroke-width:2.0" />
<line x1="750.0" y1="550.0" x2="800.0" y2="550.0" style="stroke:rgb(0,0,0);stroke-width:2.0" />
<line x1="800.0" y1="500.0" x2="800.0" y2="550.0" style="stroke:rgb(0,0,0);stroke-width:2.0" />
<line x1="750.0" y1="600.0" x2="800.0" y2="600.0" style="stroke:rgb(0,0,0);stroke-width:2.0" />
<line x1="750.0" y1="650.0" x2="800.0" y2="650.0" style="stroke:rgb(0,0,0);stroke-width:2.0" />
<line x1="800.0" y1="700.0" x2="800.0" y2="750.0" style="stroke:rgb(0,0,0);stroke-width:2.0" />
<line x1="800.0" y1="750.0" x2="800.0" y2="800.0" style="stroke:rgb(0,0,0);stroke-width:2.0" />
<line x1="800.0" y1="800.0" x2="800.0" y2="850.0" style="stroke:rgb(0,0,0);stroke-width:2.0" />
<line x1="750.0" y1="900.0" x2="800.0" y2="900.0" style="stroke:rgb(0,0,0);stroke-width:2.0" />
<line x1="800.0" y1="850.0" x2="800.0" y2="900.0" style="stroke:rgb(0,0,0);stroke-width:2.0" />
<line x1="750.0" y1="950.0" x2="800.0" y2="950.0" style="stroke:rgb(0,0,0);stroke-width:2.0" />
<line x1="750.0" y1="1000.0" x2="800.0" y2="1000.0" style="stroke:rgb(0,0,0);stroke-width:2.0" />
<line x1="800.0" y1="50.0" x2="850.0" y2="50.0" style="stroke:rgb(0,0,0);stroke-width:2.0" />
<line x1="850.0" y1="50.0" x2="850.0" y2="100.0" style="stroke:rgb(0,0,0);stroke-width:2.0" />
<line x1="800.0" y1="150.0" x2="850.0" y2="150.0" style="stroke:rgb(0,0,0);stroke-width:2.0" />
<line x1="850.0" y1="100.0" x2="850.0" y2="150.0" style="stroke:rgb(0,0,0);stroke-width:2.0" />
<line x1="800.0" y1="200.0" x2="850.0" y2="200.0" style="stroke:rgb(0,0,0);stroke-width:2.0" />
<line x1="800.0" y1="300.0" x2="850.0" y2="300.0" style="stroke:rgb(0,0,0);stroke-width:2.0" />
<line x1="850.0" y1="250.0" x2="850.0" y2="300.0" style="stroke:rgb(0,0,0);stroke-width:2.0" />
<line x1="850.0" y1="300.0" x2="850.0" y2="350.0" style="stroke:rgb(0,0,0);stroke-width:2.0" />
<line x1="800.0" y1="400.0" x2="850.0" y2="400.0" style="stroke:rgb(0,0,0);stroke-width:2.0" />
<line x1="850.0" y1="350.0" x2="850.0" y2="400.0" style="stroke:rgb(0,0,0);stroke-width:2.0" />
<line x1="800.0" y1="550.0" x2="850.0" y2="550.0" style="stroke:rgb(0,0,0);stroke-width:2.0" />
<line x1="850.0" y1="550.0" x2="850.0" y2="600.0" style="stroke:rgb(0,0,0);stroke-width:2.0" />
<line x1="800.0" y1="650.0" x2="850.0" y2="650.0" style="stroke:rgb(0,0,0);stroke-width:2.0" />
<line x1="850.0" y1="600.0" x2="850.0" y2="650.0" style="stroke:rgb(0,0,0);stroke-width:2.0" />
<line x1="800.0" y1="700.0" x2="850.0" y2="700.0" style="stroke:rgb(0,0,0);stroke-width:2.0" />
<line x1="850.0" y1="750.0" x2="850.0" y2="800.0" style="stroke:rgb(0,0,0);stroke-width:2.0" />
<line x1="850.0" y1="800.0" x2="850.0" y2="850.0" style="stroke:rgb(0,0,0);stroke-width:2.0" />
<line x1="800.0" y1="900.0" x2="850.0" y2="900.0" style="stroke:rgb(0,0,0);stroke-width:2.0" />
<line x1="800.0" y1="950.0" x2="850.0" y2="950.0" style="stroke:rgb(0,0,0);stroke-width:2.0" />
<line x1="800.0" y1="1000.0" x2="850.0" y2="1000.0" style="stroke:rgb(0,0,0);stroke-width:2.0" />
<line x1="850.0" y1="150.0" x2="900.0" y2="150.0" style="stroke:rgb(0,0,0);stroke-width:2.0" />
<line x1="900.0" y1="150.0" x2="900.0" y2="200.0" style="stroke:rgb(0,0,0);stroke-width:2.0" />
<line x1="900.0" y1="200.0" x2="900.0" y2="250.0" style="stroke:rgb(0,0,0);stroke-width:2.0" />
<line x1="900.0" y1="250.0" x2="900.0" y2="300.0" style="stroke:rgb(0,0,0);stroke-width:2.0" />
<line x1="900.0" y1="350.0" x2="900.0" y2="400.0" style="stroke:rgb(0,0,0);stroke-width:2.0" />
<line x1="850.0" y1="450.0" x2="900.0" y2="450.0" style="stroke:rgb(0,0,0);stroke-width:2.0" />
<line x1="900.0" y1="400.0" x2="900.0" y2="450.0" style="stroke:rgb(0,0,0);stroke-width:2.0" />
<line x1="850.0" y1="500.0" x2="900.0" y2="500.0" style="stroke:rgb(0,0,0);stroke-width:2.0" />
<line x1="900.0" y1="500.0" x2="900.0" y2="550.0" style="stroke:rgb(0,0,0);stroke-width:2.0" />
<line x1="900.0" y1="600.0" x2="900.0" y2="650.0" style="stroke:rgb(0,0,0);stroke-width:2.0" />
<line x1="850.0" y1="700.0" x2="900.0" y2="700.0" style="stroke:rgb(0,0,0);stroke-width:2.0" />
<line x1="900.0" y1="750.0" x2="900.0" y2="800.0" style="stroke:rgb(0,0,0);stroke-width:2.0" />
<line x1="850.0" y1="850.0" x2="900.0" y2="850.0" style="stroke:rgb(0,0,0);stroke-width:2.0" />
<line x1="900.0" y1="850.0" x2="900.0" y2="900.0" style="stroke:rgb(0,0,0);stroke-width:2.0" />
<line x1="850.0" y1="950.0" x2="900.0" y2="950.0" style="stroke:rgb(0,0,0);stroke-width:2.0" />
<line x1="900.0" y1="900.0" x2="900.0" y2="950.0" style="stroke:rgb(0,0,0);stroke-width:2.0" />
<line x1="850.0" y1="1000.0" x2="900.0" y2="1000.0" style="stroke:rgb(0,0,0);stroke-width:2.0" />
<line x1="900.0" y1="50.0" x2="950.0" y2="50.0" style="stroke:rgb(0,0,0);stroke-width:2.0" />
<line x1="900.0" y1="100.0" x2="950.0" y2="100.0" style="stroke:rgb(0,0,0);stroke-width:2.0" />
<line x1="950.0" y1="100.0" x2="950.0" y2="150.0" style="stroke:rgb(0,0,0);stroke-width:2.0" />
<line x1="900.0" y1="200.0" x2="950.0" y2="200.0" style="stroke:rgb(0,0,0);stroke-width:2.0" />
<line x1="950.0" y1="250.0" x2="950.0" y2="300.0" style="stroke:rgb(0,0,0);stroke-width:2.0" />
<line x1="900.0" y1="350.0" x2="950.0" y2="350.0" style="stroke:rgb(0,0,0);stroke-width:2.0" />
<line x1="950.0" y1="300.0" x2="950.0" y2="350.0" style="stroke:rgb(0,0,0);stroke-width:2.0" />
<line x1="950.0" y1="400.0" x2="950.0" y2="450.0" style="stroke:rgb(0,0,0);stroke-width:2.0" />
<line x1="950.0" y1="450.0" x2="950.0" y2="500.0" style="stroke:rgb(0,0,0);stroke-width:2.0" />
<line x1="900.0" y1="550.0" x2="950.0" y2="550.0" style="stroke:rgb(0,0,0);stroke-width:2.0" />
<line x1="950.0" y1="550.0" x2="950.0" y2="600.0" style="stroke:rgb(0,0,0);stroke-width:2.0" />
<line x1="900.0" y1="650.0" x2="950.0" y2="650.0" style="stroke:rgb(0,0,0);stroke-width:2.0" />
<line x1="900.0" y1="700.0" x2="950.0" y2="700.0" style="stroke:rgb(0,0,0);stroke-width:2.0" />
<line x1="950.0" y1="700.0" x2="950.0" y2="750.0" style="stroke:rgb(0,0,0);stroke-width:2.0" />
<line x1="900.0" y1="800.0" x2="950.0" y2="800.0" style="stroke:rgb(0,0,0);stroke-width:2.0" />
<line x1="950.0" y1="850.0" x2="950.0" y2="900.0" style="stroke:rgb(0,0,0);stroke-width:2.0" />
<line x1="900.0" y1="950.0" x2="950.0" y2="950.0" style="stroke:rgb(0,0,0);stroke-width:2.0" />
<line x1="900.0" y1="1000.0" x2="950.0" y2="1000.0" style="stroke:rgb(0,0,0);stroke-width:2.0" />
<line x1="1000.0" y1="0.0" x2="1000.0" y2="50.0" style="stroke:rgb(0,0,0);stroke-width:2.0" />
<line x1="1000.0" y1="50.0" x2="1000.0" y2="100.0" style="stroke:rgb(0,0,0);stroke-width:2.0" />
<line x1="1000.0" y1="100.0" x2="1000.0" y2="150.0" style="stroke:rgb(0,0,0);stroke-width:2.0" />
<line x1="1000.0" y1="150.0" x2="1000.0" y2="200.0" style="stroke:rgb(0,0,0);stroke-width:2.0" />
<line x1="1000.0" y1="200.0" x2="1000.0" y2="250.0" style="stroke:rgb(0,0,0);stroke-width:2.0" />
<line x1="1000.0" y1="250.0" x2="1000.0" y2="300.0" style="stroke:rgb(0,0,0);stroke-width:2.0" />
<line x1="1000.0" y1="300.0" x2="1000.0" y2="350.0" style="stroke:rgb(0,0,0);stroke-width:2.0" />
<line x1="1000.0" y1="350.0" x2="1000.0" y2="400.0" style="stroke:rgb(0,0,0);stroke-width:2.0" />
<line x1="1000.0" y1="400.0" x2="1000.0" y2="450.0" style="stroke:rgb(0,0,0);stroke-width:2.0" />
<line x1="1000.0" y1="450.0" x2="1000.0" y2="500.0" style="stroke:rgb(0,0,0);stroke-width:2.0" />
<line x1="1000.0" y1="500.0" x2="1000.0" y2="550.0" style="stroke:rgb(0,0,0);stroke-width:2.0" />
<line x1="1000.0" y1="550.0" x2="1000.0" y2="600.0" style="stroke:rgb(0,0,0);stroke-width:2.0" />
<line x1="1000.0" y1="600.0" x2="1000.0" y2="650.0" style="stroke:rgb(0,0,0);stroke-width:2.0" />
<line x1="1000.0" y1="650.0" x2="1000.0" y2="700.0" style="stroke:rgb(0,0,0);stroke-width:2.0" />
<line x1="1000.0" y1="700.0" x2="1000.0" y2="750.0" style="stroke:rgb(0,0,0);stroke-width:2.0" />
<line x1="1000.0" y1="750.0" x2="1000.0" y2="800.0" style="stroke:rgb(0,0,0);stroke-width:2.0" />
<line x1="1000.0" y1="800.0" x2="1000.0" y2="850.0" style="stroke:rgb(0,0,0);stroke-width:2.0" />
<line x1="1000.0" y1="850.0" x2="1000.0" y2="900.0" style="stroke:rgb(0,0,0);stroke-width:2.0" />
<line x1="1000.0" y1="900.0" x2="1000.0" y2="950.0" style="stroke:rgb(0,0,0);stroke-width:2.0" />
<line x1="950.0" y1="1000.0" x2="1000.0" y2="1000.0" style="stroke:rgb(0,0,0);stroke-width:2.0" />
<line x1="1000.0" y1="950.0" x2="1000.0" y2="1000.0" style="stroke:rgb(0,0,0);stroke-width:2.0" />
<line x1="0.0" y1="0.0" x2="1000.0" y2="0.0" style="stroke:rgb(0,0,0);stroke-width:2.0" />
<line x1="0.0" y1="0.0" x2="0.0" y2="1000.0" style="stroke:rgb(0,0,0);stroke-width:2.0" />
<line x1="0.0" y1="1000.0" x2="1000.0" y2="1000.0" style="stroke:rgb(0,0,0);stroke-width:2.0" />
<line x1="1000.0" y1="0.0" x2="1000.0" y2="1000.0" style="stroke:rgb(0,0,0);stroke-width:2.0" />
<circle cx="25.0" cy="25.0" r="20.0" style="stroke:rgb(255,0,0);stroke-width:3.0" />
<circle cx="975.0" cy="975.0" r="20.0" style="stroke:rgb(255,0,0);stroke-width:3.0" />
</svg>
