<?xml version="1.0" standalone="no"?>
<!DOCTYPE svg PUBLIC "-//W3C//DTD SVG 1.1//EN" 
  "http://www.w3.org/Graphics/SVG/1.1/DTD/svg11.dtd">
<svg xmlns="http://www.w3.org/2000/svg" height="1000" width="1000">
<line x1="0" y1="500" x2="1000" y2="500" style="stroke:rgb(0,0,0);stroke-width:3" />
<line x1="500" y1="0" x2="500" y2="1000" style="stroke:rgb(0,0,0);stroke-width:3" />
<line x1="0" y1="500" x2="500" y2="500" style="stroke:rgb(0,0,0);stroke-width:2" />
<line x1="1000" y1="500" x2="500" y2="500" style="stroke:rgb(0,0,0);stroke-width:2" />
<line x1="0" y1="500" x2="500" y2="500" style="stroke:rgb(0,0,0);stroke-width:2" />
<line x1="1000" y1="500" x2="500" y2="500" style="stroke:rgb(0,0,0);stroke-width:2" />
<line x1="25" y1="500" x2="500" y2="525" style="stroke:rgb(0,0,0);stroke-width:2" />
<line x1="975" y1="500" x2="500" y2="525" style="stroke:rgb(0,0,0);stroke-width:2" />
<line x1="25" y1="500" x2="500" y2="475" style="stroke:rgb(0,0,0);stroke-width:2" />
<line x1="975" y1="500" x2="500" y2="475" style="stroke:rgb(0,0,0);stroke-width:2" />
<line x1="50" y1="500" x2="500" y2="550" style="stroke:rgb(0,0,0);stroke-width:2" />
<line x1="950" y1="500" x2="500" y2="550" style="stroke:rgb(0,0,0);stroke-width:2" />
<line x1="50" y1="500" x2="500" y2="450" style="stroke:rgb(0,0,0);stroke-width:2" />
<line x1="950" y1="500" x2="500" y2="450" style="stroke:rgb(0,0,0);stroke-width:2" />
<line x1="75" y1="500" x2="500" y2="575" style="stroke:rgb(0,0,0);stroke-width:2" />
<line x1="925" y1="500" x2="500" y2="575" style="stroke:rgb(0,0,0);stroke-width:2" />
<line x1="75" y1="500" x2="500" y2="425" style="stroke:rgb(0,0,0);stroke-width:2" />
<line x1="925" y1="500" x2="500" y2="425" style="stroke:rgb(0,0,0);stroke-width:2" />
<line x1="100" y1="500" x2="500" y2="600" style="stroke:rgb(0,0,0);stroke-width:2" />
<line x1="900" y1="500" x2="500" y2="600" style="stroke:rgb(0,0,0);stroke-width:2" />
<line x1="100" y1="500" x2="500" y2="400" style="stroke:rgb(0,0,0);stroke-width:2" />
<line x1="900" y1="500" x2="500" y2="400" style="stroke:rgb(0,0,0);stroke-width:2" />
<line x1="125" y1="500" x2="500" y2="625" style="stroke:rgb(0,0,0);stroke-width:2" />
<line x1="875" y1="500" x2="500" y2="625" style="stroke:rgb(0,0,0);stroke-width:2" />
<line x1="125" y1="500" x2="500" y2="375" style="stroke:rgb(0,0,0);stroke-width:2" />
<line x1="875" y1="500" x2="500" y2="375" style="stroke:rgb(0,0,0);stroke-width:2" />
<line x1="150" y1="500" x2="500" y2="650" style="stroke:rgb(0,0,0);stroke-width:2" />
<line x1="850" y1="500" x2="500" y2="650" style="stroke:rgb(0,0,0);stroke-width:2" />
<line x1="150" y1="500" x2="500" y2="350" style="stroke:rgb(0,0,0);stroke-width:2" />
<line x1="850" y1="500" x2="500" y2="350" style="stroke:rgb(0,0,0);stroke-width:2" />
<line x1="175" y1="500" x2="500" y2="675" style="stroke:rgb(0,0,0);stroke-width:2" />
<line x1="825" y1="500" x2="500" y2="675" style="stroke:rgb(0,0,0);stroke-width:2" />
<line x1="175" y1="500" x2="500" y2="325" style="stroke:rgb(0,0,0);stroke-width:2" />
<line x1="825" y1="500" x2="500" y2="325" style="stroke:rgb(0,0,0);stroke-width:2" />
<line x1="200" y1="500" x2="500" y2="700" style="stroke:rgb(0,0,0);stroke-width:2" />
<line x1="800" y1="500" x2="500" y2="700" style="stroke:rgb(0,0,0);stroke-width:2" />
<line x1="200" y1="500" x2="500" y2="300" style="stroke:rgb(0,0,0);stroke-width:2" />
<line x1="800" y1="500" x2="500" y2="300" style="stroke:rgb(0,0,0);stroke-width:2" />
<line x1="225" y1="500" x2="500" y2="725" style="stroke:rgb(0,0,0);stroke-width:2" />
<line x1="775" y1="500" x2="500" y2="725" style="stroke:rgb(0,0,0);stroke-width:2" />
<line x1="225" y1="500" x2="500" y2="275" style="stroke:rgb(0,0,0);stroke-width:2" />
<line x1="775" y1="500" x2="500" y2="275" style="stroke:rgb(0,0,0);stroke-width:2" />
<line x1="250" y1="500" x2="500" y2="750" style="stroke:rgb(0,0,0);stroke-width:2" />
<line x1="750" y1="500" x2="500" y2="750" style="stroke:rgb(0,0,0);stroke-width:2" />
<line x1="250" y1="500" x2="500" y2="250" style="stroke:rgb(0,0,0);stroke-width:2" />
<line x1="750" y1="500" x2="500" y2="250" style="stroke:rgb(0,0,0);stroke-width:2" />
<line x1="275" y1="500" x2="500" y2="775" style="stroke:rgb(0,0,0);stroke-width:2" />
<line x1="725" y1="500" x2="500" y2="775" style="stroke:rgb(0,0,0);stroke-width:2" />
<line x1="275" y1="500" x2="500" y2="225" style="stroke:rgb(0,0,0);stroke-width:2" />
<line x1="725" y1="500" x2="500" y2="225" style="stroke:rgb(0,0,0);stroke-width:2" />
<line x1="300" y1="500" x2="500" y2="800" style="stroke:rgb(0,0,0);stroke-width:2" />
<line x1="700" y1="500" x2="500" y2="800" style="stroke:rgb(0,0,0);stroke-width:2" />
<line x1="300" y1="500" x2="500" y2="200" style="stroke:rgb(0,0,0);stroke-width:2" />
<line x1="700" y1="500" x2="500" y2="200" style="stroke:rgb(0,0,0);stroke-width:2" />
<line x1="325" y1="500" x2="500" y2="825" style="stroke:rgb(0,0,0);stroke-width:2" />
<line x1="675" y1="500" x2="500" y2="825" style="stroke:rgb(0,0,0);stroke-width:2" />
<line x1="325" y1="500" x2="500" y2="175" style="stroke:rgb(0,0,0);stroke-width:2" />
<line x1="675" y1="500" x2="500" y2="175" style="stroke:rgb(0,0,0);stroke-width:2" />
<line x1="350" y1="500" x2="500" y2="850" style="stroke:rgb(0,0,0);stroke-width:2" />
<line x1="650" y1="500" x2="500" y2="850" style="stroke:rgb(0,0,0);stroke-width:2" />
<line x1="350" y1="500" x2="500" y2="150" style="stroke:rgb(0,0,0);stroke-width:2" />
<line x1="650" y1="500" x2="500" y2="150" style="stroke:rgb(0,0,0);stroke-width:2" />
<line x1="375" y1="500" x2="500" y2="875" style="stroke:rgb(0,0,0);stroke-width:2" />
<line x1="625" y1="500" x2="500" y2="875" style="stroke:rgb(0,0,0);stroke-width:2" />
<line x1="375" y1="500" x2="500" y2="125" style="stroke:rgb(0,0,0);stroke-width:2" />
<line x1="625" y1="500" x2="500" y2="125" style="stroke:rgb(0,0,0);stroke-width:2" />
<line x1="400" y1="500" x2="500" y2="900" style="stroke:rgb(0,0,0);stroke-width:2" />
<line x1="600" y1="500" x2="500" y2="900" style="stroke:rgb(0,0,0);stroke-width:2" />
<line x1="400" y1="500" x2="500" y2="100" style="stroke:rgb(0,0,0);stroke-width:2" />
<line x1="600" y1="500" x2="500" y2="100" style="stroke:rgb(0,0,0);stroke-width:2" />
<line x1="425" y1="500" x2="500" y2="925" style="stroke:rgb(0,0,0);stroke-width:2" />
<line x1="575" y1="500" x2="500" y2="925" style="stroke:rgb(0,0,0);stroke-width:2" />
<line x1="425" y1="500" x2="500" y2="75" style="stroke:rgb(0,0,0);stroke-width:2" />
<line x1="575" y1="500" x2="500" y2="75" style="stroke:rgb(0,0,0);stroke-width:2" />
<line x1="450" y1="500" x2="500" y2="950" style="stroke:rgb(0,0,0);stroke-width:2" />
<line x1="550" y1="500" x2="500" y2="950" style="stroke:rgb(0,0,0);stroke-width:2" />
<line x1="450" y1="500" x2="500" y2="50" style="stroke:rgb(0,0,0);stroke-width:2" />
<line x1="550" y1="500" x2="500" y2="50" style="stroke:rgb(0,0,0);stroke-width:2" />
<line x1="475" y1="500" x2="500" y2="975" style="stroke:rgb(0,0,0);stroke-width:2" />
<line x1="525" y1="500" x2="500" y2="975" style="stroke:rgb(0,0,0);stroke-width:2" />
<line x1="475" y1="500" x2="500" y2="25" style="stroke:rgb(0,0,0);stroke-width:2" />
<line x1="525" y1="500" x2="500" y2="25" style="stroke:rgb(0,0,0);stroke-width:2" />
</svg>
