<?xml version="1.0" standalone="no"?>
<!DOCTYPE svg PUBLIC "-//W3C//DTD SVG 1.1//EN" 
  "http://www.w3.org/Graphics/SVG/1.1/DTD/svg11.dtd">
<svg xmlns="http://www.w3.org/2000/svg" height="1000" width="1000">
<line x1="500.0" y1="500.0" x2="600.0" y2="500.0" style="stroke:rgb(0,0,0);stroke-width:1.0" />
<line x1="600.0" y1="500.0" x2="600.0" y2="400.0" style="stroke:rgb(0,0,0);stroke-width:1.0" />
<line x1="600.0" y1="400.0" x2="500.0" y2="400.0" style="stroke:rgb(0,0,0);stroke-width:1.0" />
<line x1="500.0" y1="400.0" x2="500.0" y2="500.0" style="stroke:rgb(0,0,0);stroke-width:1.0" />
<line x1="508.93053099090486" y1="491.54449195964617" x2="612.2967192773548" y2="529.1667077254698" style="stroke:rgb(0,0,0);stroke-width:1.0" />
<line x1="612.2967192773548" y1="529.1667077254698" x2="649.9189350431784" y2="425.8005194390198" style="stroke:rgb(0,0,0);stroke-width:1.0" />
<line x1="649.9189350431784" y1="425.8005194390198" x2="546.5527467567284" y2="388.17830367319624" style="stroke:rgb(0,0,0);stroke-width:1.0" />
<line x1="546.5527467567284" y1="388.17830367319624" x2="508.93053099090486" y2="491.54449195964617" style="stroke:rgb(0,0,0);stroke-width:1.0" />
<line x1="521.3428299489818" y1="486.1642192365101" x2="614.0342075663782" y2="563.9415200085814" style="stroke:rgb(0,0,0);stroke-width:1.0" />
<line x1="614.0342075663782" y1="563.9415200085814" x2="691.8115083384495" y2="471.25014239118497" style="stroke:rgb(0,0,0);stroke-width:1.0" />
<line x1="691.8115083384495" y1="471.25014239118497" x2="599.1201307210531" y2="393.4728416191137" style="stroke:rgb(0,0,0);stroke-width:1.0" />
<line x1="599.1201307210531" y1="393.4728416191137" x2="521.3428299489818" y2="486.1642192365101" style="stroke:rgb(0,0,0);stroke-width:1.0" />
<line x1="536.1971280733527" y1="485.27261829869553" x2="602.7471280733528" y2="600.5405995424044" style="stroke:rgb(0,0,0);stroke-width:1.0" />
<line x1="602.7471280733528" y1="600.5405995424044" x2="718.0151093170616" y2="533.9905995424043" style="stroke:rgb(0,0,0);stroke-width:1.0" />
<line x1="718.0151093170616" y1="533.9905995424043" x2="651.4651093170615" y2="418.72261829869547" style="stroke:rgb(0,0,0);stroke-width:1.0" />
<line x1="651.4651093170615" y1="418.72261829869547" x2="536.1971280733527" y2="485.27261829869553" style="stroke:rgb(0,0,0);stroke-width:1.0" />
<line x1="551.8868898698151" y1="489.9395204853999" x2="577.3107195620305" y2="634.1252236039173" style="stroke:rgb(0,0,0);stroke-width:1.0" />
<line x1="577.3107195620305" y1="634.1252236039173" x2="721.496422680548" y2="608.701393911702" style="stroke:rgb(0,0,0);stroke-width:1.0" />
<line x1="721.496422680548" y1="608.701393911702" x2="696.0725929883328" y2="464.51569079318455" style="stroke:rgb(0,0,0);stroke-width:1.0" />
<line x1="696.0725929883328" y1="464.51569079318455" x2="551.8868898698151" y2="489.9395204853999" style="stroke:rgb(0,0,0);stroke-width:1.0" />
<line x1="566.3490065797803" y1="500.66635542306204" x2="538.3827939183435" y2="659.2706288534314" style="stroke:rgb(0,0,0);stroke-width:1.0" />
<line x1="538.3827939183435" y1="659.2706288534314" x2="696.9870673487128" y2="687.236841514868" style="stroke:rgb(0,0,0);stroke-width:1.0" />
<line x1="696.9870673487128" y1="687.236841514868" x2="724.9532800101497" y2="528.6325680844989" style="stroke:rgb(0,0,0);stroke-width:1.0" />
<line x1="724.9532800101497" y1="528.6325680844989" x2="566.3490065797803" y2="500.66635542306204" style="stroke:rgb(0,0,0);stroke-width:1.0" />
<line x1="577.262272383318" y1="517.1952445748309" x2="488.6842223833179" y2="670.6169276102075" style="stroke:rgb(0,0,0);stroke-width:1.0" />
<line x1="488.6842223833179" y1="670.6169276102075" x2="642.1059054186945" y2="759.1949776102075" style="stroke:rgb(0,0,0);stroke-width:1.0" />
<line x1="642.1059054186945" y1="759.1949776102075" x2="730.6839554186946" y2="605.773294574831" style="stroke:rgb(0,0,0);stroke-width:1.0" />
<line x1="730.6839554186946" y1="605.773294574831" x2="577.262272383318" y2="517.1952445748309" style="stroke:rgb(0,0,0);stroke-width:1.0" />
<line x1="582.3243649216312" y1="538.3863396648117" x2="433.043974355038" y2="663.6474603312404" style="stroke:rgb(0,0,0);stroke-width:1.0" />
<line x1="433.043974355038" y1="663.6474603312404" x2="558.3050950214667" y2="812.9278508978334" style="stroke:rgb(0,0,0);stroke-width:1.0" />
<line x1="558.3050950214667" y1="812.9278508978334" x2="707.5854855880599" y2="687.6667302314048" style="stroke:rgb(0,0,0);stroke-width:1.0" />
<line x1="707.5854855880599" y1="687.6667302314048" x2="582.3243649216312" y2="538.3863396648117" style="stroke:rgb(0,0,0);stroke-width:1.0" />
<line x1="579.5842975081249" y1="562.1952382925116" x2="378.1528388325" y2="635.5102934952619" style="stroke:rgb(0,0,0);stroke-width:1.0" />
<line x1="378.1528388325" y1="635.5102934952619" x2="451.4678940352502" y2="836.9417521708867" style="stroke:rgb(0,0,0);stroke-width:1.0" />
<line x1="451.4678940352502" y1="836.9417521708867" x2="652.8993527108751" y2="763.6266969681367" style="stroke:rgb(0,0,0);stroke-width:1.0" />
<line x1="652.8993527108751" y1="763.6266969681367" x2="579.5842975081249" y2="562.1952382925116" style="stroke:rgb(0,0,0);stroke-width:1.0" />
<line x1="567.7945590531249" y1="585.7747152025116" x2="331.9997899531245" y2="585.7747152025119" style="stroke:rgb(0,0,0);stroke-width:1.0" />
<line x1="331.9997899531245" y1="585.7747152025119" x2="331.9997899531246" y2="821.5694843025123" style="stroke:rgb(0,0,0);stroke-width:1.0" />
<line x1="331.9997899531246" y1="821.5694843025123" x2="567.794559053125" y2="821.5694843025121" style="stroke:rgb(0,0,0);stroke-width:1.0" />
<line x1="567.794559053125" y1="821.5694843025121" x2="567.7945590531249" y2="585.7747152025116" style="stroke:rgb(0,0,0);stroke-width:1.0" />
<line x1="546.7368341237169" y1="605.712360862496" x2="303.0047691262104" y2="517.0011440671685" style="stroke:rgb(0,0,0);stroke-width:1.0" />
<line x1="303.0047691262104" y1="517.0011440671685" x2="214.29355233088296" y2="760.7332090646748" style="stroke:rgb(0,0,0);stroke-width:1.0" />
<line x1="214.29355233088296" y1="760.7332090646748" x2="458.02561732838933" y2="849.4444258600024" style="stroke:rgb(0,0,0);stroke-width:1.0" />
<line x1="458.02561732838933" y1="849.4444258600024" x2="546.7368341237169" y2="605.712360862496" style="stroke:rgb(0,0,0);stroke-width:1.0" />
</svg>
