<?xml version="1.0" standalone="no"?>
<!DOCTYPE svg PUBLIC "-//W3C//DTD SVG 1.1//EN" 
  "http://www.w3.org/Graphics/SVG/1.1/DTD/svg11.dtd">
<svg xmlns="http://www.w3.org/2000/svg" height="1000" width="1000">
<line x1="0.0" y1="0.0" x2="10.0" y2="0.0" style="stroke:rgb(0,0,0);stroke-width:2.0" />
<line x1="10.0" y1="0.0" x2="10.0" y2="10.0" style="stroke:rgb(0,0,0);stroke-width:2.0" />
<line x1="10.0" y1="10.0" x2="0.0" y2="10.0" style="stroke:rgb(0,0,0);stroke-width:2.0" />
<line x1="0.0" y1="10.0" x2="0.0" y2="0.0" style="stroke:rgb(0,0,0);stroke-width:2.0" />
<line x1="1.4060878377401402" y1="12.21772961693617" x2="11.742706666385134" y2="15.979951193518527" style="stroke:rgb(0,0,0);stroke-width:2.0" />
<line x1="11.742706666385134" y1="15.979951193518527" x2="7.980485089802778" y2="26.316570022163518" style="stroke:rgb(0,0,0);stroke-width:2.0" />
<line x1="7.980485089802778" y1="26.316570022163518" x2="-2.356133738842216" y2="22.554348445581162" style="stroke:rgb(0,0,0);stroke-width:2.0" />
<line x1="-2.356133738842216" y1="22.554348445581162" x2="1.4060878377401402" y2="12.21772961693617" style="stroke:rgb(0,0,0);stroke-width:2.0" />
<line x1="-1.737073358597168" y1="25.37573241727937" x2="7.532064403142469" y2="33.1534624944865" style="stroke:rgb(0,0,0);stroke-width:2.0" />
<line x1="7.532064403142469" y1="33.1534624944865" x2="-0.24566567406465678" y2="42.42260025622613" style="stroke:rgb(0,0,0);stroke-width:2.0" />
<line x1="-0.24566567406465678" y1="42.42260025622613" x2="-9.514803435804295" y2="34.64487017901901" style="stroke:rgb(0,0,0);stroke-width:2.0" />
<line x1="-9.514803435804295" y1="34.64487017901901" x2="-1.737073358597168" y2="25.37573241727937" style="stroke:rgb(0,0,0);stroke-width:2.0" />
<line x1="-9.936371482968049" y1="37.794131479464816" x2="-3.2813714829680447" y2="49.320929603835694" style="stroke:rgb(0,0,0);stroke-width:2.0" />
<line x1="-3.2813714829680447" y1="49.320929603835694" x2="-14.808169607338927" y2="55.9759296038357" style="stroke:rgb(0,0,0);stroke-width:2.0" />
<line x1="-14.808169607338927" y1="55.9759296038357" x2="-21.46316960733893" y2="44.44913147946482" style="stroke:rgb(0,0,0);stroke-width:2.0" />
<line x1="-21.46316960733893" y1="44.44913147946482" x2="-9.936371482968049" y2="37.794131479464816" style="stroke:rgb(0,0,0);stroke-width:2.0" />
<line x1="-23.08375031020903" y1="47.54579960461222" x2="-20.541367340987495" y2="61.96436991646396" style="stroke:rgb(0,0,0);stroke-width:2.0" />
<line x1="-20.541367340987495" y1="61.96436991646396" x2="-34.95993765283925" y2="64.5067528856855" style="stroke:rgb(0,0,0);stroke-width:2.0" />
<line x1="-34.95993765283925" y1="64.5067528856855" x2="-37.50232062206077" y2="50.08818257383375" style="stroke:rgb(0,0,0);stroke-width:2.0" />
<line x1="-37.50232062206077" y1="50.08818257383375" x2="-23.08375031020903" y2="47.54579960461222" style="stroke:rgb(0,0,0);stroke-width:2.0" />
<line x1="-40.342488286317796" y1="52.679392009987005" x2="-43.13910955246147" y2="68.53981935302393" style="stroke:rgb(0,0,0);stroke-width:2.0" />
<line x1="-43.13910955246147" y1="68.53981935302393" x2="-58.999536895498416" y2="65.74319808688026" style="stroke:rgb(0,0,0);stroke-width:2.0" />
<line x1="-58.999536895498416" y1="65.74319808688026" x2="-56.20291562935472" y2="49.882770743843324" style="stroke:rgb(0,0,0);stroke-width:2.0" />
<line x1="-56.20291562935472" y1="49.882770743843324" x2="-40.342488286317796" y2="52.679392009987005" style="stroke:rgb(0,0,0);stroke-width:2.0" />
<line x1="-60.11355908985546" y1="51.49267116175582" x2="-68.97136408985544" y2="66.83483946529348" style="stroke:rgb(0,0,0);stroke-width:2.0" />
<line x1="-68.97136408985544" y1="66.83483946529348" x2="-84.31353239339313" y2="57.977034465293485" style="stroke:rgb(0,0,0);stroke-width:2.0" />
<line x1="-84.31353239339313" y1="57.977034465293485" x2="-75.4557273933931" y2="42.63486616175582" style="stroke:rgb(0,0,0);stroke-width:2.0" />
<line x1="-75.4557273933931" y1="42.63486616175582" x2="-60.11355908985546" y2="51.49267116175582" style="stroke:rgb(0,0,0);stroke-width:2.0" />
<line x1="-80.10369068482798" y1="42.82768813841795" x2="-95.03172974148727" y2="55.353800205060814" style="stroke:rgb(0,0,0);stroke-width:2.0" />
<line x1="-95.03172974148727" y1="55.353800205060814" x2="-107.55784180813016" y2="40.425761148401506" style="stroke:rgb(0,0,0);stroke-width:2.0" />
<line x1="-107.55784180813016" y1="40.425761148401506" x2="-92.62980275147083" y2="27.899649081758632" style="stroke:rgb(0,0,0);stroke-width:2.0" />
<line x1="-92.62980275147083" y1="27.899649081758632" x2="-80.10369068482798" y2="42.82768813841795" style="stroke:rgb(0,0,0);stroke-width:2.0" />
<line x1="-97.50676913888424" y1="26.35029503099296" x2="-117.6499150064467" y2="33.68180055126798" style="stroke:rgb(0,0,0);stroke-width:2.0" />
<line x1="-117.6499150064467" y1="33.68180055126798" x2="-124.98142052672175" y2="13.53865468370549" style="stroke:rgb(0,0,0);stroke-width:2.0" />
<line x1="-124.98142052672175" y1="13.53865468370549" x2="-104.83827465915923" y2="6.20714916343047" style="stroke:rgb(0,0,0);stroke-width:2.0" />
<line x1="-104.83827465915923" y1="6.20714916343047" x2="-97.50676913888424" y2="26.35029503099296" style="stroke:rgb(0,0,0);stroke-width:2.0" />
<line x1="-109.29650759388426" y1="2.770818120992926" x2="-132.8759845038843" y2="2.770818120992951" style="stroke:rgb(0,0,0);stroke-width:2.0" />
<line x1="-132.8759845038843" y1="2.770818120992951" x2="-132.87598450388433" y2="-20.808658789007097" style="stroke:rgb(0,0,0);stroke-width:2.0" />
<line x1="-132.87598450388433" y1="-20.808658789007097" x2="-109.29650759388424" y2="-20.808658789007104" style="stroke:rgb(0,0,0);stroke-width:2.0" />
<line x1="-109.29650759388424" y1="-20.808658789007104" x2="-109.29650759388426" y2="2.770818120992926" style="stroke:rgb(0,0,0);stroke-width:2.0" />
</svg>
