<?xml version="1.0" standalone="no"?>
<!DOCTYPE svg PUBLIC "-//W3C//DTD SVG 1.1//EN" 
  "http://www.w3.org/Graphics/SVG/1.1/DTD/svg11.dtd">
<svg xmlns="http://www.w3.org/2000/svg" height="1000" width="1000">
<circle cx="571.4285714285714" cy="679.2452830188679" r="1.0" style="stroke:rgb(255,0,0);stroke-width:1.0" />
<circle cx="57.14285714285713" cy="207.54716981132074" r="1.0" style="stroke:rgb(255,0,0);stroke-width:1.0" />
<circle cx="495.1428571428572" cy="584.9056603773585" r="1.0" style="stroke:rgb(255,0,0);stroke-width:1.0" />
<circle cx="195.1428571428571" cy="358.49056603773585" r="1.0" style="stroke:rgb(255,0,0);stroke-width:1.0" />
<circle cx="838.0000000000002" cy="792.4528301886793" r="1.0" style="stroke:rgb(255,0,0);stroke-width:1.0" />
<circle cx="366.5714285714286" cy="226.41509433962264" r="1.0" style="stroke:rgb(255,0,0);stroke-width:1.0" />
<circle cx="885.7142857142858" cy="849.0566037735849" r="1.0" style="stroke:rgb(255,0,0);stroke-width:1.0" />
<circle cx="571.4285714285714" cy="792.4528301886793" r="1.0" style="stroke:rgb(255,0,0);stroke-width:1.0" />
<circle cx="99.99999999999999" cy="150.9433962264151" r="1.0" style="stroke:rgb(255,0,0);stroke-width:1.0" />
<circle cx="785.7142857142857" cy="792.4528301886793" r="1.0" style="stroke:rgb(255,0,0);stroke-width:1.0" />
<circle cx="66.57142857142854" cy="207.54716981132074" r="1.0" style="stroke:rgb(255,0,0);stroke-width:1.0" />
<circle cx="662.0" cy="773.5849056603773" r="1.0" style="stroke:rgb(255,0,0);stroke-width:1.0" />
<circle cx="742.857142857143" cy="660.377358490566" r="1.0" style="stroke:rgb(255,0,0);stroke-width:1.0" />
<circle cx="42.85714285714284" cy="75.47169811320755" r="1.0" style="stroke:rgb(255,0,0);stroke-width:1.0" />
<circle cx="885.7142857142858" cy="754.7169811320755" r="1.0" style="stroke:rgb(255,0,0);stroke-width:1.0" />
<circle cx="161.99999999999994" cy="169.81132075471697" r="1.0" style="stroke:rgb(255,0,0);stroke-width:1.0" />
<circle cx="42.85714285714284" cy="358.49056603773585" r="1.0" style="stroke:rgb(255,0,0);stroke-width:1.0" />
<circle cx="914.2857142857142" cy="773.5849056603773" r="1.0" style="stroke:rgb(255,0,0);stroke-width:1.0" />
<circle cx="0.0" cy="169.81132075471697" r="1.0" style="stroke:rgb(255,0,0);stroke-width:1.0" />
<circle cx="757.1428571428572" cy="679.2452830188679" r="1.0" style="stroke:rgb(255,0,0);stroke-width:1.0" />
<circle cx="57.14285714285713" cy="150.9433962264151" r="1.0" style="stroke:rgb(255,0,0);stroke-width:1.0" />
<circle cx="42.85714285714284" cy="75.47169811320755" r="1.0" style="stroke:rgb(255,0,0);stroke-width:1.0" />
<circle cx="528.5714285714287" cy="660.377358490566" r="1.0" style="stroke:rgb(255,0,0);stroke-width:1.0" />
<circle cx="419.1428571428572" cy="490.5660377358491" r="1.0" style="stroke:rgb(255,0,0);stroke-width:1.0" />
<circle cx="838.0000000000002" cy="584.9056603773585" r="1.0" style="stroke:rgb(255,0,0);stroke-width:1.0" />
<circle cx="571.4285714285714" cy="754.7169811320755" r="1.0" style="stroke:rgb(255,0,0);stroke-width:1.0" />
<circle cx="104.85714285714288" cy="226.41509433962264" r="1.0" style="stroke:rgb(255,0,0);stroke-width:1.0" />
<circle cx="709.4285714285716" cy="622.6415094339623" r="1.0" style="stroke:rgb(255,0,0);stroke-width:1.0" />
<circle cx="642.8571428571429" cy="660.377358490566" r="1.0" style="stroke:rgb(255,0,0);stroke-width:1.0" />
<circle cx="809.4285714285714" cy="679.2452830188679" r="1.0" style="stroke:rgb(255,0,0);stroke-width:1.0" />
<circle cx="771.4285714285714" cy="566.0377358490566" r="1.0" style="stroke:rgb(255,0,0);stroke-width:1.0" />
<circle cx="819.1428571428571" cy="641.5094339622641" r="1.0" style="stroke:rgb(255,0,0);stroke-width:1.0" />
<circle cx="504.8571428571429" cy="433.9622641509434" r="1.0" style="stroke:rgb(255,0,0);stroke-width:1.0" />
<circle cx="695.1428571428573" cy="698.1132075471698" r="1.0" style="stroke:rgb(255,0,0);stroke-width:1.0" />
<circle cx="638.0000000000001" cy="584.9056603773585" r="1.0" style="stroke:rgb(255,0,0);stroke-width:1.0" />
<circle cx="119.14285714285711" cy="169.81132075471697" r="1.0" style="stroke:rgb(255,0,0);stroke-width:1.0" />
<circle cx="76.28571428571426" cy="94.33962264150944" r="1.0" style="stroke:rgb(255,0,0);stroke-width:1.0" />
<circle cx="923.7142857142858" cy="698.1132075471698" r="1.0" style="stroke:rgb(255,0,0);stroke-width:1.0" />
<circle cx="66.57142857142854" cy="301.8867924528302" r="1.0" style="stroke:rgb(255,0,0);stroke-width:1.0" />
<circle cx="909.4285714285717" cy="886.7924528301887" r="1.0" style="stroke:rgb(255,0,0);stroke-width:1.0" />
<circle cx="785.7142857142857" cy="698.1132075471698" r="1.0" style="stroke:rgb(255,0,0);stroke-width:1.0" />
<circle cx="80.85714285714285" cy="283.0188679245283" r="1.0" style="stroke:rgb(255,0,0);stroke-width:1.0" />
<circle cx="847.7142857142858" cy="773.5849056603773" r="1.0" style="stroke:rgb(255,0,0);stroke-width:1.0" />
<circle cx="42.85714285714284" cy="283.0188679245283" r="1.0" style="stroke:rgb(255,0,0);stroke-width:1.0" />
<circle cx="838.0000000000002" cy="566.0377358490566" r="1.0" style="stroke:rgb(255,0,0);stroke-width:1.0" />
<circle cx="490.5714285714286" cy="754.7169811320755" r="1.0" style="stroke:rgb(255,0,0);stroke-width:1.0" />
<circle cx="638.0000000000001" cy="396.22641509433964" r="1.0" style="stroke:rgb(255,0,0);stroke-width:1.0" />
<circle cx="142.85714285714286" cy="188.67924528301887" r="1.0" style="stroke:rgb(255,0,0);stroke-width:1.0" />
<circle cx="866.5714285714287" cy="735.8490566037735" r="1.0" style="stroke:rgb(255,0,0);stroke-width:1.0" />
<circle cx="114.28571428571426" cy="301.8867924528302" r="1.0" style="stroke:rgb(255,0,0);stroke-width:1.0" />
<circle cx="914.2857142857142" cy="603.7735849056604" r="1.0" style="stroke:rgb(255,0,0);stroke-width:1.0" />
<circle cx="890.2857142857144" cy="886.7924528301887" r="1.0" style="stroke:rgb(255,0,0);stroke-width:1.0" />
<circle cx="66.57142857142854" cy="207.54716981132074" r="1.0" style="stroke:rgb(255,0,0);stroke-width:1.0" />
<circle cx="923.7142857142858" cy="698.1132075471698" r="1.0" style="stroke:rgb(255,0,0);stroke-width:1.0" />
<circle cx="38.00000000000001" cy="207.54716981132074" r="1.0" style="stroke:rgb(255,0,0);stroke-width:1.0" />
<circle cx="938.0000000000001" cy="754.7169811320755" r="1.0" style="stroke:rgb(255,0,0);stroke-width:1.0" />
<circle cx="604.8571428571429" cy="528.3018867924528" r="1.0" style="stroke:rgb(255,0,0);stroke-width:1.0" />
<circle cx="19.142857142857128" cy="396.22641509433964" r="1.0" style="stroke:rgb(255,0,0);stroke-width:1.0" />
<circle cx="847.7142857142858" cy="641.5094339622641" r="1.0" style="stroke:rgb(255,0,0);stroke-width:1.0" />
<circle cx="776.2857142857143" cy="716.9811320754717" r="1.0" style="stroke:rgb(255,0,0);stroke-width:1.0" />
<circle cx="180.8571428571429" cy="301.8867924528302" r="1.0" style="stroke:rgb(255,0,0);stroke-width:1.0" />
<circle cx="828.5714285714287" cy="773.5849056603773" r="1.0" style="stroke:rgb(255,0,0);stroke-width:1.0" />
<circle cx="42.85714285714284" cy="94.33962264150944" r="1.0" style="stroke:rgb(255,0,0);stroke-width:1.0" />
<circle cx="914.2857142857142" cy="735.8490566037735" r="1.0" style="stroke:rgb(255,0,0);stroke-width:1.0" />
<circle cx="61.999999999999964" cy="320.75471698113205" r="1.0" style="stroke:rgb(255,0,0);stroke-width:1.0" />
<circle cx="800.0000000000002" cy="924.5283018867924" r="1.0" style="stroke:rgb(255,0,0);stroke-width:1.0" />
<circle cx="733.4285714285714" cy="660.377358490566" r="1.0" style="stroke:rgb(255,0,0);stroke-width:1.0" />
<circle cx="885.7142857142858" cy="660.377358490566" r="1.0" style="stroke:rgb(255,0,0);stroke-width:1.0" />
<circle cx="133.42857142857147" cy="415.0943396226415" r="1.0" style="stroke:rgb(255,0,0);stroke-width:1.0" />
<circle cx="885.7142857142858" cy="566.0377358490566" r="1.0" style="stroke:rgb(255,0,0);stroke-width:1.0" />
<circle cx="695.1428571428573" cy="735.8490566037735" r="1.0" style="stroke:rgb(255,0,0);stroke-width:1.0" />
<circle cx="104.85714285714288" cy="245.28301886792454" r="1.0" style="stroke:rgb(255,0,0);stroke-width:1.0" />
<circle cx="828.5714285714287" cy="679.2452830188679" r="1.0" style="stroke:rgb(255,0,0);stroke-width:1.0" />
<circle cx="685.7142857142858" cy="528.3018867924528" r="1.0" style="stroke:rgb(255,0,0);stroke-width:1.0" />
<circle cx="109.42857142857144" cy="358.49056603773585" r="1.0" style="stroke:rgb(255,0,0);stroke-width:1.0" />
<circle cx="990.5714285714287" cy="622.6415094339623" r="1.0" style="stroke:rgb(255,0,0);stroke-width:1.0" />
<circle cx="119.14285714285711" cy="320.75471698113205" r="1.0" style="stroke:rgb(255,0,0);stroke-width:1.0" />
<circle cx="847.7142857142858" cy="660.377358490566" r="1.0" style="stroke:rgb(255,0,0);stroke-width:1.0" />
<circle cx="652.2857142857143" cy="622.6415094339623" r="1.0" style="stroke:rgb(255,0,0);stroke-width:1.0" />
<circle cx="571.4285714285714" cy="754.7169811320755" r="1.0" style="stroke:rgb(255,0,0);stroke-width:1.0" />
<circle cx="723.7142857142858" cy="603.7735849056604" r="1.0" style="stroke:rgb(255,0,0);stroke-width:1.0" />
<circle cx="780.857142857143" cy="735.8490566037735" r="1.0" style="stroke:rgb(255,0,0);stroke-width:1.0" />
<circle cx="714.2857142857142" cy="509.4339622641509" r="1.0" style="stroke:rgb(255,0,0);stroke-width:1.0" />
<circle cx="295.14285714285717" cy="415.0943396226415" r="1.0" style="stroke:rgb(255,0,0);stroke-width:1.0" />
<circle cx="704.857142857143" cy="566.0377358490566" r="1.0" style="stroke:rgb(255,0,0);stroke-width:1.0" />
<circle cx="952.2857142857142" cy="849.0566037735849" r="1.0" style="stroke:rgb(255,0,0);stroke-width:1.0" />
<circle cx="671.4285714285716" cy="622.6415094339623" r="1.0" style="stroke:rgb(255,0,0);stroke-width:1.0" />
<circle cx="833.4285714285717" cy="698.1132075471698" r="1.0" style="stroke:rgb(255,0,0);stroke-width:1.0" />
<circle cx="161.99999999999994" cy="94.33962264150944" r="1.0" style="stroke:rgb(255,0,0);stroke-width:1.0" />
<circle cx="685.7142857142858" cy="811.3207547169811" r="1.0" style="stroke:rgb(255,0,0);stroke-width:1.0" />
<circle cx="171.42857142857147" cy="320.75471698113205" r="1.0" style="stroke:rgb(255,0,0);stroke-width:1.0" />
<circle cx="780.857142857143" cy="886.7924528301887" r="1.0" style="stroke:rgb(255,0,0);stroke-width:1.0" />
<circle cx="76.28571428571426" cy="132.0754716981132" r="1.0" style="stroke:rgb(255,0,0);stroke-width:1.0" />
<circle cx="919.1428571428572" cy="660.377358490566" r="1.0" style="stroke:rgb(255,0,0);stroke-width:1.0" />
<circle cx="66.57142857142854" cy="377.35849056603774" r="1.0" style="stroke:rgb(255,0,0);stroke-width:1.0" />
<circle cx="771.4285714285714" cy="547.1698113207547" r="1.0" style="stroke:rgb(255,0,0);stroke-width:1.0" />
<circle cx="876.2857142857142" cy="773.5849056603773" r="1.0" style="stroke:rgb(255,0,0);stroke-width:1.0" />
<circle cx="614.2857142857143" cy="603.7735849056604" r="1.0" style="stroke:rgb(255,0,0);stroke-width:1.0" />
<circle cx="76.28571428571426" cy="150.9433962264151" r="1.0" style="stroke:rgb(255,0,0);stroke-width:1.0" />
<circle cx="942.8571428571431" cy="735.8490566037735" r="1.0" style="stroke:rgb(255,0,0);stroke-width:1.0" />
<circle cx="252.28571428571428" cy="358.49056603773585" r="1.0" style="stroke:rgb(255,0,0);stroke-width:1.0" />
<circle cx="790.5714285714287" cy="849.0566037735849" r="1.0" style="stroke:rgb(255,0,0);stroke-width:1.0" />
<circle cx="142.85714285714286" cy="113.20754716981132" r="1.0" style="stroke:rgb(255,0,0);stroke-width:1.0" />
<circle cx="828.5714285714287" cy="754.7169811320755" r="1.0" style="stroke:rgb(255,0,0);stroke-width:1.0" />
<circle cx="700.0" cy="716.9811320754717" r="1.0" style="stroke:rgb(255,0,0);stroke-width:1.0" />
<circle cx="76.28571428571426" cy="75.47169811320755" r="1.0" style="stroke:rgb(255,0,0);stroke-width:1.0" />
<circle cx="885.7142857142858" cy="773.5849056603773" r="1.0" style="stroke:rgb(255,0,0);stroke-width:1.0" />
<circle cx="52.28571428571424" cy="169.81132075471697" r="1.0" style="stroke:rgb(255,0,0);stroke-width:1.0" />
<circle cx="928.5714285714286" cy="811.3207547169811" r="1.0" style="stroke:rgb(255,0,0);stroke-width:1.0" />
<circle cx="595.1428571428571" cy="716.9811320754717" r="1.0" style="stroke:rgb(255,0,0);stroke-width:1.0" />
<circle cx="895.1428571428571" cy="603.7735849056604" r="1.0" style="stroke:rgb(255,0,0);stroke-width:1.0" />
<circle cx="199.99999999999997" cy="301.8867924528302" r="1.0" style="stroke:rgb(255,0,0);stroke-width:1.0" />
<circle cx="942.8571428571431" cy="867.9245283018868" r="1.0" style="stroke:rgb(255,0,0);stroke-width:1.0" />
<circle cx="804.8571428571428" cy="679.2452830188679" r="1.0" style="stroke:rgb(255,0,0);stroke-width:1.0" />
<circle cx="28.571428571428537" cy="301.8867924528302" r="1.0" style="stroke:rgb(255,0,0);stroke-width:1.0" />
<circle cx="866.5714285714287" cy="716.9811320754717" r="1.0" style="stroke:rgb(255,0,0);stroke-width:1.0" />
<circle cx="204.85714285714292" cy="132.0754716981132" r="1.0" style="stroke:rgb(255,0,0);stroke-width:1.0" />
<circle cx="857.1428571428571" cy="792.4528301886793" r="1.0" style="stroke:rgb(255,0,0);stroke-width:1.0" />
<circle cx="61.999999999999964" cy="301.8867924528302" r="1.0" style="stroke:rgb(255,0,0);stroke-width:1.0" />
<circle cx="804.8571428571428" cy="830.188679245283" r="1.0" style="stroke:rgb(255,0,0);stroke-width:1.0" />
<circle cx="290.57142857142856" cy="188.67924528301887" r="1.0" style="stroke:rgb(255,0,0);stroke-width:1.0" />
<circle cx="704.857142857143" cy="490.5660377358491" r="1.0" style="stroke:rgb(255,0,0);stroke-width:1.0" />
<circle cx="757.1428571428572" cy="641.5094339622641" r="1.0" style="stroke:rgb(255,0,0);stroke-width:1.0" />
<circle cx="104.85714285714288" cy="245.28301886792454" r="1.0" style="stroke:rgb(255,0,0);stroke-width:1.0" />
<circle cx="857.1428571428571" cy="849.0566037735849" r="1.0" style="stroke:rgb(255,0,0);stroke-width:1.0" />
<circle cx="619.1428571428572" cy="716.9811320754717" r="1.0" style="stroke:rgb(255,0,0);stroke-width:1.0" />
<circle cx="90.57142857142857" cy="37.735849056603776" r="1.0" style="stroke:rgb(255,0,0);stroke-width:1.0" />
<circle cx="828.5714285714287" cy="735.8490566037735" r="1.0" style="stroke:rgb(255,0,0);stroke-width:1.0" />
<circle cx="190.57142857142853" cy="226.41509433962264" r="1.0" style="stroke:rgb(255,0,0);stroke-width:1.0" />
<circle cx="871.4285714285717" cy="886.7924528301887" r="1.0" style="stroke:rgb(255,0,0);stroke-width:1.0" />
<circle cx="76.28571428571426" cy="37.735849056603776" r="1.0" style="stroke:rgb(255,0,0);stroke-width:1.0" />
<circle cx="733.4285714285714" cy="754.7169811320755" r="1.0" style="stroke:rgb(255,0,0);stroke-width:1.0" />
<circle cx="342.85714285714283" cy="245.28301886792454" r="1.0" style="stroke:rgb(255,0,0);stroke-width:1.0" />
<circle cx="780.857142857143" cy="867.9245283018868" r="1.0" style="stroke:rgb(255,0,0);stroke-width:1.0" />
<circle cx="66.57142857142854" cy="56.60377358490566" r="1.0" style="stroke:rgb(255,0,0);stroke-width:1.0" />
<circle cx="795.1428571428572" cy="735.8490566037735" r="1.0" style="stroke:rgb(255,0,0);stroke-width:1.0" />
<circle cx="80.85714285714285" cy="150.9433962264151" r="1.0" style="stroke:rgb(255,0,0);stroke-width:1.0" />
<circle cx="952.2857142857142" cy="811.3207547169811" r="1.0" style="stroke:rgb(255,0,0);stroke-width:1.0" />
<circle cx="123.71428571428568" cy="188.67924528301887" r="1.0" style="stroke:rgb(255,0,0);stroke-width:1.0" />
<circle cx="609.4285714285716" cy="679.2452830188679" r="1.0" style="stroke:rgb(255,0,0);stroke-width:1.0" />
<circle cx="752.2857142857142" cy="716.9811320754717" r="1.0" style="stroke:rgb(255,0,0);stroke-width:1.0" />
<circle cx="180.8571428571429" cy="320.75471698113205" r="1.0" style="stroke:rgb(255,0,0);stroke-width:1.0" />
<circle cx="838.0000000000002" cy="735.8490566037735" r="1.0" style="stroke:rgb(255,0,0);stroke-width:1.0" />
<circle cx="919.1428571428572" cy="641.5094339622641" r="1.0" style="stroke:rgb(255,0,0);stroke-width:1.0" />
<circle cx="780.857142857143" cy="622.6415094339623" r="1.0" style="stroke:rgb(255,0,0);stroke-width:1.0" />
<circle cx="109.42857142857144" cy="301.8867924528302" r="1.0" style="stroke:rgb(255,0,0);stroke-width:1.0" />
<circle cx="866.5714285714287" cy="698.1132075471698" r="1.0" style="stroke:rgb(255,0,0);stroke-width:1.0" />
<circle cx="119.14285714285711" cy="113.20754716981132" r="1.0" style="stroke:rgb(255,0,0);stroke-width:1.0" />
<circle cx="1000.0" cy="1000.0" r="1.0" style="stroke:rgb(255,0,0);stroke-width:1.0" />
<circle cx="57.14285714285713" cy="188.67924528301887" r="1.0" style="stroke:rgb(255,0,0);stroke-width:1.0" />
<circle cx="980.8571428571431" cy="641.5094339622641" r="1.0" style="stroke:rgb(255,0,0);stroke-width:1.0" />
<circle cx="685.7142857142858" cy="641.5094339622641" r="1.0" style="stroke:rgb(255,0,0);stroke-width:1.0" />
<circle cx="228.57142857142853" cy="415.0943396226415" r="1.0" style="stroke:rgb(255,0,0);stroke-width:1.0" />
<circle cx="857.1428571428571" cy="716.9811320754717" r="1.0" style="stroke:rgb(255,0,0);stroke-width:1.0" />
<circle cx="562.0000000000001" cy="528.3018867924528" r="1.0" style="stroke:rgb(255,0,0);stroke-width:1.0" />
<circle cx="685.7142857142858" cy="509.4339622641509" r="1.0" style="stroke:rgb(255,0,0);stroke-width:1.0" />
<circle cx="828.5714285714287" cy="716.9811320754717" r="1.0" style="stroke:rgb(255,0,0);stroke-width:1.0" />
<circle cx="709.4285714285716" cy="943.3962264150944" r="1.0" style="stroke:rgb(255,0,0);stroke-width:1.0" />
<circle cx="57.14285714285713" cy="188.67924528301887" r="1.0" style="stroke:rgb(255,0,0);stroke-width:1.0" />
<circle cx="676.2857142857143" cy="867.9245283018868" r="1.0" style="stroke:rgb(255,0,0);stroke-width:1.0" />
<circle cx="171.42857142857147" cy="37.735849056603776" r="1.0" style="stroke:rgb(255,0,0);stroke-width:1.0" />
<circle cx="728.5714285714288" cy="811.3207547169811" r="1.0" style="stroke:rgb(255,0,0);stroke-width:1.0" />
<circle cx="114.28571428571426" cy="283.0188679245283" r="1.0" style="stroke:rgb(255,0,0);stroke-width:1.0" />
<circle cx="638.0000000000001" cy="660.377358490566" r="1.0" style="stroke:rgb(255,0,0);stroke-width:1.0" />
<circle cx="542.8571428571429" cy="433.9622641509434" r="1.0" style="stroke:rgb(255,0,0);stroke-width:1.0" />
<circle cx="852.2857142857144" cy="622.6415094339623" r="1.0" style="stroke:rgb(255,0,0);stroke-width:1.0" />
<circle cx="219.14285714285714" cy="377.35849056603774" r="1.0" style="stroke:rgb(255,0,0);stroke-width:1.0" />
<circle cx="971.4285714285716" cy="849.0566037735849" r="1.0" style="stroke:rgb(255,0,0);stroke-width:1.0" />
<circle cx="95.14285714285714" cy="169.81132075471697" r="1.0" style="stroke:rgb(255,0,0);stroke-width:1.0" />
<circle cx="862.0000000000001" cy="943.3962264150944" r="1.0" style="stroke:rgb(255,0,0);stroke-width:1.0" />
<circle cx="90.57142857142857" cy="113.20754716981132" r="1.0" style="stroke:rgb(255,0,0);stroke-width:1.0" />
<circle cx="138.00000000000006" cy="264.1509433962264" r="1.0" style="stroke:rgb(255,0,0);stroke-width:1.0" />
<circle cx="852.2857142857144" cy="641.5094339622641" r="1.0" style="stroke:rgb(255,0,0);stroke-width:1.0" />
<circle cx="495.1428571428572" cy="471.6981132075472" r="1.0" style="stroke:rgb(255,0,0);stroke-width:1.0" />
<circle cx="733.4285714285714" cy="716.9811320754717" r="1.0" style="stroke:rgb(255,0,0);stroke-width:1.0" />
<circle cx="780.857142857143" cy="716.9811320754717" r="1.0" style="stroke:rgb(255,0,0);stroke-width:1.0" />
<circle cx="828.5714285714287" cy="566.0377358490566" r="1.0" style="stroke:rgb(255,0,0);stroke-width:1.0" />
<circle cx="233.4285714285714" cy="132.0754716981132" r="1.0" style="stroke:rgb(255,0,0);stroke-width:1.0" />
<circle cx="685.7142857142858" cy="792.4528301886793" r="1.0" style="stroke:rgb(255,0,0);stroke-width:1.0" />
<circle cx="733.4285714285714" cy="584.9056603773585" r="1.0" style="stroke:rgb(255,0,0);stroke-width:1.0" />
<circle cx="80.85714285714285" cy="226.41509433962264" r="1.0" style="stroke:rgb(255,0,0);stroke-width:1.0" />
<circle cx="852.2857142857144" cy="641.5094339622641" r="1.0" style="stroke:rgb(255,0,0);stroke-width:1.0" />
<circle cx="757.1428571428572" cy="754.7169811320755" r="1.0" style="stroke:rgb(255,0,0);stroke-width:1.0" />
<circle cx="619.1428571428572" cy="754.7169811320755" r="1.0" style="stroke:rgb(255,0,0);stroke-width:1.0" />
<circle cx="123.71428571428568" cy="150.9433962264151" r="1.0" style="stroke:rgb(255,0,0);stroke-width:1.0" />
<circle cx="809.4285714285714" cy="660.377358490566" r="1.0" style="stroke:rgb(255,0,0);stroke-width:1.0" />
<circle cx="709.4285714285716" cy="773.5849056603773" r="1.0" style="stroke:rgb(255,0,0);stroke-width:1.0" />
<circle cx="66.57142857142854" cy="56.60377358490566" r="1.0" style="stroke:rgb(255,0,0);stroke-width:1.0" />
<circle cx="804.8571428571428" cy="754.7169811320755" r="1.0" style="stroke:rgb(255,0,0);stroke-width:1.0" />
<circle cx="166.57142857142853" cy="226.41509433962264" r="1.0" style="stroke:rgb(255,0,0);stroke-width:1.0" />
<circle cx="914.2857142857142" cy="716.9811320754717" r="1.0" style="stroke:rgb(255,0,0);stroke-width:1.0" />
<circle cx="66.57142857142854" cy="264.1509433962264" r="1.0" style="stroke:rgb(255,0,0);stroke-width:1.0" />
<circle cx="914.2857142857142" cy="622.6415094339623" r="1.0" style="stroke:rgb(255,0,0);stroke-width:1.0" />
<circle cx="714.2857142857142" cy="773.5849056603773" r="1.0" style="stroke:rgb(255,0,0);stroke-width:1.0" />
<circle cx="676.0000000000001" cy="641.5094339622641" r="1.0" style="stroke:rgb(255,0,0);stroke-width:1.0" />
<circle cx="752.2857142857142" cy="716.9811320754717" r="1.0" style="stroke:rgb(255,0,0);stroke-width:1.0" />
<circle cx="542.8571428571429" cy="830.188679245283" r="1.0" style="stroke:rgb(255,0,0);stroke-width:1.0" />
<circle cx="790.2857142857142" cy="641.5094339622641" r="1.0" style="stroke:rgb(255,0,0);stroke-width:1.0" />
<circle cx="185.7142857142857" cy="150.9433962264151" r="1.0" style="stroke:rgb(255,0,0);stroke-width:1.0" />
<circle cx="876.2857142857142" cy="660.377358490566" r="1.0" style="stroke:rgb(255,0,0);stroke-width:1.0" />
<circle cx="142.85714285714286" cy="320.75471698113205" r="1.0" style="stroke:rgb(255,0,0);stroke-width:1.0" />
<circle cx="785.7142857142857" cy="735.8490566037735" r="1.0" style="stroke:rgb(255,0,0);stroke-width:1.0" />
<circle cx="723.7142857142858" cy="905.6603773584906" r="1.0" style="stroke:rgb(255,0,0);stroke-width:1.0" />
<circle cx="76.28571428571426" cy="188.67924528301887" r="1.0" style="stroke:rgb(255,0,0);stroke-width:1.0" />
<circle cx="857.1428571428571" cy="660.377358490566" r="1.0" style="stroke:rgb(255,0,0);stroke-width:1.0" />
<circle cx="52.28571428571424" cy="56.60377358490566" r="1.0" style="stroke:rgb(255,0,0);stroke-width:1.0" />
<circle cx="790.5714285714287" cy="641.5094339622641" r="1.0" style="stroke:rgb(255,0,0);stroke-width:1.0" />
<circle cx="642.8571428571429" cy="773.5849056603773" r="1.0" style="stroke:rgb(255,0,0);stroke-width:1.0" />
<circle cx="95.14285714285714" cy="113.20754716981132" r="1.0" style="stroke:rgb(255,0,0);stroke-width:1.0" />
<circle cx="828.5714285714287" cy="754.7169811320755" r="1.0" style="stroke:rgb(255,0,0);stroke-width:1.0" />
<circle cx="223.71428571428572" cy="528.3018867924528" r="1.0" style="stroke:rgb(255,0,0);stroke-width:1.0" />
<circle cx="885.7142857142858" cy="698.1132075471698" r="1.0" style="stroke:rgb(255,0,0);stroke-width:1.0" />
<circle cx="76.28571428571426" cy="113.20754716981132" r="1.0" style="stroke:rgb(255,0,0);stroke-width:1.0" />
<circle cx="638.0000000000001" cy="603.7735849056604" r="1.0" style="stroke:rgb(255,0,0);stroke-width:1.0" />
<circle cx="519.1428571428571" cy="396.22641509433964" r="1.0" style="stroke:rgb(255,0,0);stroke-width:1.0" />
<circle cx="752.2857142857142" cy="622.6415094339623" r="1.0" style="stroke:rgb(255,0,0);stroke-width:1.0" />
<circle cx="228.57142857142853" cy="188.67924528301887" r="1.0" style="stroke:rgb(255,0,0);stroke-width:1.0" />
<circle cx="914.2857142857142" cy="962.2641509433962" r="1.0" style="stroke:rgb(255,0,0);stroke-width:1.0" />
<circle cx="114.28571428571426" cy="226.41509433962264" r="1.0" style="stroke:rgb(255,0,0);stroke-width:1.0" />
<circle cx="728.5714285714288" cy="622.6415094339623" r="1.0" style="stroke:rgb(255,0,0);stroke-width:1.0" />
<circle cx="76.28571428571426" cy="132.0754716981132" r="1.0" style="stroke:rgb(255,0,0);stroke-width:1.0" />
<circle cx="762.0000000000002" cy="735.8490566037735" r="1.0" style="stroke:rgb(255,0,0);stroke-width:1.0" />
<circle cx="42.85714285714284" cy="207.54716981132074" r="1.0" style="stroke:rgb(255,0,0);stroke-width:1.0" />
<circle cx="823.7142857142857" cy="603.7735849056604" r="1.0" style="stroke:rgb(255,0,0);stroke-width:1.0" />
<circle cx="685.7142857142858" cy="660.377358490566" r="1.0" style="stroke:rgb(255,0,0);stroke-width:1.0" />
<circle cx="719.1428571428572" cy="679.2452830188679" r="1.0" style="stroke:rgb(255,0,0);stroke-width:1.0" />
<circle cx="709.4285714285716" cy="660.377358490566" r="1.0" style="stroke:rgb(255,0,0);stroke-width:1.0" />
<circle cx="762.0000000000002" cy="660.377358490566" r="1.0" style="stroke:rgb(255,0,0);stroke-width:1.0" />
<circle cx="662.0" cy="509.4339622641509" r="1.0" style="stroke:rgb(255,0,0);stroke-width:1.0" />
<circle cx="842.8571428571429" cy="679.2452830188679" r="1.0" style="stroke:rgb(255,0,0);stroke-width:1.0" />
<circle cx="709.4285714285716" cy="509.4339622641509" r="1.0" style="stroke:rgb(255,0,0);stroke-width:1.0" />
<circle cx="233.4285714285714" cy="207.54716981132074" r="1.0" style="stroke:rgb(255,0,0);stroke-width:1.0" />
<circle cx="738.0" cy="811.3207547169811" r="1.0" style="stroke:rgb(255,0,0);stroke-width:1.0" />
<circle cx="176.2857142857143" cy="132.0754716981132" r="1.0" style="stroke:rgb(255,0,0);stroke-width:1.0" />
<circle cx="814.2857142857143" cy="886.7924528301887" r="1.0" style="stroke:rgb(255,0,0);stroke-width:1.0" />
<circle cx="80.85714285714285" cy="207.54716981132074" r="1.0" style="stroke:rgb(255,0,0);stroke-width:1.0" />
<circle cx="71.42857142857143" cy="207.54716981132074" r="1.0" style="stroke:rgb(255,0,0);stroke-width:1.0" />
<circle cx="766.5714285714288" cy="641.5094339622641" r="1.0" style="stroke:rgb(255,0,0);stroke-width:1.0" />
<circle cx="671.4285714285716" cy="679.2452830188679" r="1.0" style="stroke:rgb(255,0,0);stroke-width:1.0" />
<circle cx="209.4285714285715" cy="396.22641509433964" r="1.0" style="stroke:rgb(255,0,0);stroke-width:1.0" />
<circle cx="728.5714285714288" cy="603.7735849056604" r="1.0" style="stroke:rgb(255,0,0);stroke-width:1.0" />
<circle cx="214.2857142857143" cy="75.47169811320755" r="1.0" style="stroke:rgb(255,0,0);stroke-width:1.0" />
<circle cx="952.2857142857142" cy="811.3207547169811" r="1.0" style="stroke:rgb(255,0,0);stroke-width:1.0" />
<circle cx="371.4285714285714" cy="377.35849056603774" r="1.0" style="stroke:rgb(255,0,0);stroke-width:1.0" />
<circle cx="852.2857142857144" cy="792.4528301886793" r="1.0" style="stroke:rgb(255,0,0);stroke-width:1.0" />
<circle cx="638.0000000000001" cy="735.8490566037735" r="1.0" style="stroke:rgb(255,0,0);stroke-width:1.0" />
<circle cx="138.00000000000006" cy="264.1509433962264" r="1.0" style="stroke:rgb(255,0,0);stroke-width:1.0" />
<circle cx="790.5714285714287" cy="735.8490566037735" r="1.0" style="stroke:rgb(255,0,0);stroke-width:1.0" />
<circle cx="152.28571428571428" cy="452.8301886792453" r="1.0" style="stroke:rgb(255,0,0);stroke-width:1.0" />
<circle cx="785.7142857142857" cy="584.9056603773585" r="1.0" style="stroke:rgb(255,0,0);stroke-width:1.0" />
<circle cx="171.42857142857147" cy="207.54716981132074" r="1.0" style="stroke:rgb(255,0,0);stroke-width:1.0" />
<circle cx="814.2857142857143" cy="754.7169811320755" r="1.0" style="stroke:rgb(255,0,0);stroke-width:1.0" />
<circle cx="562.0000000000001" cy="566.0377358490566" r="1.0" style="stroke:rgb(255,0,0);stroke-width:1.0" />
<circle cx="828.5714285714287" cy="566.0377358490566" r="1.0" style="stroke:rgb(255,0,0);stroke-width:1.0" />
<circle cx="728.5714285714288" cy="849.0566037735849" r="1.0" style="stroke:rgb(255,0,0);stroke-width:1.0" />
<circle cx="633.4285714285716" cy="698.1132075471698" r="1.0" style="stroke:rgb(255,0,0);stroke-width:1.0" />
<circle cx="662.0" cy="528.3018867924528" r="1.0" style="stroke:rgb(255,0,0);stroke-width:1.0" />
<circle cx="814.2857142857143" cy="754.7169811320755" r="1.0" style="stroke:rgb(255,0,0);stroke-width:1.0" />
<circle cx="114.28571428571426" cy="245.28301886792454" r="1.0" style="stroke:rgb(255,0,0);stroke-width:1.0" />
<circle cx="766.5714285714288" cy="679.2452830188679" r="1.0" style="stroke:rgb(255,0,0);stroke-width:1.0" />
<circle cx="904.8571428571431" cy="660.377358490566" r="1.0" style="stroke:rgb(255,0,0);stroke-width:1.0" />
<circle cx="838.0000000000002" cy="773.5849056603773" r="1.0" style="stroke:rgb(255,0,0);stroke-width:1.0" />
<circle cx="71.42857142857143" cy="283.0188679245283" r="1.0" style="stroke:rgb(255,0,0);stroke-width:1.0" />
<circle cx="757.1428571428572" cy="754.7169811320755" r="1.0" style="stroke:rgb(255,0,0);stroke-width:1.0" />
<circle cx="109.42857142857144" cy="0.0" r="1.0" style="stroke:rgb(255,0,0);stroke-width:1.0" />
<circle cx="185.7142857142857" cy="320.75471698113205" r="1.0" style="stroke:rgb(255,0,0);stroke-width:1.0" />
<circle cx="900.0000000000001" cy="603.7735849056604" r="1.0" style="stroke:rgb(255,0,0);stroke-width:1.0" />
<circle cx="719.1428571428572" cy="716.9811320754717" r="1.0" style="stroke:rgb(255,0,0);stroke-width:1.0" />
<circle cx="157.1428571428571" cy="56.60377358490566" r="1.0" style="stroke:rgb(255,0,0);stroke-width:1.0" />
<circle cx="804.8571428571428" cy="886.7924528301887" r="1.0" style="stroke:rgb(255,0,0);stroke-width:1.0" />
<circle cx="61.999999999999964" cy="56.60377358490566" r="1.0" style="stroke:rgb(255,0,0);stroke-width:1.0" />
<circle cx="819.1428571428571" cy="584.9056603773585" r="1.0" style="stroke:rgb(255,0,0);stroke-width:1.0" />
<line x1="0.0" y1="143.92218088310204" x2="1000.0" y2="852.9320457523327" style="stroke:rgb(0,0,0);stroke-width:2.0" />
</svg>
