<?xml version="1.0" standalone="no"?>
<!DOCTYPE svg PUBLIC "-//W3C//DTD SVG 1.1//EN" 
  "http://www.w3.org/Graphics/SVG/1.1/DTD/svg11.dtd">
<svg xmlns="http://www.w3.org/2000/svg" height="1000" width="1000">
<line x1="0.0" y1="500.0" x2="1000.0" y2="500.0" style="stroke:rgb(0,0,0);stroke-width:3.0" />
<line x1="500.0" y1="0.0" x2="500.0" y2="1000.0" style="stroke:rgb(0,0,0);stroke-width:3.0" />
<line x1="0.0" y1="500.0" x2="500.0" y2="500.0" style="stroke:rgb(0,0,0);stroke-width:2.0" />
<line x1="1000.0" y1="500.0" x2="500.0" y2="500.0" style="stroke:rgb(0,0,0);stroke-width:2.0" />
<line x1="0.0" y1="500.0" x2="500.0" y2="500.0" style="stroke:rgb(0,0,0);stroke-width:2.0" />
<line x1="1000.0" y1="500.0" x2="500.0" y2="500.0" style="stroke:rgb(0,0,0);stroke-width:2.0" />
<line x1="25.0" y1="500.0" x2="500.0" y2="525.0" style="stroke:rgb(0,0,0);stroke-width:2.0" />
<line x1="975.0" y1="500.0" x2="500.0" y2="525.0" style="stroke:rgb(0,0,0);stroke-width:2.0" />
<line x1="25.0" y1="500.0" x2="500.0" y2="475.0" style="stroke:rgb(0,0,0);stroke-width:2.0" />
<line x1="975.0" y1="500.0" x2="500.0" y2="475.0" style="stroke:rgb(0,0,0);stroke-width:2.0" />
<line x1="50.0" y1="500.0" x2="500.0" y2="550.0" style="stroke:rgb(0,0,0);stroke-width:2.0" />
<line x1="950.0" y1="500.0" x2="500.0" y2="550.0" style="stroke:rgb(0,0,0);stroke-width:2.0" />
<line x1="50.0" y1="500.0" x2="500.0" y2="450.0" style="stroke:rgb(0,0,0);stroke-width:2.0" />
<line x1="950.0" y1="500.0" x2="500.0" y2="450.0" style="stroke:rgb(0,0,0);stroke-width:2.0" />
<line x1="75.0" y1="500.0" x2="500.0" y2="575.0" style="stroke:rgb(0,0,0);stroke-width:2.0" />
<line x1="925.0" y1="500.0" x2="500.0" y2="575.0" style="stroke:rgb(0,0,0);stroke-width:2.0" />
<line x1="75.0" y1="500.0" x2="500.0" y2="425.0" style="stroke:rgb(0,0,0);stroke-width:2.0" />
<line x1="925.0" y1="500.0" x2="500.0" y2="425.0" style="stroke:rgb(0,0,0);stroke-width:2.0" />
<line x1="100.0" y1="500.0" x2="500.0" y2="600.0" style="stroke:rgb(0,0,0);stroke-width:2.0" />
<line x1="900.0" y1="500.0" x2="500.0" y2="600.0" style="stroke:rgb(0,0,0);stroke-width:2.0" />
<line x1="100.0" y1="500.0" x2="500.0" y2="400.0" style="stroke:rgb(0,0,0);stroke-width:2.0" />
<line x1="900.0" y1="500.0" x2="500.0" y2="400.0" style="stroke:rgb(0,0,0);stroke-width:2.0" />
<line x1="125.0" y1="500.0" x2="500.0" y2="625.0" style="stroke:rgb(0,0,0);stroke-width:2.0" />
<line x1="875.0" y1="500.0" x2="500.0" y2="625.0" style="stroke:rgb(0,0,0);stroke-width:2.0" />
<line x1="125.0" y1="500.0" x2="500.0" y2="375.0" style="stroke:rgb(0,0,0);stroke-width:2.0" />
<line x1="875.0" y1="500.0" x2="500.0" y2="375.0" style="stroke:rgb(0,0,0);stroke-width:2.0" />
<line x1="150.0" y1="500.0" x2="500.0" y2="650.0" style="stroke:rgb(0,0,0);stroke-width:2.0" />
<line x1="850.0" y1="500.0" x2="500.0" y2="650.0" style="stroke:rgb(0,0,0);stroke-width:2.0" />
<line x1="150.0" y1="500.0" x2="500.0" y2="350.0" style="stroke:rgb(0,0,0);stroke-width:2.0" />
<line x1="850.0" y1="500.0" x2="500.0" y2="350.0" style="stroke:rgb(0,0,0);stroke-width:2.0" />
<line x1="175.0" y1="500.0" x2="500.0" y2="675.0" style="stroke:rgb(0,0,0);stroke-width:2.0" />
<line x1="825.0" y1="500.0" x2="500.0" y2="675.0" style="stroke:rgb(0,0,0);stroke-width:2.0" />
<line x1="175.0" y1="500.0" x2="500.0" y2="325.0" style="stroke:rgb(0,0,0);stroke-width:2.0" />
<line x1="825.0" y1="500.0" x2="500.0" y2="325.0" style="stroke:rgb(0,0,0);stroke-width:2.0" />
<line x1="200.0" y1="500.0" x2="500.0" y2="700.0" style="stroke:rgb(0,0,0);stroke-width:2.0" />
<line x1="800.0" y1="500.0" x2="500.0" y2="700.0" style="stroke:rgb(0,0,0);stroke-width:2.0" />
<line x1="200.0" y1="500.0" x2="500.0" y2="300.0" style="stroke:rgb(0,0,0);stroke-width:2.0" />
<line x1="800.0" y1="500.0" x2="500.0" y2="300.0" style="stroke:rgb(0,0,0);stroke-width:2.0" />
<line x1="225.0" y1="500.0" x2="500.0" y2="725.0" style="stroke:rgb(0,0,0);stroke-width:2.0" />
<line x1="775.0" y1="500.0" x2="500.0" y2="725.0" style="stroke:rgb(0,0,0);stroke-width:2.0" />
<line x1="225.0" y1="500.0" x2="500.0" y2="275.0" style="stroke:rgb(0,0,0);stroke-width:2.0" />
<line x1="775.0" y1="500.0" x2="500.0" y2="275.0" style="stroke:rgb(0,0,0);stroke-width:2.0" />
<line x1="250.0" y1="500.0" x2="500.0" y2="750.0" style="stroke:rgb(0,0,0);stroke-width:2.0" />
<line x1="750.0" y1="500.0" x2="500.0" y2="750.0" style="stroke:rgb(0,0,0);stroke-width:2.0" />
<line x1="250.0" y1="500.0" x2="500.0" y2="250.0" style="stroke:rgb(0,0,0);stroke-width:2.0" />
<line x1="750.0" y1="500.0" x2="500.0" y2="250.0" style="stroke:rgb(0,0,0);stroke-width:2.0" />
<line x1="275.0" y1="500.0" x2="500.0" y2="775.0" style="stroke:rgb(0,0,0);stroke-width:2.0" />
<line x1="725.0" y1="500.0" x2="500.0" y2="775.0" style="stroke:rgb(0,0,0);stroke-width:2.0" />
<line x1="275.0" y1="500.0" x2="500.0" y2="225.0" style="stroke:rgb(0,0,0);stroke-width:2.0" />
<line x1="725.0" y1="500.0" x2="500.0" y2="225.0" style="stroke:rgb(0,0,0);stroke-width:2.0" />
<line x1="300.0" y1="500.0" x2="500.0" y2="800.0" style="stroke:rgb(0,0,0);stroke-width:2.0" />
<line x1="700.0" y1="500.0" x2="500.0" y2="800.0" style="stroke:rgb(0,0,0);stroke-width:2.0" />
<line x1="300.0" y1="500.0" x2="500.0" y2="200.0" style="stroke:rgb(0,0,0);stroke-width:2.0" />
<line x1="700.0" y1="500.0" x2="500.0" y2="200.0" style="stroke:rgb(0,0,0);stroke-width:2.0" />
<line x1="325.0" y1="500.0" x2="500.0" y2="825.0" style="stroke:rgb(0,0,0);stroke-width:2.0" />
<line x1="675.0" y1="500.0" x2="500.0" y2="825.0" style="stroke:rgb(0,0,0);stroke-width:2.0" />
<line x1="325.0" y1="500.0" x2="500.0" y2="175.0" style="stroke:rgb(0,0,0);stroke-width:2.0" />
<line x1="675.0" y1="500.0" x2="500.0" y2="175.0" style="stroke:rgb(0,0,0);stroke-width:2.0" />
<line x1="350.0" y1="500.0" x2="500.0" y2="850.0" style="stroke:rgb(0,0,0);stroke-width:2.0" />
<line x1="650.0" y1="500.0" x2="500.0" y2="850.0" style="stroke:rgb(0,0,0);stroke-width:2.0" />
<line x1="350.0" y1="500.0" x2="500.0" y2="150.0" style="stroke:rgb(0,0,0);stroke-width:2.0" />
<line x1="650.0" y1="500.0" x2="500.0" y2="150.0" style="stroke:rgb(0,0,0);stroke-width:2.0" />
<line x1="375.0" y1="500.0" x2="500.0" y2="875.0" style="stroke:rgb(0,0,0);stroke-width:2.0" />
<line x1="625.0" y1="500.0" x2="500.0" y2="875.0" style="stroke:rgb(0,0,0);stroke-width:2.0" />
<line x1="375.0" y1="500.0" x2="500.0" y2="125.0" style="stroke:rgb(0,0,0);stroke-width:2.0" />
<line x1="625.0" y1="500.0" x2="500.0" y2="125.0" style="stroke:rgb(0,0,0);stroke-width:2.0" />
<line x1="400.0" y1="500.0" x2="500.0" y2="900.0" style="stroke:rgb(0,0,0);stroke-width:2.0" />
<line x1="600.0" y1="500.0" x2="500.0" y2="900.0" style="stroke:rgb(0,0,0);stroke-width:2.0" />
<line x1="400.0" y1="500.0" x2="500.0" y2="100.0" style="stroke:rgb(0,0,0);stroke-width:2.0" />
<line x1="600.0" y1="500.0" x2="500.0" y2="100.0" style="stroke:rgb(0,0,0);stroke-width:2.0" />
<line x1="425.0" y1="500.0" x2="500.0" y2="925.0" style="stroke:rgb(0,0,0);stroke-width:2.0" />
<line x1="575.0" y1="500.0" x2="500.0" y2="925.0" style="stroke:rgb(0,0,0);stroke-width:2.0" />
<line x1="425.0" y1="500.0" x2="500.0" y2="75.0" style="stroke:rgb(0,0,0);stroke-width:2.0" />
<line x1="575.0" y1="500.0" x2="500.0" y2="75.0" style="stroke:rgb(0,0,0);stroke-width:2.0" />
<line x1="450.0" y1="500.0" x2="500.0" y2="950.0" style="stroke:rgb(0,0,0);stroke-width:2.0" />
<line x1="550.0" y1="500.0" x2="500.0" y2="950.0" style="stroke:rgb(0,0,0);stroke-width:2.0" />
<line x1="450.0" y1="500.0" x2="500.0" y2="50.0" style="stroke:rgb(0,0,0);stroke-width:2.0" />
<line x1="550.0" y1="500.0" x2="500.0" y2="50.0" style="stroke:rgb(0,0,0);stroke-width:2.0" />
<line x1="475.0" y1="500.0" x2="500.0" y2="975.0" style="stroke:rgb(0,0,0);stroke-width:2.0" />
<line x1="525.0" y1="500.0" x2="500.0" y2="975.0" style="stroke:rgb(0,0,0);stroke-width:2.0" />
<line x1="475.0" y1="500.0" x2="500.0" y2="25.0" style="stroke:rgb(0,0,0);stroke-width:2.0" />
<line x1="525.0" y1="500.0" x2="500.0" y2="25.0" style="stroke:rgb(0,0,0);stroke-width:2.0" />
</svg>
