<?xml version="1.0" standalone="no"?>
<!DOCTYPE svg PUBLIC "-//W3C//DTD SVG 1.1//EN" 
  "http://www.w3.org/Graphics/SVG/1.1/DTD/svg11.dtd">
<svg xmlns="http://www.w3.org/2000/svg" height="1000" width="1000">
<line x1="500.0" y1="600.0" x2="500.0" y2="600.0" style="stroke:rgb(0,0,0);stroke-width:2.0" />
<line x1="450.11123484301413" y1="586.6666666666666" x2="549.8887651569859" y2="586.6666666666666" style="stroke:rgb(0,0,0);stroke-width:2.0" />
<line x1="432.0130731520962" y1="573.3333333333334" x2="567.9869268479038" y2="573.3333333333334" style="stroke:rgb(0,0,0);stroke-width:2.0" />
<line x1="420.0" y1="560.0" x2="580.0" y2="560.0" style="stroke:rgb(0,0,0);stroke-width:2.0" />
<line x1="411.55667225718935" y1="546.6666666666666" x2="588.4433277428107" y2="546.6666666666666" style="stroke:rgb(0,0,0);stroke-width:2.0" />
<line x1="405.71909584179366" y1="533.3333333333334" x2="594.2809041582063" y2="533.3333333333334" style="stroke:rgb(0,0,0);stroke-width:2.0" />
<line x1="402.0204102886729" y1="520.0" x2="597.9795897113271" y2="520.0" style="stroke:rgb(0,0,0);stroke-width:2.0" />
<line x1="400.2224696860282" y1="506.66666666666663" x2="599.7775303139717" y2="506.66666666666663" style="stroke:rgb(0,0,0);stroke-width:2.0" />
<line x1="400.22246968602826" y1="493.3333333333333" x2="599.7775303139717" y2="493.3333333333333" style="stroke:rgb(0,0,0);stroke-width:2.0" />
<line x1="402.0204102886729" y1="480.0" x2="597.9795897113271" y2="480.0" style="stroke:rgb(0,0,0);stroke-width:2.0" />
<line x1="405.71909584179366" y1="466.66666666666663" x2="594.2809041582063" y2="466.66666666666663" style="stroke:rgb(0,0,0);stroke-width:2.0" />
<line x1="411.55667225718935" y1="453.3333333333333" x2="588.4433277428107" y2="453.3333333333333" style="stroke:rgb(0,0,0);stroke-width:2.0" />
<line x1="420.0" y1="440.0" x2="580.0" y2="440.0" style="stroke:rgb(0,0,0);stroke-width:2.0" />
<line x1="432.01307315209624" y1="426.66666666666663" x2="567.9869268479038" y2="426.66666666666663" style="stroke:rgb(0,0,0);stroke-width:2.0" />
<line x1="450.11123484301413" y1="413.3333333333333" x2="549.8887651569859" y2="413.3333333333333" style="stroke:rgb(0,0,0);stroke-width:2.0" />
<line x1="500.0" y1="400.0" x2="500.0" y2="400.0" style="stroke:rgb(0,0,0);stroke-width:2.0" />
<line x1="600.0" y1="500.0" x2="600.0" y2="500.0" style="stroke:rgb(0,0,0);stroke-width:2.0" />
<line x1="586.6666666666666" y1="450.11123484301413" x2="586.6666666666666" y2="549.8887651569859" style="stroke:rgb(0,0,0);stroke-width:2.0" />
<line x1="573.3333333333334" y1="432.0130731520962" x2="573.3333333333334" y2="567.9869268479038" style="stroke:rgb(0,0,0);stroke-width:2.0" />
<line x1="560.0" y1="420.0" x2="560.0" y2="580.0" style="stroke:rgb(0,0,0);stroke-width:2.0" />
<line x1="546.6666666666666" y1="411.55667225718935" x2="546.6666666666666" y2="588.4433277428107" style="stroke:rgb(0,0,0);stroke-width:2.0" />
<line x1="533.3333333333334" y1="405.71909584179366" x2="533.3333333333334" y2="594.2809041582063" style="stroke:rgb(0,0,0);stroke-width:2.0" />
<line x1="520.0" y1="402.0204102886729" x2="520.0" y2="597.9795897113271" style="stroke:rgb(0,0,0);stroke-width:2.0" />
<line x1="506.66666666666663" y1="400.2224696860282" x2="506.66666666666663" y2="599.7775303139717" style="stroke:rgb(0,0,0);stroke-width:2.0" />
<line x1="493.3333333333333" y1="400.22246968602826" x2="493.3333333333333" y2="599.7775303139717" style="stroke:rgb(0,0,0);stroke-width:2.0" />
<line x1="480.0" y1="402.0204102886729" x2="480.0" y2="597.9795897113271" style="stroke:rgb(0,0,0);stroke-width:2.0" />
<line x1="466.66666666666663" y1="405.71909584179366" x2="466.66666666666663" y2="594.2809041582063" style="stroke:rgb(0,0,0);stroke-width:2.0" />
<line x1="453.3333333333333" y1="411.55667225718935" x2="453.3333333333333" y2="588.4433277428107" style="stroke:rgb(0,0,0);stroke-width:2.0" />
<line x1="440.0" y1="420.0" x2="440.0" y2="580.0" style="stroke:rgb(0,0,0);stroke-width:2.0" />
<line x1="426.66666666666663" y1="432.01307315209624" x2="426.66666666666663" y2="567.9869268479038" style="stroke:rgb(0,0,0);stroke-width:2.0" />
<line x1="413.3333333333333" y1="450.11123484301413" x2="413.3333333333333" y2="549.8887651569859" style="stroke:rgb(0,0,0);stroke-width:2.0" />
<line x1="400.0" y1="500.0" x2="400.0" y2="500.0" style="stroke:rgb(0,0,0);stroke-width:2.0" />
</svg>
