<?xml version="1.0" standalone="no"?>
<!DOCTYPE svg PUBLIC "-//W3C//DTD SVG 1.1//EN" 
  "http://www.w3.org/Graphics/SVG/1.1/DTD/svg11.dtd">
<svg xmlns="http://www.w3.org/2000/svg" height="1000" width="1000">
<line x1="500.0" y1="490.0" x2="499.5" y2="490.8660254037844" style="stroke:rgb(0,0,0);stroke-width:1.0" />
<line x1="499.5" y1="490.8660254037844" x2="500.5" y2="490.8660254037844" style="stroke:rgb(0,0,0);stroke-width:1.0" />
<line x1="500.5" y1="490.8660254037844" x2="500.0" y2="490.0" style="stroke:rgb(0,0,0);stroke-width:1.0" />
<line x1="500.0" y1="480.0" x2="491.40983005625054" y2="494.87861078822516" style="stroke:rgb(0,0,0);stroke-width:1.0" />
<line x1="491.40983005625054" y1="494.87861078822516" x2="508.5901699437495" y2="494.87861078822516" style="stroke:rgb(0,0,0);stroke-width:1.0" />
<line x1="508.5901699437495" y1="494.87861078822516" x2="500.00000000000006" y2="480.0" style="stroke:rgb(0,0,0);stroke-width:1.0" />
<line x1="500.00000000000006" y1="470.0" x2="483.3196601125011" y2="498.8911961726659" style="stroke:rgb(0,0,0);stroke-width:1.0" />
<line x1="483.3196601125011" y1="498.8911961726659" x2="516.680339887499" y2="498.8911961726659" style="stroke:rgb(0,0,0);stroke-width:1.0" />
<line x1="516.680339887499" y1="498.8911961726659" x2="500.0" y2="470.0" style="stroke:rgb(0,0,0);stroke-width:1.0" />
<line x1="500.0" y1="460.0" x2="475.2294901687517" y2="502.9037815571067" style="stroke:rgb(0,0,0);stroke-width:1.0" />
<line x1="475.2294901687517" y1="502.9037815571067" x2="524.7705098312485" y2="502.90378155710675" style="stroke:rgb(0,0,0);stroke-width:1.0" />
<line x1="524.7705098312485" y1="502.90378155710675" x2="500.0000000000001" y2="460.0000000000001" style="stroke:rgb(0,0,0);stroke-width:1.0" />
<line x1="500.0000000000001" y1="450.0000000000001" x2="467.13932022500205" y2="506.91636694154744" style="stroke:rgb(0,0,0);stroke-width:1.0" />
<line x1="467.13932022500205" y1="506.91636694154744" x2="532.8606797749978" y2="506.9163669415477" style="stroke:rgb(0,0,0);stroke-width:1.0" />
<line x1="532.8606797749978" y1="506.9163669415477" x2="499.99999999999994" y2="450.00000000000034" style="stroke:rgb(0,0,0);stroke-width:1.0" />
<line x1="499.99999999999994" y1="440.00000000000034" x2="459.0491502812524" y2="510.92895232598835" style="stroke:rgb(0,0,0);stroke-width:1.0" />
<line x1="459.0491502812524" y1="510.92895232598835" x2="540.9508497187471" y2="510.9289523259882" style="stroke:rgb(0,0,0);stroke-width:1.0" />
<line x1="540.9508497187471" y1="510.9289523259882" x2="499.99999999999983" y2="440.0" style="stroke:rgb(0,0,0);stroke-width:1.0" />
<line x1="499.9999999999999" y1="430.0" x2="450.95898033750336" y2="514.9415377104291" style="stroke:rgb(0,0,0);stroke-width:1.0" />
<line x1="450.95898033750336" y1="514.9415377104291" x2="549.0410196624971" y2="514.941537710429" style="stroke:rgb(0,0,0);stroke-width:1.0" />
<line x1="549.0410196624971" y1="514.941537710429" x2="500.0000000000002" y2="430.0" style="stroke:rgb(0,0,0);stroke-width:1.0" />
</svg>
