<?xml version="1.0" standalone="no"?>
<!DOCTYPE svg PUBLIC "-//W3C//DTD SVG 1.1//EN" 
  "http://www.w3.org/Graphics/SVG/1.1/DTD/svg11.dtd">
<svg xmlns="http://www.w3.org/2000/svg" height="1000" width="1000">
<line x1="500.0" y1="500.0" x2="500.5209445330008" y2="497.0455767409634" style="stroke:rgb(0,0,0);stroke-width:1.0" />
<line x1="500.5209445330008" y1="497.0455767409634" x2="499.47905546699917" y2="491.13673022289015" style="stroke:rgb(0,0,0);stroke-width:1.0" />
<line x1="499.47905546699917" y1="491.13673022289015" x2="502.5572367569302" y2="482.67949663581703" style="stroke:rgb(0,0,0);stroke-width:1.0" />
<line x1="502.5572367569302" y1="482.67949663581703" x2="498.45299503702216" y2="471.40318518638617" style="stroke:rgb(0,0,0);stroke-width:1.0" />
<line x1="498.45299503702216" y1="471.40318518638617" x2="505.95299503702216" y2="458.41280412961964" style="stroke:rgb(0,0,0);stroke-width:1.0" />
<line x1="505.95299503702216" y1="458.41280412961964" x2="496.95299503702216" y2="442.82434686149975" style="stroke:rgb(0,0,0);stroke-width:1.0" />
<line x1="496.95299503702216" y1="442.82434686149975" x2="507.45299503702216" y2="424.6378133820265" style="stroke:rgb(0,0,0);stroke-width:1.0" />
<line x1="507.45299503702216" y1="424.6378133820265" x2="495.45299503702216" y2="403.85320369119995" style="stroke:rgb(0,0,0);stroke-width:1.0" />
<line x1="495.45299503702216" y1="403.85320369119995" x2="508.95299503702216" y2="380.47051778902005" style="stroke:rgb(0,0,0);stroke-width:1.0" />
<line x1="508.95299503702216" y1="380.47051778902005" x2="493.95299503702216" y2="354.4897556754869" style="stroke:rgb(0,0,0);stroke-width:1.0" />
<line x1="493.95299503702216" y1="354.4897556754869" x2="510.45299503702216" y2="325.91091735060036" style="stroke:rgb(0,0,0);stroke-width:1.0" />
<line x1="510.45299503702216" y1="325.91091735060036" x2="492.45299503702216" y2="294.73400281436057" style="stroke:rgb(0,0,0);stroke-width:1.0" />
<line x1="492.45299503702216" y1="294.73400281436057" x2="511.95299503702216" y2="260.9590120667674" style="stroke:rgb(0,0,0);stroke-width:1.0" />
<line x1="511.95299503702216" y1="260.9590120667674" x2="490.95299503702216" y2="224.58594510782098" style="stroke:rgb(0,0,0);stroke-width:1.0" />
<line x1="490.95299503702216" y1="224.58594510782098" x2="513.4529950370222" y2="185.61480193752118" style="stroke:rgb(0,0,0);stroke-width:1.0" />
<line x1="513.4529950370222" y1="185.61480193752118" x2="489.45299503702216" y2="144.04558255586812" style="stroke:rgb(0,0,0);stroke-width:1.0" />
<line x1="489.45299503702216" y1="144.04558255586812" x2="514.9529950370222" y2="99.8782869628617" style="stroke:rgb(0,0,0);stroke-width:1.0" />
<line x1="514.9529950370222" y1="99.8782869628617" x2="487.9529950370221" y2="53.112915158502005" style="stroke:rgb(0,0,0);stroke-width:1.0" />
<line x1="487.9529950370221" y1="53.112915158502005" x2="516.4529950370221" y2="3.7494671427889443" style="stroke:rgb(0,0,0);stroke-width:1.0" />
<line x1="516.4529950370221" y1="3.7494671427889443" x2="486.4529950370221" y2="-48.212057084277376" style="stroke:rgb(0,0,0);stroke-width:1.0" />
<line x1="486.4529950370221" y1="-48.212057084277376" x2="517.9529950370221" y2="-102.77165752269707" style="stroke:rgb(0,0,0);stroke-width:1.0" />
<line x1="517.9529950370221" y1="-102.77165752269707" x2="484.9529950370221" y2="-159.9293341724699" style="stroke:rgb(0,0,0);stroke-width:1.0" />
<line x1="484.9529950370221" y1="-159.9293341724699" x2="519.4529950370221" y2="-219.68508703359612" style="stroke:rgb(0,0,0);stroke-width:1.0" />
<line x1="519.4529950370221" y1="-219.68508703359612" x2="483.4529950370221" y2="-282.0389161060757" style="stroke:rgb(0,0,0);stroke-width:1.0" />
<line x1="500.0" y1="500.0" x2="501.026060429977" y2="497.18092213764226" style="stroke:rgb(0,0,0);stroke-width:1.0" />
<line x1="501.026060429977" y1="497.18092213764226" x2="501.026060429977" y2="491.18092213764226" style="stroke:rgb(0,0,0);stroke-width:1.0" />
<line x1="501.026060429977" y1="491.18092213764226" x2="505.526060429977" y2="483.38669350358236" style="stroke:rgb(0,0,0);stroke-width:1.0" />
<line x1="505.526060429977" y1="483.38669350358236" x2="503.44228229797386" y2="471.5690004674359" style="stroke:rgb(0,0,0);stroke-width:1.0" />
<line x1="503.44228229797386" y1="471.5690004674359" x2="513.084096443272" y2="460.0783338206512" style="stroke:rgb(0,0,0);stroke-width:1.0" />
<line x1="513.084096443272" y1="460.0783338206512" x2="506.9277338634099" y2="443.16386664650486" style="stroke:rgb(0,0,0);stroke-width:1.0" />
<line x1="506.9277338634099" y1="443.16386664650486" x2="520.4262736668272" y2="427.07693334100634" style="stroke:rgb(0,0,0);stroke-width:1.0" />
<line x1="520.4262736668272" y1="427.07693334100634" x2="512.2177902270112" y2="404.5243104421445" style="stroke:rgb(0,0,0);stroke-width:1.0" />
<line x1="512.2177902270112" y1="404.5243104421445" x2="529.5730556885477" y2="383.84111047793203" style="stroke:rgb(0,0,0);stroke-width:1.0" />
<line x1="529.5730556885477" y1="383.84111047793203" x2="519.3124513887776" y2="355.6503318543548" style="stroke:rgb(0,0,0);stroke-width:1.0" />
<line x1="519.3124513887776" y1="355.6503318543548" x2="540.5244425084334" y2="330.3708652314285" style="stroke:rgb(0,0,0);stroke-width:1.0" />
<line x1="540.5244425084334" y1="330.3708652314285" x2="528.2117173487093" y2="296.5419308831358" style="stroke:rgb(0,0,0);stroke-width:1.0" />
<line x1="528.2117173487093" y1="296.5419308831358" x2="553.2804341264844" y2="266.6661976014957" style="stroke:rgb(0,0,0);stroke-width:1.0" />
<line x1="553.2804341264844" y1="266.6661976014957" x2="538.9155881068062" y2="227.1991075284875" style="stroke:rgb(0,0,0);stroke-width:1.0" />
<line x1="538.9155881068062" y1="227.1991075284875" x2="567.8410305427005" y2="192.72710758813355" style="stroke:rgb(0,0,0);stroke-width:1.0" />
<line x1="567.8410305427005" y1="192.72710758813355" x2="551.4240636630684" y2="147.62186179040998" style="stroke:rgb(0,0,0);stroke-width:1.0" />
<line x1="551.4240636630684" y1="147.62186179040998" x2="584.2062317570819" y2="108.55359519134208" style="stroke:rgb(0,0,0);stroke-width:1.0" />
<line x1="584.2062317570819" y1="108.55359519134208" x2="565.7371440174958" y2="57.810193668903025" style="stroke:rgb(0,0,0);stroke-width:1.0" />
<line x1="565.7371440174958" y1="57.810193668903025" x2="602.3760377696285" y2="14.145660411121298" style="stroke:rgb(0,0,0);stroke-width:1.0" />
<line x1="602.3760377696285" y1="14.145660411121298" x2="581.8548291700884" y2="-42.235896836033135" style="stroke:rgb(0,0,0);stroke-width:1.0" />
<line x1="581.8548291700884" y1="-42.235896836033135" x2="622.3504485803403" y2="-90.4966967525288" style="stroke:rgb(0,0,0);stroke-width:1.0" />
<line x1="622.3504485803403" y1="-90.4966967525288" x2="599.7771191208462" y2="-152.51640972439873" style="stroke:rgb(0,0,0);stroke-width:1.0" />
<line x1="599.7771191208462" y1="-152.51640972439873" x2="644.1294641892175" y2="-205.37347629960823" style="stroke:rgb(0,0,0);stroke-width:1.0" />
<line x1="644.1294641892175" y1="-205.37347629960823" x2="619.5040138697693" y2="-273.03134499619364" style="stroke:rgb(0,0,0);stroke-width:1.0" />
</svg>
