<?xml version="1.0" standalone="no"?>
<!DOCTYPE svg PUBLIC "-//W3C//DTD SVG 1.1//EN" 
  "http://www.w3.org/Graphics/SVG/1.1/DTD/svg11.dtd">
<svg xmlns="http://www.w3.org/2000/svg" height="1000" width="1000">
<line x1="500.0" y1="500.0" x2="550.0" y2="500.0" style="stroke:rgb(0,0,0);stroke-width:1.0" />
<line x1="550.0" y1="500.0" x2="593.3012701892219" y2="475.0" style="stroke:rgb(0,0,0);stroke-width:1.0" />
<line x1="593.3012701892219" y1="475.0" x2="618.3012701892219" y2="431.6987298107781" style="stroke:rgb(0,0,0);stroke-width:1.0" />
<line x1="618.3012701892219" y1="431.6987298107781" x2="618.3012701892219" y2="381.6987298107781" style="stroke:rgb(0,0,0);stroke-width:1.0" />
<line x1="618.3012701892219" y1="381.6987298107781" x2="593.3012701892219" y2="338.3974596215562" style="stroke:rgb(0,0,0);stroke-width:1.0" />
<line x1="593.3012701892219" y1="338.3974596215562" x2="550.0" y2="313.3974596215562" style="stroke:rgb(0,0,0);stroke-width:1.0" />
<line x1="550.0" y1="313.3974596215562" x2="500.0" y2="313.3974596215562" style="stroke:rgb(0,0,0);stroke-width:1.0" />
<line x1="500.0" y1="313.3974596215562" x2="456.6987298107781" y2="338.3974596215562" style="stroke:rgb(0,0,0);stroke-width:1.0" />
<line x1="456.6987298107781" y1="338.3974596215562" x2="431.6987298107781" y2="381.6987298107781" style="stroke:rgb(0,0,0);stroke-width:1.0" />
<line x1="431.6987298107781" y1="381.6987298107781" x2="431.6987298107781" y2="431.6987298107781" style="stroke:rgb(0,0,0);stroke-width:1.0" />
<line x1="431.6987298107781" y1="431.6987298107781" x2="456.6987298107781" y2="475.0" style="stroke:rgb(0,0,0);stroke-width:1.0" />
<line x1="456.6987298107781" y1="475.0" x2="500.00000000000006" y2="500.0" style="stroke:rgb(0,0,0);stroke-width:1.0" />
<line x1="500.00000000000006" y1="500.0" x2="543.301270189222" y2="475.0" style="stroke:rgb(0,0,0);stroke-width:1.0" />
<line x1="543.301270189222" y1="475.0" x2="568.301270189222" y2="431.6987298107781" style="stroke:rgb(0,0,0);stroke-width:1.0" />
<line x1="568.301270189222" y1="431.6987298107781" x2="568.301270189222" y2="381.6987298107781" style="stroke:rgb(0,0,0);stroke-width:1.0" />
<line x1="568.301270189222" y1="381.6987298107781" x2="543.301270189222" y2="338.3974596215562" style="stroke:rgb(0,0,0);stroke-width:1.0" />
<line x1="543.301270189222" y1="338.3974596215562" x2="500.0000000000001" y2="313.3974596215562" style="stroke:rgb(0,0,0);stroke-width:1.0" />
<line x1="500.0000000000001" y1="313.3974596215562" x2="450.0000000000001" y2="313.3974596215562" style="stroke:rgb(0,0,0);stroke-width:1.0" />
<line x1="450.0000000000001" y1="313.3974596215562" x2="406.6987298107781" y2="338.3974596215562" style="stroke:rgb(0,0,0);stroke-width:1.0" />
<line x1="406.6987298107781" y1="338.3974596215562" x2="381.6987298107781" y2="381.6987298107781" style="stroke:rgb(0,0,0);stroke-width:1.0" />
<line x1="381.6987298107781" y1="381.6987298107781" x2="381.6987298107781" y2="431.6987298107781" style="stroke:rgb(0,0,0);stroke-width:1.0" />
<line x1="381.6987298107781" y1="431.6987298107781" x2="406.6987298107781" y2="475.0000000000001" style="stroke:rgb(0,0,0);stroke-width:1.0" />
<line x1="406.6987298107781" y1="475.0000000000001" x2="450.0" y2="500.0000000000001" style="stroke:rgb(0,0,0);stroke-width:1.0" />
<line x1="450.0" y1="500.0000000000001" x2="500.0" y2="500.0000000000001" style="stroke:rgb(0,0,0);stroke-width:1.0" />
<line x1="500.0" y1="500.0000000000001" x2="525.0" y2="456.6987298107782" style="stroke:rgb(0,0,0);stroke-width:1.0" />
<line x1="525.0" y1="456.6987298107782" x2="525.0" y2="406.6987298107782" style="stroke:rgb(0,0,0);stroke-width:1.0" />
<line x1="525.0" y1="406.6987298107782" x2="500.00000000000006" y2="363.3974596215562" style="stroke:rgb(0,0,0);stroke-width:1.0" />
<line x1="500.00000000000006" y1="363.3974596215562" x2="456.6987298107781" y2="338.3974596215562" style="stroke:rgb(0,0,0);stroke-width:1.0" />
<line x1="456.6987298107781" y1="338.3974596215562" x2="406.6987298107781" y2="338.3974596215562" style="stroke:rgb(0,0,0);stroke-width:1.0" />
<line x1="406.6987298107781" y1="338.3974596215562" x2="363.3974596215561" y2="363.3974596215562" style="stroke:rgb(0,0,0);stroke-width:1.0" />
<line x1="363.3974596215561" y1="363.3974596215562" x2="338.397459621556" y2="406.6987298107781" style="stroke:rgb(0,0,0);stroke-width:1.0" />
<line x1="338.397459621556" y1="406.6987298107781" x2="338.39745962155587" y2="456.6987298107781" style="stroke:rgb(0,0,0);stroke-width:1.0" />
<line x1="338.39745962155587" y1="456.6987298107781" x2="363.39745962155587" y2="500.0" style="stroke:rgb(0,0,0);stroke-width:1.0" />
<line x1="363.39745962155587" y1="500.0" x2="406.69872981077776" y2="525.0" style="stroke:rgb(0,0,0);stroke-width:1.0" />
<line x1="406.69872981077776" y1="525.0" x2="456.69872981077776" y2="525.0" style="stroke:rgb(0,0,0);stroke-width:1.0" />
<line x1="456.69872981077776" y1="525.0" x2="499.9999999999997" y2="500.0000000000001" style="stroke:rgb(0,0,0);stroke-width:1.0" />
<line x1="499.9999999999997" y1="500.0000000000001" x2="499.99999999999966" y2="450.0000000000001" style="stroke:rgb(0,0,0);stroke-width:1.0" />
<line x1="499.99999999999966" y1="450.0000000000001" x2="474.99999999999966" y2="406.6987298107782" style="stroke:rgb(0,0,0);stroke-width:1.0" />
<line x1="474.99999999999966" y1="406.6987298107782" x2="431.69872981077776" y2="381.6987298107782" style="stroke:rgb(0,0,0);stroke-width:1.0" />
<line x1="431.69872981077776" y1="381.6987298107782" x2="381.69872981077776" y2="381.6987298107782" style="stroke:rgb(0,0,0);stroke-width:1.0" />
<line x1="381.69872981077776" y1="381.6987298107782" x2="338.39745962155587" y2="406.69872981077833" style="stroke:rgb(0,0,0);stroke-width:1.0" />
<line x1="338.39745962155587" y1="406.69872981077833" x2="313.397459621556" y2="450.00000000000034" style="stroke:rgb(0,0,0);stroke-width:1.0" />
<line x1="313.397459621556" y1="450.00000000000034" x2="313.397459621556" y2="500.00000000000034" style="stroke:rgb(0,0,0);stroke-width:1.0" />
<line x1="313.397459621556" y1="500.00000000000034" x2="338.397459621556" y2="543.3012701892222" style="stroke:rgb(0,0,0);stroke-width:1.0" />
<line x1="338.397459621556" y1="543.3012701892222" x2="381.6987298107779" y2="568.3012701892222" style="stroke:rgb(0,0,0);stroke-width:1.0" />
<line x1="381.6987298107779" y1="568.3012701892222" x2="431.6987298107779" y2="568.3012701892224" style="stroke:rgb(0,0,0);stroke-width:1.0" />
<line x1="431.6987298107779" y1="568.3012701892224" x2="474.9999999999999" y2="543.3012701892224" style="stroke:rgb(0,0,0);stroke-width:1.0" />
<line x1="474.9999999999999" y1="543.3012701892224" x2="500.0" y2="500.00000000000045" style="stroke:rgb(0,0,0);stroke-width:1.0" />
<line x1="500.0" y1="500.00000000000045" x2="475.0" y2="456.69872981077856" style="stroke:rgb(0,0,0);stroke-width:1.0" />
<line x1="475.0" y1="456.69872981077856" x2="431.6987298107781" y2="431.69872981077856" style="stroke:rgb(0,0,0);stroke-width:1.0" />
<line x1="431.6987298107781" y1="431.69872981077856" x2="381.6987298107781" y2="431.69872981077856" style="stroke:rgb(0,0,0);stroke-width:1.0" />
<line x1="381.6987298107781" y1="431.69872981077856" x2="338.3974596215561" y2="456.69872981077845" style="stroke:rgb(0,0,0);stroke-width:1.0" />
<line x1="338.3974596215561" y1="456.69872981077845" x2="313.397459621556" y2="500.00000000000034" style="stroke:rgb(0,0,0);stroke-width:1.0" />
<line x1="313.397459621556" y1="500.00000000000034" x2="313.39745962155587" y2="550.0000000000003" style="stroke:rgb(0,0,0);stroke-width:1.0" />
<line x1="313.39745962155587" y1="550.0000000000003" x2="338.39745962155575" y2="593.3012701892224" style="stroke:rgb(0,0,0);stroke-width:1.0" />
<line x1="338.39745962155575" y1="593.3012701892224" x2="381.69872981077754" y2="618.3012701892226" style="stroke:rgb(0,0,0);stroke-width:1.0" />
<line x1="381.69872981077754" y1="618.3012701892226" x2="431.69872981077754" y2="618.3012701892228" style="stroke:rgb(0,0,0);stroke-width:1.0" />
<line x1="431.69872981077754" y1="618.3012701892228" x2="474.99999999999943" y2="593.3012701892227" style="stroke:rgb(0,0,0);stroke-width:1.0" />
<line x1="474.99999999999943" y1="593.3012701892227" x2="499.9999999999994" y2="550.0000000000007" style="stroke:rgb(0,0,0);stroke-width:1.0" />
<line x1="499.9999999999994" y1="550.0000000000007" x2="499.9999999999993" y2="500.00000000000074" style="stroke:rgb(0,0,0);stroke-width:1.0" />
<line x1="499.9999999999993" y1="500.00000000000074" x2="456.6987298107774" y2="475.0000000000007" style="stroke:rgb(0,0,0);stroke-width:1.0" />
<line x1="456.6987298107774" y1="475.0000000000007" x2="406.6987298107774" y2="475.00000000000057" style="stroke:rgb(0,0,0);stroke-width:1.0" />
<line x1="406.6987298107774" y1="475.00000000000057" x2="363.3974596215554" y2="500.0000000000005" style="stroke:rgb(0,0,0);stroke-width:1.0" />
<line x1="363.3974596215554" y1="500.0000000000005" x2="338.3974596215553" y2="543.3012701892224" style="stroke:rgb(0,0,0);stroke-width:1.0" />
<line x1="338.3974596215553" y1="543.3012701892224" x2="338.39745962155496" y2="593.3012701892224" style="stroke:rgb(0,0,0);stroke-width:1.0" />
<line x1="338.39745962155496" y1="593.3012701892224" x2="363.39745962155484" y2="636.6025403784444" style="stroke:rgb(0,0,0);stroke-width:1.0" />
<line x1="363.39745962155484" y1="636.6025403784444" x2="406.69872981077674" y2="661.6025403784445" style="stroke:rgb(0,0,0);stroke-width:1.0" />
<line x1="406.69872981077674" y1="661.6025403784445" x2="456.69872981077674" y2="661.6025403784442" style="stroke:rgb(0,0,0);stroke-width:1.0" />
<line x1="456.69872981077674" y1="661.6025403784442" x2="499.99999999999875" y2="636.6025403784444" style="stroke:rgb(0,0,0);stroke-width:1.0" />
<line x1="499.99999999999875" y1="636.6025403784444" x2="524.9999999999986" y2="593.3012701892224" style="stroke:rgb(0,0,0);stroke-width:1.0" />
<line x1="524.9999999999986" y1="593.3012701892224" x2="524.9999999999989" y2="543.3012701892224" style="stroke:rgb(0,0,0);stroke-width:1.0" />
<line x1="524.9999999999989" y1="543.3012701892224" x2="499.99999999999886" y2="500.00000000000045" style="stroke:rgb(0,0,0);stroke-width:1.0" />
<line x1="499.99999999999886" y1="500.00000000000045" x2="449.99999999999886" y2="500.0000000000004" style="stroke:rgb(0,0,0);stroke-width:1.0" />
<line x1="449.99999999999886" y1="500.0000000000004" x2="406.69872981077674" y2="525.0000000000002" style="stroke:rgb(0,0,0);stroke-width:1.0" />
<line x1="406.69872981077674" y1="525.0000000000002" x2="381.69872981077697" y2="568.3012701892222" style="stroke:rgb(0,0,0);stroke-width:1.0" />
<line x1="381.69872981077697" y1="568.3012701892222" x2="381.69872981077697" y2="618.3012701892222" style="stroke:rgb(0,0,0);stroke-width:1.0" />
<line x1="381.69872981077697" y1="618.3012701892222" x2="406.6987298107771" y2="661.602540378444" style="stroke:rgb(0,0,0);stroke-width:1.0" />
<line x1="406.6987298107771" y1="661.602540378444" x2="449.999999999999" y2="686.6025403784441" style="stroke:rgb(0,0,0);stroke-width:1.0" />
<line x1="449.999999999999" y1="686.6025403784441" x2="499.999999999999" y2="686.602540378444" style="stroke:rgb(0,0,0);stroke-width:1.0" />
<line x1="499.999999999999" y1="686.602540378444" x2="543.301270189221" y2="661.6025403784441" style="stroke:rgb(0,0,0);stroke-width:1.0" />
<line x1="543.301270189221" y1="661.6025403784441" x2="568.301270189221" y2="618.3012701892221" style="stroke:rgb(0,0,0);stroke-width:1.0" />
<line x1="568.301270189221" y1="618.3012701892221" x2="568.3012701892211" y2="568.3012701892221" style="stroke:rgb(0,0,0);stroke-width:1.0" />
<line x1="568.3012701892211" y1="568.3012701892221" x2="543.3012701892211" y2="525.0000000000002" style="stroke:rgb(0,0,0);stroke-width:1.0" />
<line x1="543.3012701892211" y1="525.0000000000002" x2="499.9999999999993" y2="500.0" style="stroke:rgb(0,0,0);stroke-width:1.0" />
<line x1="499.9999999999993" y1="500.0" x2="456.6987298107774" y2="525.0" style="stroke:rgb(0,0,0);stroke-width:1.0" />
<line x1="456.6987298107774" y1="525.0" x2="431.6987298107773" y2="568.3012701892219" style="stroke:rgb(0,0,0);stroke-width:1.0" />
<line x1="431.6987298107773" y1="568.3012701892219" x2="431.6987298107773" y2="618.3012701892219" style="stroke:rgb(0,0,0);stroke-width:1.0" />
<line x1="431.6987298107773" y1="618.3012701892219" x2="456.6987298107771" y2="661.6025403784439" style="stroke:rgb(0,0,0);stroke-width:1.0" />
<line x1="456.6987298107771" y1="661.6025403784439" x2="499.999999999999" y2="686.602540378444" style="stroke:rgb(0,0,0);stroke-width:1.0" />
<line x1="499.999999999999" y1="686.602540378444" x2="549.999999999999" y2="686.6025403784438" style="stroke:rgb(0,0,0);stroke-width:1.0" />
<line x1="549.999999999999" y1="686.6025403784438" x2="593.301270189221" y2="661.602540378444" style="stroke:rgb(0,0,0);stroke-width:1.0" />
<line x1="593.301270189221" y1="661.602540378444" x2="618.301270189221" y2="618.301270189222" style="stroke:rgb(0,0,0);stroke-width:1.0" />
<line x1="618.301270189221" y1="618.301270189222" x2="618.3012701892212" y2="568.301270189222" style="stroke:rgb(0,0,0);stroke-width:1.0" />
<line x1="618.3012701892212" y1="568.301270189222" x2="593.3012701892212" y2="525.0" style="stroke:rgb(0,0,0);stroke-width:1.0" />
<line x1="593.3012701892212" y1="525.0" x2="549.9999999999994" y2="499.99999999999983" style="stroke:rgb(0,0,0);stroke-width:1.0" />
<line x1="549.9999999999994" y1="499.99999999999983" x2="499.99999999999943" y2="499.9999999999997" style="stroke:rgb(0,0,0);stroke-width:1.0" />
<line x1="499.99999999999943" y1="499.9999999999997" x2="474.9999999999993" y2="543.3012701892216" style="stroke:rgb(0,0,0);stroke-width:1.0" />
<line x1="474.9999999999993" y1="543.3012701892216" x2="474.9999999999993" y2="593.3012701892216" style="stroke:rgb(0,0,0);stroke-width:1.0" />
<line x1="474.9999999999993" y1="593.3012701892216" x2="499.99999999999915" y2="636.6025403784436" style="stroke:rgb(0,0,0);stroke-width:1.0" />
<line x1="499.99999999999915" y1="636.6025403784436" x2="543.301270189221" y2="661.6025403784436" style="stroke:rgb(0,0,0);stroke-width:1.0" />
<line x1="543.301270189221" y1="661.6025403784436" x2="593.301270189221" y2="661.6025403784439" style="stroke:rgb(0,0,0);stroke-width:1.0" />
<line x1="593.301270189221" y1="661.6025403784439" x2="636.6025403784431" y2="636.602540378444" style="stroke:rgb(0,0,0);stroke-width:1.0" />
<line x1="636.6025403784431" y1="636.602540378444" x2="661.6025403784433" y2="593.3012701892222" style="stroke:rgb(0,0,0);stroke-width:1.0" />
<line x1="661.6025403784433" y1="593.3012701892222" x2="661.6025403784436" y2="543.3012701892222" style="stroke:rgb(0,0,0);stroke-width:1.0" />
<line x1="661.6025403784436" y1="543.3012701892222" x2="636.6025403784438" y2="500.0000000000001" style="stroke:rgb(0,0,0);stroke-width:1.0" />
<line x1="636.6025403784438" y1="500.0000000000001" x2="593.3012701892219" y2="475.0000000000002" style="stroke:rgb(0,0,0);stroke-width:1.0" />
<line x1="593.3012701892219" y1="475.0000000000002" x2="543.3012701892219" y2="474.9999999999998" style="stroke:rgb(0,0,0);stroke-width:1.0" />
<line x1="543.3012701892219" y1="474.9999999999998" x2="500.0" y2="499.99999999999983" style="stroke:rgb(0,0,0);stroke-width:1.0" />
<line x1="500.0" y1="499.99999999999983" x2="500.0" y2="549.9999999999998" style="stroke:rgb(0,0,0);stroke-width:1.0" />
<line x1="500.0" y1="549.9999999999998" x2="525.0000000000001" y2="593.3012701892217" style="stroke:rgb(0,0,0);stroke-width:1.0" />
<line x1="525.0000000000001" y1="593.3012701892217" x2="568.301270189222" y2="618.3012701892217" style="stroke:rgb(0,0,0);stroke-width:1.0" />
<line x1="568.301270189222" y1="618.3012701892217" x2="618.301270189222" y2="618.3012701892217" style="stroke:rgb(0,0,0);stroke-width:1.0" />
<line x1="618.301270189222" y1="618.3012701892217" x2="661.602540378444" y2="593.3012701892218" style="stroke:rgb(0,0,0);stroke-width:1.0" />
<line x1="661.602540378444" y1="593.3012701892218" x2="686.602540378444" y2="549.9999999999998" style="stroke:rgb(0,0,0);stroke-width:1.0" />
<line x1="686.602540378444" y1="549.9999999999998" x2="686.6025403784442" y2="499.99999999999983" style="stroke:rgb(0,0,0);stroke-width:1.0" />
<line x1="686.6025403784442" y1="499.99999999999983" x2="661.6025403784442" y2="456.6987298107779" style="stroke:rgb(0,0,0);stroke-width:1.0" />
<line x1="661.6025403784442" y1="456.6987298107779" x2="618.3012701892224" y2="431.698729810778" style="stroke:rgb(0,0,0);stroke-width:1.0" />
<line x1="618.3012701892224" y1="431.698729810778" x2="568.3012701892224" y2="431.6987298107779" style="stroke:rgb(0,0,0);stroke-width:1.0" />
<line x1="568.3012701892224" y1="431.6987298107779" x2="525.0000000000005" y2="456.6987298107779" style="stroke:rgb(0,0,0);stroke-width:1.0" />
<line x1="525.0000000000005" y1="456.6987298107779" x2="500.0000000000003" y2="499.9999999999997" style="stroke:rgb(0,0,0);stroke-width:1.0" />
<line x1="500.0000000000003" y1="499.9999999999997" x2="525.0" y2="543.3012701892218" style="stroke:rgb(0,0,0);stroke-width:1.0" />
<line x1="525.0" y1="543.3012701892218" x2="568.3012701892219" y2="568.3012701892219" style="stroke:rgb(0,0,0);stroke-width:1.0" />
<line x1="568.3012701892219" y1="568.3012701892219" x2="618.3012701892219" y2="568.3012701892226" style="stroke:rgb(0,0,0);stroke-width:1.0" />
<line x1="618.3012701892219" y1="568.3012701892226" x2="661.6025403784438" y2="543.3012701892224" style="stroke:rgb(0,0,0);stroke-width:1.0" />
<line x1="661.6025403784438" y1="543.3012701892224" x2="686.6025403784441" y2="500.0000000000006" style="stroke:rgb(0,0,0);stroke-width:1.0" />
<line x1="686.6025403784441" y1="500.0000000000006" x2="686.6025403784444" y2="450.0000000000007" style="stroke:rgb(0,0,0);stroke-width:1.0" />
<line x1="686.6025403784444" y1="450.0000000000007" x2="661.6025403784445" y2="406.6987298107787" style="stroke:rgb(0,0,0);stroke-width:1.0" />
<line x1="661.6025403784445" y1="406.6987298107787" x2="618.3012701892225" y2="381.6987298107788" style="stroke:rgb(0,0,0);stroke-width:1.0" />
<line x1="618.3012701892225" y1="381.6987298107788" x2="568.3012701892225" y2="381.698729810779" style="stroke:rgb(0,0,0);stroke-width:1.0" />
<line x1="568.3012701892225" y1="381.698729810779" x2="525.0000000000003" y2="406.6987298107787" style="stroke:rgb(0,0,0);stroke-width:1.0" />
<line x1="525.0000000000003" y1="406.6987298107787" x2="500.00000000000017" y2="450.00000000000045" style="stroke:rgb(0,0,0);stroke-width:1.0" />
<line x1="500.00000000000017" y1="450.00000000000045" x2="500.0000000000001" y2="500.00000000000045" style="stroke:rgb(0,0,0);stroke-width:1.0" />
<line x1="500.0000000000001" y1="500.00000000000045" x2="543.3012701892218" y2="525.0000000000009" style="stroke:rgb(0,0,0);stroke-width:1.0" />
<line x1="543.3012701892218" y1="525.0000000000009" x2="593.3012701892218" y2="525.0000000000011" style="stroke:rgb(0,0,0);stroke-width:1.0" />
<line x1="593.3012701892218" y1="525.0000000000011" x2="636.6025403784438" y2="500.00000000000136" style="stroke:rgb(0,0,0);stroke-width:1.0" />
<line x1="636.6025403784438" y1="500.00000000000136" x2="661.6025403784438" y2="456.69872981077947" style="stroke:rgb(0,0,0);stroke-width:1.0" />
<line x1="661.6025403784438" y1="456.69872981077947" x2="661.6025403784437" y2="406.69872981077947" style="stroke:rgb(0,0,0);stroke-width:1.0" />
<line x1="661.6025403784437" y1="406.69872981077947" x2="636.602540378444" y2="363.39745962155735" style="stroke:rgb(0,0,0);stroke-width:1.0" />
<line x1="636.602540378444" y1="363.39745962155735" x2="593.3012701892224" y2="338.3974596215571" style="stroke:rgb(0,0,0);stroke-width:1.0" />
<line x1="593.3012701892224" y1="338.3974596215571" x2="543.3012701892224" y2="338.397459621557" style="stroke:rgb(0,0,0);stroke-width:1.0" />
<line x1="543.3012701892224" y1="338.397459621557" x2="500.00000000000034" y2="363.397459621557" style="stroke:rgb(0,0,0);stroke-width:1.0" />
<line x1="500.00000000000034" y1="363.397459621557" x2="474.9999999999999" y2="406.6987298107787" style="stroke:rgb(0,0,0);stroke-width:1.0" />
<line x1="474.9999999999999" y1="406.6987298107787" x2="474.99999999999943" y2="456.6987298107787" style="stroke:rgb(0,0,0);stroke-width:1.0" />
<line x1="474.99999999999943" y1="456.6987298107787" x2="499.99999999999983" y2="500.0000000000004" style="stroke:rgb(0,0,0);stroke-width:1.0" />
</svg>
