<?xml version="1.0" standalone="no"?>
<!DOCTYPE svg PUBLIC "-//W3C//DTD SVG 1.1//EN" 
  "http://www.w3.org/Graphics/SVG/1.1/DTD/svg11.dtd">
<svg xmlns="http://www.w3.org/2000/svg" height="1000" width="1000">
<line x1="500.0" y1="500.0" x2="500.0" y2="400.0" style="stroke:rgb(0,0,0);stroke-width:1.0" />
<line x1="500.0" y1="400.0" x2="400.0" y2="400.0" style="stroke:rgb(0,0,0);stroke-width:1.0" />
<line x1="400.0" y1="400.0" x2="400.0" y2="500.0" style="stroke:rgb(0,0,0);stroke-width:1.0" />
<line x1="400.0" y1="500.0" x2="500.0" y2="500.0" style="stroke:rgb(0,0,0);stroke-width:1.0" />
<line x1="500.0" y1="425.0" x2="425.0" y2="399.9999999999999" style="stroke:rgb(0,0,0);stroke-width:1.0" />
<line x1="425.0" y1="399.9999999999999" x2="400.0" y2="474.9999999999999" style="stroke:rgb(0,0,0);stroke-width:1.0" />
<line x1="400.0" y1="474.9999999999999" x2="475.0" y2="499.9999999999999" style="stroke:rgb(0,0,0);stroke-width:1.0" />
<line x1="475.0" y1="499.9999999999999" x2="500.0" y2="424.9999999999999" style="stroke:rgb(0,0,0);stroke-width:1.0" />
<line x1="443.75" y1="406.2499999999999" x2="406.25" y2="456.2499999999999" style="stroke:rgb(0,0,0);stroke-width:1.0" />
<line x1="406.25" y1="456.2499999999999" x2="456.25" y2="493.7499999999999" style="stroke:rgb(0,0,0);stroke-width:1.0" />
<line x1="456.25" y1="493.7499999999999" x2="493.7500000000001" y2="443.75" style="stroke:rgb(0,0,0);stroke-width:1.0" />
<line x1="493.7500000000001" y1="443.75" x2="443.7500000000001" y2="406.25" style="stroke:rgb(0,0,0);stroke-width:1.0" />
<line x1="415.625" y1="443.7499999999999" x2="443.7499999999999" y2="484.375" style="stroke:rgb(0,0,0);stroke-width:1.0" />
<line x1="443.7499999999999" y1="484.375" x2="484.3749999999999" y2="456.25" style="stroke:rgb(0,0,0);stroke-width:1.0" />
<line x1="484.3749999999999" y1="456.25" x2="456.25" y2="415.6249999999999" style="stroke:rgb(0,0,0);stroke-width:1.0" />
<line x1="456.25" y1="415.6249999999999" x2="415.625" y2="443.7499999999999" style="stroke:rgb(0,0,0);stroke-width:1.0" />
<line x1="436.71875" y1="474.2187499999999" x2="474.21875" y2="463.28125" style="stroke:rgb(0,0,0);stroke-width:1.0" />
<line x1="474.21875" y1="463.28125" x2="463.28125" y2="425.78125" style="stroke:rgb(0,0,0);stroke-width:1.0" />
<line x1="463.28125" y1="425.78125" x2="425.78125" y2="436.7187499999999" style="stroke:rgb(0,0,0);stroke-width:1.0" />
<line x1="425.78125" y1="436.7187499999999" x2="436.7187499999998" y2="474.21875" style="stroke:rgb(0,0,0);stroke-width:1.0" />
<line x1="464.8437499999998" y1="466.0156250000001" x2="466.01562499999966" y2="435.1562500000001" style="stroke:rgb(0,0,0);stroke-width:1.0" />
<line x1="466.01562499999966" y1="435.1562500000001" x2="435.15624999999966" y2="433.9843750000001" style="stroke:rgb(0,0,0);stroke-width:1.0" />
<line x1="435.15624999999966" y1="433.9843750000001" x2="433.98437499999966" y2="464.8437500000001" style="stroke:rgb(0,0,0);stroke-width:1.0" />
<line x1="433.98437499999966" y1="464.8437500000001" x2="464.84374999999966" y2="466.015625" style="stroke:rgb(0,0,0);stroke-width:1.0" />
<line x1="465.72265624999955" y1="442.87109375" x2="442.87109374999955" y2="434.2773437499999" style="stroke:rgb(0,0,0);stroke-width:1.0" />
<line x1="442.87109374999955" y1="434.2773437499999" x2="434.27734374999955" y2="457.1289062499999" style="stroke:rgb(0,0,0);stroke-width:1.0" />
<line x1="434.27734374999955" y1="457.1289062499999" x2="457.12890624999955" y2="465.7226562499999" style="stroke:rgb(0,0,0);stroke-width:1.0" />
<line x1="457.12890624999955" y1="465.7226562499999" x2="465.72265624999966" y2="442.8710937499999" style="stroke:rgb(0,0,0);stroke-width:1.0" />
<line x1="448.58398437499966" y1="436.4257812499998" x2="436.42578124999966" y2="451.4160156249998" style="stroke:rgb(0,0,0);stroke-width:1.0" />
<line x1="436.42578124999966" y1="451.4160156249998" x2="451.41601562499966" y2="463.5742187499998" style="stroke:rgb(0,0,0);stroke-width:1.0" />
<line x1="451.41601562499966" y1="463.5742187499998" x2="463.57421874999966" y2="448.5839843749998" style="stroke:rgb(0,0,0);stroke-width:1.0" />
<line x1="463.57421874999966" y1="448.5839843749998" x2="448.5839843749998" y2="436.42578124999966" style="stroke:rgb(0,0,0);stroke-width:1.0" />
<line x1="439.4653320312498" y1="447.66845703124966" x2="447.6684570312499" y2="460.53466796874955" style="stroke:rgb(0,0,0);stroke-width:1.0" />
<line x1="447.6684570312499" y1="460.53466796874955" x2="460.5346679687499" y2="452.33154296874955" style="stroke:rgb(0,0,0);stroke-width:1.0" />
<line x1="460.5346679687499" y1="452.33154296874955" x2="452.3315429687498" y2="439.46533203124955" style="stroke:rgb(0,0,0);stroke-width:1.0" />
<line x1="452.3315429687498" y1="439.46533203124955" x2="439.4653320312499" y2="447.66845703124966" style="stroke:rgb(0,0,0);stroke-width:1.0" />
<line x1="445.6176757812499" y1="457.31811523437466" x2="457.3181152343749" y2="454.38232421874966" style="stroke:rgb(0,0,0);stroke-width:1.0" />
<line x1="457.3181152343749" y1="454.38232421874966" x2="454.3823242187498" y2="442.68188476562466" style="stroke:rgb(0,0,0);stroke-width:1.0" />
<line x1="454.3823242187498" y1="442.68188476562466" x2="442.6818847656248" y2="445.6176757812498" style="stroke:rgb(0,0,0);stroke-width:1.0" />
<line x1="442.6818847656248" y1="445.6176757812498" x2="445.61767578125" y2="457.3181152343748" style="stroke:rgb(0,0,0);stroke-width:1.0" />
<line x1="454.39300537109375" y1="455.116271972656" x2="455.11627197265625" y2="445.606994628906" style="stroke:rgb(0,0,0);stroke-width:1.0" />
<line x1="455.11627197265625" y1="445.606994628906" x2="445.60699462890625" y2="444.8837280273435" style="stroke:rgb(0,0,0);stroke-width:1.0" />
<line x1="445.60699462890625" y1="444.8837280273435" x2="444.88372802734386" y2="454.3930053710935" style="stroke:rgb(0,0,0);stroke-width:1.0" />
<line x1="444.88372802734386" y1="454.3930053710935" x2="454.39300537109386" y2="455.116271972656" style="stroke:rgb(0,0,0);stroke-width:1.0" />
</svg>
